<svg width="40" height="40" viewBox="0 0 40 40" fill="none" xmlns="http://www.w3.org/2000/svg">
<circle cx="20" cy="20" r="20" fill="#585858"/>
<path id="svg_1" fill="rgb(100%,100%,100%)" fill-rule="nonzero" d="m30.85547,13.71484l0,8.57032l-2.28516,0l0,-7.42969l-5.71484,-4l-5.71094,4l0,1.71484l-2.28906,0l0,-2.85547l8,-5.71484l8,5.71484zm-6.28516,0.57032l-1.14062,0l0,1.14453l1.14062,0l0,-1.14453zm-2.28515,0l-1.14063,0l0,1.14453l1.14063,0l0,-1.14453zm2.28515,2.28515l-1.14062,0l0,1.14453l1.14062,0l0,-1.14453zm-2.28515,0l-1.14063,0l0,1.14453l1.14063,0l0,-1.14453zm6.28515,8l-2.28515,0c0,-1.37109 -0.85547,-2.60547 -2.13672,-3.08593l-7.03906,-2.62891l-9.10938,0l0,12.57422l6.85547,0l0,-1.64844l8,2.21875l9.14453,-2.85547l0,-1.14453c0,-1.89844 -1.53125,-3.42969 -3.42969,-3.42969zm-18.28515,4.57422l0,-8l2.28515,0l0,8l-2.28515,0zm12.53906,0.46875l-7.96875,-2.20703l0,-6.26172l1.83984,0l6.65235,2.47656c0.39062,0.14844 0.65234,0.52735 0.65234,0.94922c0,0 -2.27344,-0.05468 -2.62891,-0.17187l-2.71875,-0.90235l-0.72265,2.17188l2.72265,0.90234c0.58204,0.19532 1.1875,0.29688 1.80469,0.29688l6.11328,0c0.44532,0 0.84766,0.26562 1.03125,0.64062l-6.77734,2.10547zm0,0"/>
</svg>
