<?xml version="1.0" encoding="utf-8"?>
<svg width="24px" height="24px" viewBox="0 0 24 24" fill="none" xmlns="http://www.w3.org/2000/svg">
  <path id="svg_1" fill-rule="nonzero" d="M 21.046 6.762 L 21.046 13.904 L 19.142 13.904 L 19.142 7.712 L 14.379 4.379 L 9.621 7.712 L 9.621 9.142 L 7.712 9.142 L 7.712 6.762 L 14.379 2 L 21.046 6.762 Z M 15.808 7.237 L 14.858 7.237 L 14.858 8.192 L 15.808 8.192 L 15.808 7.237 Z M 13.904 7.237 L 12.954 7.237 L 12.954 8.192 L 13.904 8.192 L 13.904 7.237 Z M 15.808 9.142 L 14.858 9.142 L 14.858 10.096 L 15.808 10.096 L 15.808 9.142 Z M 13.904 9.142 L 12.954 9.142 L 12.954 10.096 L 13.904 10.096 L 13.904 9.142 Z M 19.142 15.808 L 17.237 15.808 C 17.237 14.666 16.525 13.637 15.457 13.237 L 9.591 11.046 L 2 11.046 L 2 21.525 L 7.712 21.525 L 7.712 20.151 L 14.379 22 L 22 19.621 L 22 18.667 C 22 17.085 20.724 15.808 19.142 15.808 Z M 3.904 19.621 L 3.904 12.954 L 5.808 12.954 L 5.808 19.621 L 3.904 19.621 Z M 14.353 20.011 L 7.712 18.172 L 7.712 12.954 L 9.246 12.954 L 14.79 15.017 C 15.115 15.142 15.333 15.457 15.333 15.808 C 15.333 15.808 13.439 15.763 13.142 15.665 L 10.877 14.913 L 10.275 16.723 L 12.543 17.475 C 13.028 17.638 13.533 17.722 14.047 17.722 L 19.142 17.722 C 19.513 17.722 19.848 17.944 20.002 18.257 L 14.353 20.011 Z M 14.353 20.011" fill="currentColor"/>
</svg>