<svg width="40" height="40" viewBox="0 0 40 40" fill="none" xmlns="http://www.w3.org/2000/svg">
<circle cx="20" cy="20" r="20" fill="#585858"/>
<path d="M13.6761 30.4286C11.839 30.4286 10.267 29.7999 8.96023 28.5425C7.65341 27.2852 7 25.8183 7 24.1418V16.9989H20.3239V24.1418C20.3239 25.8183 19.6799 27.2852 18.392 28.5425C17.1042 29.7999 15.5322 30.4286 13.6761 30.4286ZM11.233 22.2424C11.4981 22.2424 11.7159 22.1621 11.8864 22.0016C12.0568 21.8411 12.142 21.636 12.142 21.3863C12.142 21.1366 12.0568 20.9315 11.8864 20.771C11.7159 20.6105 11.4981 20.5302 11.233 20.5302C10.9678 20.5302 10.75 20.6105 10.5795 20.771C10.4091 20.9315 10.3239 21.1366 10.3239 21.3863C10.3239 21.636 10.4091 21.8411 10.5795 22.0016C10.75 22.1621 10.9678 22.2424 11.233 22.2424ZM13.733 26.389C14.5095 26.389 15.2102 26.224 15.8352 25.8941C16.4602 25.5641 16.7727 25.1049 16.7727 24.5163H10.6932C10.6932 25.1049 11.0057 25.5641 11.6307 25.8941C12.2557 26.224 12.9564 26.389 13.733 26.389ZM16.1477 22.2424C16.4129 22.2424 16.6307 22.1621 16.8011 22.0016C16.9716 21.8411 17.0568 21.636 17.0568 21.3863C17.0568 21.1366 16.9716 20.9315 16.8011 20.771C16.6307 20.6105 16.4129 20.5302 16.1477 20.5302C15.8826 20.5302 15.6648 20.6105 15.4943 20.771C15.3239 20.9315 15.2386 21.1366 15.2386 21.3863C15.2386 21.636 15.3239 21.8411 15.4943 22.0016C15.6648 22.1621 15.8826 22.2424 16.1477 22.2424ZM25.3523 22.4296C24.7083 22.4296 24.0833 22.3538 23.4773 22.2022C22.8712 22.0506 22.2936 21.8322 21.7443 21.5468V15.6881H18.6193V9H32V16.4104C32 18.069 31.3561 19.4869 30.0682 20.664C28.7803 21.8411 27.2083 22.4296 25.3523 22.4296ZM22.9375 14.4842C23.2027 14.4842 23.4205 14.395 23.5909 14.2167C23.7614 14.0383 23.8466 13.8422 23.8466 13.6281C23.8466 13.3785 23.7614 13.1734 23.5909 13.0128C23.4205 12.8523 23.2027 12.7721 22.9375 12.7721C22.6723 12.7721 22.4545 12.8523 22.2841 13.0128C22.1136 13.1734 22.0284 13.3785 22.0284 13.6281C22.0284 13.8422 22.1136 14.0383 22.2841 14.2167C22.4545 14.395 22.6723 14.4842 22.9375 14.4842ZM22.3125 18.39H28.392C28.392 17.8015 28.0748 17.3422 27.4403 17.0123C26.8059 16.6824 26.1098 16.5174 25.3523 16.5174C24.7841 16.5174 24.1354 16.6645 23.4062 16.9588C22.6771 17.2531 22.3125 17.7302 22.3125 18.39ZM27.8239 14.4842C28.089 14.4842 28.3068 14.395 28.4773 14.2167C28.6477 14.0383 28.733 13.8422 28.733 13.6281C28.733 13.3785 28.6477 13.1734 28.4773 13.0128C28.3068 12.8523 28.089 12.7721 27.8239 12.7721C27.5587 12.7721 27.3409 12.8523 27.1705 13.0128C27 13.1734 26.9148 13.3785 26.9148 13.6281C26.9148 13.8422 27 14.0383 27.1705 14.2167C27.3409 14.395 27.5587 14.4842 27.8239 14.4842Z" fill="white"/>
</svg>
