<?xml version="1.0" encoding="utf-8"?>
<svg width="24px" height="24px" viewBox="0 0 24 24" fill="none" xmlns="http://www.w3.org/2000/svg">
  <path d="M 7.341 20.572 C 5.871 20.572 4.614 20.069 3.568 19.063 C 2.523 18.057 2 16.884 2 15.542 L 2 9.828 L 12.659 9.828 L 12.659 15.542 C 12.659 16.884 12.144 18.057 11.114 19.063 C 10.083 20.069 8.826 20.572 7.341 20.572 Z M 5.386 14.023 C 5.598 14.023 5.773 13.959 5.909 13.83 C 6.045 13.702 6.114 13.538 6.114 13.338 C 6.114 13.138 6.045 12.974 5.909 12.846 C 5.773 12.717 5.598 12.653 5.386 12.653 C 5.174 12.653 5 12.717 4.864 12.846 C 4.727 12.974 4.659 13.138 4.659 13.338 C 4.659 13.538 4.727 13.702 4.864 13.83 C 5 13.959 5.174 14.023 5.386 14.023 Z M 7.386 17.34 C 8.008 17.34 8.568 17.208 9.068 16.944 C 9.568 16.68 9.818 16.313 9.818 15.842 L 4.955 15.842 C 4.955 16.313 5.205 16.68 5.705 16.944 C 6.205 17.208 6.765 17.34 7.386 17.34 Z M 9.318 14.023 C 9.53 14.023 9.705 13.959 9.841 13.83 C 9.977 13.702 10.045 13.538 10.045 13.338 C 10.045 13.138 9.977 12.974 9.841 12.846 C 9.705 12.717 9.53 12.653 9.318 12.653 C 9.106 12.653 8.932 12.717 8.795 12.846 C 8.659 12.974 8.591 13.138 8.591 13.338 C 8.591 13.538 8.659 13.702 8.795 13.83 C 8.932 13.959 9.106 14.023 9.318 14.023 Z M 16.682 14.173 C 16.167 14.173 15.667 14.112 15.182 13.991 C 14.697 13.869 14.235 13.695 13.795 13.466 L 13.795 8.779 L 11.295 8.779 L 11.295 3.429 L 22 3.429 L 22 9.357 C 22 10.684 21.485 11.819 20.455 12.76 C 19.424 13.702 18.167 14.173 16.682 14.173 Z M 14.75 7.816 C 14.962 7.816 15.136 7.745 15.273 7.602 C 15.409 7.46 15.477 7.303 15.477 7.131 C 15.477 6.932 15.409 6.768 15.273 6.639 C 15.136 6.511 14.962 6.447 14.75 6.447 C 14.538 6.447 14.364 6.511 14.227 6.639 C 14.091 6.768 14.023 6.932 14.023 7.131 C 14.023 7.303 14.091 7.46 14.227 7.602 C 14.364 7.745 14.538 7.816 14.75 7.816 Z M 14.25 10.941 L 19.114 10.941 C 19.114 10.47 18.86 10.103 18.352 9.839 C 17.845 9.575 17.288 9.443 16.682 9.443 C 16.227 9.443 15.708 9.561 15.125 9.796 C 14.542 10.031 14.25 10.413 14.25 10.941 Z M 18.659 7.816 C 18.871 7.816 19.045 7.745 19.182 7.602 C 19.318 7.46 19.386 7.303 19.386 7.131 C 19.386 6.932 19.318 6.768 19.182 6.639 C 19.045 6.511 18.871 6.447 18.659 6.447 C 18.447 6.447 18.273 6.511 18.136 6.639 C 18 6.768 17.932 6.932 17.932 7.131 C 17.932 7.303 18 7.46 18.136 7.602 C 18.273 7.745 18.447 7.816 18.659 7.816 Z" fill="currentColor"/>
</svg>