<svg width="40" height="40" viewBox="0 0 40 40" fill="none" xmlns="http://www.w3.org/2000/svg">
<circle cx="20" cy="20" r="20" fill="#585858"/>
<path id="svg_1" fill="white" d="m20.24209,28.56755c-0.1963,0.1963 -0.5453,0.229 -0.7744,0c-0.1963,-0.1963 -0.229,-0.5454 0,-0.7744l3.6975,-3.6975l-1.5379,-1.5379l-3.69747,3.6975c-0.20724,0.2181 -0.55626,0.2072 -0.7744,0c-0.22905,-0.2291 -0.19633,-0.5781 0,-0.7744l3.69747,-3.6975l-1.5379,-1.5379l-3.69748,3.6975c-0.19633,0.1963 -0.54535,0.229 -0.7744,0c-0.20724,-0.2073 -0.20724,-0.5563 0,-0.7744l3.69748,-3.6975l-1.54878,-1.53794l-3.69751,3.69754c-0.19633,0.1963 -0.54536,0.229 -0.77441,0c-0.20723,-0.2182 -0.20723,-0.5563 0,-0.7744l4.77732,-4.77735l2.03958,2.02872c1.0362,1.03613 2.825,1.02523 3.8612,0c1.0689,-1.06889 1.0689,-2.79222 0,-3.86111l-2.0288,-2.02873l0.3054,-0.3054c0.8508,-0.85075 2.236,-0.85075 3.0868,0l4.6246,4.62462c0.8507,0.85075 0.8507,2.23596 0,3.08675l-8.9439,8.9438zm10.4818,-7.395c1.7015,-1.7015 1.7015,-4.46104 0,-6.17345l-4.6246,-4.62462c-1.7016,-1.70151 -4.4611,-1.70151 -6.1735,0l-0.3054,0.3054l-0.3054,-0.3054c-1.70148,-1.70151 -4.46097,-1.70151 -6.17339,0l-3.86112,3.86112c-1.54881,1.54881 -1.6906,3.95928 -0.43628,5.66075l1.58153,-1.58149c-0.42538,-0.81804 -0.28359,-1.85421 0.40356,-2.54136l3.86112,-3.86112c0.85075,-0.85075 2.23596,-0.85075 3.08671,0l3.88297,3.88294c0.1963,0.19632 0.229,0.54535 0,0.7744c-0.2291,0.22905 -0.5781,0.19633 -0.7744,0l-3.58848,-3.57753l-6.32613,6.31526c-1.06889,1.0579 -1.06889,2.7922 0,3.8611c0.42538,0.4253 0.97074,0.6871 1.54881,0.7635c0.07635,0.5671 0.32722,1.1125 0.7635,1.5488c0.43629,0.4363 0.98164,0.6871 1.54881,0.7635c0.07635,0.5671 0.32721,1.1125 0.7635,1.5488c0.43628,0.4363 0.98164,0.6871 1.54881,0.7635c0.07635,0.589 0.33812,1.1234 0.7635,1.5488c0.51258,0.5126 1.19978,0.7962 1.93058,0.7962c0.7308,0 1.4179,-0.2836 1.9305,-0.7962l8.9548,-8.9329z"/>
</svg>
