<?xml version="1.0" encoding="utf-8"?>
<svg width="24px" height="24px" viewBox="0 0 24 24" fill="none" xmlns="http://www.w3.org/2000/svg">
  <path id="svg_1" d="M 12.202 19.14 C 12.038 19.303 11.747 19.33 11.556 19.14 C 11.393 18.976 11.366 18.685 11.556 18.494 L 14.638 15.413 L 13.356 14.132 L 10.275 17.213 C 10.102 17.395 9.811 17.385 9.63 17.213 C 9.439 17.022 9.466 16.731 9.63 16.567 L 12.711 13.486 L 11.429 12.205 L 8.348 15.286 C 8.184 15.449 7.893 15.477 7.703 15.286 C 7.53 15.113 7.53 14.822 7.703 14.641 L 10.784 11.559 L 9.493 10.278 L 6.412 13.359 C 6.248 13.523 5.957 13.55 5.767 13.359 C 5.594 13.177 5.594 12.895 5.767 12.714 L 9.748 8.732 L 11.447 10.423 C 12.311 11.287 13.801 11.277 14.665 10.423 C 15.556 9.532 15.556 8.096 14.665 7.205 L 12.974 5.515 L 13.229 5.26 C 13.938 4.551 15.092 4.551 15.801 5.26 L 19.655 9.114 C 20.364 9.823 20.364 10.978 19.655 11.687 L 12.202 19.14 Z M 20.937 12.977 C 22.354 11.559 22.354 9.26 20.937 7.833 L 17.083 3.979 C 15.665 2.561 13.365 2.561 11.938 3.979 L 11.684 4.233 L 11.429 3.979 C 10.011 2.561 7.712 2.561 6.285 3.979 L 3.067 7.196 C 1.776 8.487 1.658 10.496 2.703 11.914 L 4.021 10.596 C 3.667 9.914 3.785 9.051 4.358 8.478 L 7.575 5.26 C 8.284 4.551 9.439 4.551 10.148 5.26 L 13.383 8.496 C 13.547 8.66 13.574 8.951 13.383 9.141 C 13.192 9.332 12.902 9.305 12.738 9.141 L 9.748 6.16 L 4.476 11.423 C 3.585 12.305 3.585 13.75 4.476 14.641 C 4.83 14.995 5.285 15.213 5.767 15.277 C 5.83 15.749 6.039 16.204 6.403 16.567 C 6.766 16.931 7.221 17.14 7.693 17.204 C 7.757 17.676 7.966 18.131 8.33 18.494 C 8.693 18.858 9.148 19.067 9.62 19.131 C 9.684 19.621 9.902 20.067 10.257 20.421 C 10.684 20.848 11.256 21.085 11.865 21.085 C 12.474 21.085 13.047 20.848 13.474 20.421 L 20.937 12.977 Z" fill="currentColor"/>
</svg>