<?xml version="1.0" encoding="utf-8"?>
<svg width="24px" height="24px" viewBox="0 0 24 24" fill="none" xmlns="http://www.w3.org/2000/svg">
  <path d="M 21.292 16.664 C 20.895 16.677 20.57 16.352 20.584 15.955 L 20.584 10.005 L 12.272 14.491 C 12.169 14.552 12.057 14.596 11.94 14.621 C 11.823 14.645 11.705 14.657 11.585 14.657 C 11.46 14.657 11.345 14.645 11.244 14.621 C 11.132 14.593 11.025 14.55 10.925 14.491 L 2.354 9.792 C 2.237 9.738 2.141 9.647 2.082 9.533 C 2.027 9.423 1.999 9.301 2 9.178 C 2 9.052 2.028 8.934 2.082 8.824 C 2.141 8.71 2.237 8.619 2.354 8.564 L 10.902 3.889 C 11.012 3.826 11.122 3.779 11.232 3.747 C 11.342 3.715 11.46 3.7 11.586 3.7 C 11.712 3.7 11.83 3.716 11.94 3.748 C 12.052 3.779 12.162 3.826 12.272 3.889 L 21.622 8.965 C 21.748 9.045 21.842 9.139 21.906 9.249 C 21.968 9.357 22 9.479 22 9.603 L 22 15.955 C 22.006 16.145 21.933 16.329 21.8 16.462 C 21.665 16.597 21.481 16.669 21.292 16.663 L 21.292 16.664 Z M 11.585 20.3 C 11.46 20.3 11.341 20.288 11.232 20.264 C 11.116 20.239 11.005 20.195 10.902 20.134 L 5.472 17.16 C 5.252 17.036 5.069 16.857 4.94 16.64 C 4.806 16.42 4.737 16.167 4.74 15.909 L 4.74 11.8 L 10.617 15.011 L 11.089 15.247 C 11.248 15.326 11.413 15.365 11.585 15.365 C 11.76 15.365 11.929 15.325 12.093 15.247 C 12.26 15.169 12.421 15.09 12.577 15.011 L 18.433 11.8 L 18.433 15.909 C 18.433 16.176 18.368 16.421 18.233 16.641 C 18.1 16.861 17.921 17.034 17.701 17.161 L 12.272 20.135 C 12.169 20.196 12.057 20.24 11.94 20.265 C 11.83 20.289 11.712 20.3 11.586 20.3 L 11.585 20.3 Z" fill="currentColor"/>
</svg>