<svg width="40" height="40" viewBox="0 0 40 40" fill="none" xmlns="http://www.w3.org/2000/svg">
<circle cx="20" cy="20" r="20" fill="#585858"/>
<path d="M31.615 25.83a.858.858 0 01-.885-.886v-7.438l-10.39 5.608a1.423 1.423 0 01-.415.162 2.09 2.09 0 01-.443.045c-.157 0-.3-.015-.427-.045a1.474 1.474 0 01-.398-.162L7.942 17.24a.731.731 0 01-.34-.324.994.994 0 01-.102-.443c0-.158.035-.305.102-.443a.733.733 0 01.34-.325l10.686-5.844c.137-.078.275-.137.412-.177.138-.04.285-.059.443-.059.157 0 .305.02.442.06.14.039.278.098.415.176l11.688 6.346c.157.099.275.217.355.354a.89.89 0 01.117.443v7.94a.858.858 0 01-.25.634.863.863 0 01-.635.251zm-12.133 4.545c-.157 0-.305-.015-.442-.044a1.437 1.437 0 01-.412-.163L11.84 26.45a1.814 1.814 0 01-.665-.65 1.726 1.726 0 01-.25-.914v-5.136l7.347 4.014.59.295c.198.099.405.148.62.148.218 0 .43-.05.635-.148.208-.098.41-.196.605-.295l7.32-4.014v5.136c0 .334-.082.64-.25.915-.167.275-.39.492-.665.65l-6.787 3.718a1.423 1.423 0 01-.415.163c-.137.03-.285.044-.442.044z" fill="#fff"/>
</svg>
