<?xml version="1.0" encoding="utf-8"?>
<svg width="24px" height="24px" viewBox="0 0 24 24" fill="none" xmlns="http://www.w3.org/2000/svg">
  <path id="svg_1" fill-rule="nonzero" d="M 15.333 19.223 C 12.544 19.223 10.135 17.645 8.934 15.333 L 15.333 15.333 L 15.333 13.11 L 8.201 13.11 C 8.146 12.745 8.11 12.378 8.11 12 C 8.11 11.622 8.146 11.255 8.201 10.89 L 15.333 10.89 L 15.333 8.667 L 8.934 8.667 C 10.135 6.355 12.557 4.777 15.333 4.777 C 17.124 4.777 18.768 5.434 20.034 6.521 L 22 4.555 C 20.232 2.967 17.889 2 15.333 2 C 10.978 2 7.29 4.79 5.91 8.667 L 2 8.667 L 2 10.89 L 5.398 10.89 C 5.356 11.255 5.333 11.622 5.333 12 C 5.333 12.378 5.356 12.745 5.398 13.11 L 2 13.11 L 2 15.333 L 5.91 15.333 C 7.29 19.21 10.978 22 15.333 22 C 17.898 22 20.232 21.033 22 19.445 L 20.021 17.479 C 18.768 18.566 17.133 19.223 15.333 19.223 Z M 15.333 19.223" fill="currentColor"/>
</svg>