<svg width="40" height="40" viewBox="0 0 40 40" fill="none" xmlns="http://www.w3.org/2000/svg">
<circle cx="20" cy="20" r="20" fill="#585858"/>
<path d="M9.574 31L8.16984 29.6535L22.2115 16.1886C21.7212 15.1627 21.6097 14.0994 21.8772 12.9987C22.1446 11.898 22.7799 10.8668 23.7828 9.90498C24.7858 8.96458 26.0005 8.36079 27.427 8.09363C28.8534 7.82647 30.0236 8.13103 30.9374 9.00732C31.8735 9.90498 32.1911 11.0271 31.8902 12.3735C31.5893 13.72 30.9151 14.9062 29.8675 15.9321C28.9537 16.8298 27.934 17.4175 26.8085 17.6954C25.6829 17.9732 24.6298 17.9091 23.6491 17.503L21.4091 19.651L31.8401 29.6535L30.4359 31L20.005 20.9975L9.574 31ZM13.7531 19.7472L9.7746 15.9321C8.63789 14.8421 8.04725 13.5491 8.00267 12.053C7.9581 10.5569 8.47073 9.23174 9.54057 8.0776L17.7315 15.9321L13.7531 19.7472Z" fill="white"/>
</svg>
