<?xml version="1.0" encoding="utf-8"?>
<svg width="24px" height="24px" viewBox="0 0 24 24" fill="none" xmlns="http://www.w3.org/2000/svg">
  <path d="M 3.312 21.584 L 2.142 20.462 L 13.843 9.241 C 13.434 8.386 13.341 7.5 13.564 6.583 C 13.787 5.665 14.317 4.806 15.152 4.004 C 15.988 3.221 17 2.718 18.189 2.495 C 19.378 2.272 20.353 2.526 21.115 3.256 C 21.895 4.004 22.159 4.94 21.909 6.062 C 21.658 7.184 21.096 8.172 20.223 9.027 C 19.461 9.775 18.612 10.265 17.674 10.497 C 16.736 10.728 15.858 10.675 15.041 10.336 L 13.174 12.126 L 21.867 20.462 L 20.697 21.584 L 12.004 13.248 L 3.312 21.584 Z M 6.794 12.206 L 3.479 9.027 C 2.532 8.119 2.039 7.041 2.002 5.795 C 1.965 4.548 2.392 3.443 3.284 2.482 L 10.11 9.027 L 6.794 12.206 Z" fill="currentColor"/>
</svg>