<?xml version="1.0" encoding="utf-8"?>
<svg width="24px" height="24px" viewBox="0 0 24 24" fill="none" xmlns="http://www.w3.org/2000/svg">
  <path d="M 11 15.025 L 13 15.025 L 13 12.525 L 15.5 12.525 L 15.5 10.525 L 13 10.525 L 13 8.025 L 11 8.025 L 11 10.525 L 8.5 10.525 L 8.5 12.525 L 11 12.525 L 11 15.025 Z M 12 22 C 9.667 21.417 7.75 20.062 6.25 17.938 C 4.75 15.812 4 13.483 4 10.95 L 4 5 L 12 2 L 20 5 L 20 10.95 C 20 13.483 19.25 15.812 17.75 17.938 C 16.25 20.062 14.333 21.417 12 22 Z" fill="currentColor"/>
</svg>