<svg width="40" height="40" viewBox="0 0 40 40" fill="none" xmlns="http://www.w3.org/2000/svg">
<circle cx="20" cy="20" r="20" fill="#585858"/>
<path d="M8 19.0977C8.0401 18.1554 8.27068 17.1028 8.69173 15.9398C9.11278 14.7769 9.63409 13.7644 10.2556 12.9023C11.5188 13.985 12.411 15.0476 12.9323 16.0902C13.4536 17.1328 13.7845 18.1353 13.9248 19.0977H8ZM26.0752 19.0977C26.2155 18.1353 26.5464 17.1328 27.0677 16.0902C27.589 15.0476 28.4812 13.985 29.7444 12.9023C30.3659 13.7644 30.8872 14.7769 31.3083 15.9398C31.7293 17.1028 31.9599 18.1554 32 19.0977H26.0752ZM10.2556 27.0677C9.63409 26.2055 9.11278 25.198 8.69173 24.0451C8.27068 22.8922 8.0401 21.8446 8 20.9023H13.9248C13.7845 21.8647 13.4536 22.8622 12.9323 23.8947C12.411 24.9273 11.5188 25.985 10.2556 27.0677ZM29.7444 27.0677C28.4812 25.985 27.589 24.9273 27.0677 23.8947C26.5464 22.8622 26.2155 21.8647 26.0752 20.9023H32C31.9599 21.8446 31.7293 22.8922 31.3083 24.0451C30.8872 25.198 30.3659 26.2055 29.7444 27.0677ZM15.7594 19.0977C15.599 17.8747 15.2281 16.6566 14.6466 15.4436C14.0652 14.2306 13.0025 12.9223 11.4586 11.5188C12.3208 10.6767 13.3835 9.91479 14.6466 9.23308C15.9098 8.55138 17.3935 8.14035 19.0977 8V19.0977H15.7594ZM20.9023 19.0977V8C22.6065 8.14035 24.0952 8.55138 25.3684 9.23308C26.6416 9.91479 27.7093 10.6767 28.5714 11.5188C27.0276 12.9223 25.9599 14.2306 25.3684 15.4436C24.7769 16.6566 24.401 17.8747 24.2406 19.0977H20.9023ZM19.0977 32C17.2932 31.8596 15.7845 31.4436 14.5714 30.7519C13.3584 30.0602 12.3208 29.2932 11.4586 28.4511C13.0025 27.0476 14.0652 25.7444 14.6466 24.5414C15.2281 23.3383 15.599 22.1253 15.7594 20.9023H19.0977V32ZM20.9023 32V20.9023H24.2406C24.401 22.1253 24.7769 23.3383 25.3684 24.5414C25.9599 25.7444 27.0276 27.0476 28.5714 28.4511C27.7093 29.2932 26.6667 30.0602 25.4436 30.7519C24.2206 31.4436 22.7068 31.8596 20.9023 32Z" fill="white"/>
</svg>
