<?xml version="1.0" encoding="utf-8"?>
<svg width="24px" height="24px" viewBox="0 0 24 24" fill="none" xmlns="http://www.w3.org/2000/svg">
  <path d="M 2 11.248 C 2.033 10.463 2.226 9.586 2.576 8.616 C 2.927 7.647 3.362 6.804 3.88 6.085 C 4.932 6.987 5.676 7.873 6.11 8.742 C 6.545 9.611 6.82 10.446 6.937 11.248 L 2 11.248 Z M 17.063 11.248 C 17.18 10.446 17.455 9.611 17.89 8.742 C 18.324 7.873 19.068 6.987 20.12 6.085 C 20.638 6.804 21.073 7.647 21.424 8.616 C 21.774 9.586 21.967 10.463 22 11.248 L 17.063 11.248 Z M 3.88 17.89 C 3.362 17.171 2.927 16.332 2.576 15.371 C 2.226 14.41 2.033 13.537 2 12.752 L 6.937 12.752 C 6.82 13.554 6.545 14.385 6.11 15.246 C 5.676 16.106 4.932 16.987 3.88 17.89 Z M 20.12 17.89 C 19.068 16.987 18.324 16.106 17.89 15.246 C 17.455 14.385 17.18 13.554 17.063 12.752 L 22 12.752 C 21.967 13.537 21.774 14.41 21.424 15.371 C 21.073 16.332 20.638 17.171 20.12 17.89 Z M 8.466 11.248 C 8.332 10.229 8.023 9.214 7.539 8.203 C 7.054 7.192 6.169 6.102 4.882 4.932 C 5.601 4.231 6.486 3.596 7.539 3.028 C 8.591 2.459 9.828 2.117 11.248 2 L 11.248 11.248 L 8.466 11.248 Z M 12.752 11.248 L 12.752 2 C 14.172 2.117 15.413 2.459 16.474 3.028 C 17.535 3.596 18.424 4.231 19.143 4.932 C 17.856 6.102 16.967 7.192 16.474 8.203 C 15.981 9.214 15.667 10.229 15.534 11.248 L 12.752 11.248 Z M 11.248 22 C 9.744 21.883 8.487 21.536 7.476 20.96 C 6.465 20.383 5.601 19.744 4.882 19.043 C 6.169 17.873 7.054 16.787 7.539 15.784 C 8.023 14.782 8.332 13.771 8.466 12.752 L 11.248 12.752 L 11.248 22 Z M 12.752 22 L 12.752 12.752 L 15.534 12.752 C 15.667 13.771 15.981 14.782 16.474 15.784 C 16.967 16.787 17.856 17.873 19.143 19.043 C 18.424 19.744 17.556 20.383 16.536 20.96 C 15.517 21.536 14.256 21.883 12.752 22 Z" fill="currentColor"/>
</svg>