<?xml version="1.0" encoding="utf-8"?>
<svg width="24px" height="24px" viewBox="0 0 24 24" fill="none" xmlns="http://www.w3.org/2000/svg">
  <path id="svg_1" fill-rule="nonzero" d="M 20.001 6.001 L 16.001 6.001 L 16.001 3.999 C 16.001 2.898 15.099 2 13.999 2 L 10.001 2 C 8.901 2 7.999 2.898 7.999 3.999 L 7.999 6.001 L 3.999 6.001 C 2.898 6.001 2 6.899 2 7.999 L 2 20.001 C 2 21.102 2.898 22 3.999 22 L 20.001 22 C 21.102 22 22 21.102 22 20.001 L 22 7.999 C 22 6.899 21.102 6.001 20.001 6.001 Z M 10.001 3.999 L 13.999 3.999 L 13.999 6.001 L 10.001 6.001 L 10.001 3.999 Z M 20.001 20.001 L 3.999 20.001 L 3.999 7.999 L 20.001 7.999 L 20.001 20.001 Z M 20.001 20.001" fill="currentColor"/>
  <path id="svg_2" fill-rule="nonzero" d="M 12.999 10.001 L 11.001 10.001 L 11.001 12.999 L 7.999 12.999 L 7.999 15.001 L 11.001 15.001 L 11.001 17.999 L 12.999 17.999 L 12.999 15.001 L 16.001 15.001 L 16.001 12.999 L 12.999 12.999 L 12.999 10.001 Z M 12.999 10.001" fill="currentColor"/>
</svg>