<svg width="40" height="40" viewBox="0 0 40 40" fill="none" xmlns="http://www.w3.org/2000/svg">
<circle cx="20" cy="20" r="20" fill="#585858"/>
<path id="svg_1" fill="rgb(100%,100%,100%)" fill-rule="nonzero" d="m29.60156,12.80078l-4.80078,0l0,-2.40234c0,-1.32031 -1.08203,-2.39844 -2.40234,-2.39844l-4.79688,0c-1.32031,0 -2.40234,1.07813 -2.40234,2.39844l0,2.40234l-4.80078,0c-1.32031,0 -2.39844,1.07813 -2.39844,2.39844l0,14.40234c0,1.32032 1.07813,2.39844 2.39844,2.39844l19.20312,0c1.32032,0 2.39844,-1.07812 2.39844,-2.39844l0,-14.40234c0,-1.32031 -1.07812,-2.39844 -2.39844,-2.39844zm-12,-2.40234l4.79688,0l0,2.40234l-4.79688,0l0,-2.40234zm12,19.20312l-19.20312,0l0,-14.40234l19.20312,0l0,14.40234zm0,0"/>
<path id="svg_2" fill="rgb(100%,100%,100%)" fill-rule="nonzero" d="m21.19922,17.60156l-2.39844,0l0,3.59766l-3.60156,0l0,2.40234l3.60156,0l0,3.59766l2.39844,0l0,-3.59766l3.60156,0l0,-2.40234l-3.60156,0l0,-3.59766zm0,0"/>
</svg>
