<?xml version="1.0" encoding="utf-8"?>
<svg width="24px" height="24px" viewBox="0 0 24 24" fill="none" xmlns="http://www.w3.org/2000/svg">
  <path d="M 3.579 19.667 C 3.157 19.667 2.789 19.511 2.473 19.198 C 2.157 18.886 2 18.521 2 18.104 L 2 4.562 C 2 4.146 2.157 3.782 2.473 3.469 C 2.789 3.157 3.157 3 3.579 3 L 10.027 3 L 11.605 4.562 L 20.421 4.562 C 20.842 4.562 21.211 4.719 21.527 5.032 C 21.842 5.344 22 5.708 22 6.125 L 22 18.104 C 22 18.521 21.842 18.886 21.527 19.198 C 21.211 19.511 20.842 19.667 20.421 19.667 L 3.579 19.667 Z M 6.579 15.213 L 17.421 15.213 L 13.947 10.63 L 11.052 14.432 L 8.973 12.192 L 6.579 15.213 Z" fill="currentColor"/>
</svg>