<svg width="40" height="40" viewBox="0 0 40 40" fill="none" xmlns="http://www.w3.org/2000/svg">
<circle cx="20" cy="20" r="20" fill="#585858"/>
<path d="M9.89474 29C9.38947 29 8.94737 28.8125 8.56842 28.4375C8.18947 28.0625 8 27.625 8 27.125V10.875C8 10.375 8.18947 9.9375 8.56842 9.5625C8.94737 9.1875 9.38947 9 9.89474 9H17.6316L19.5263 10.875H30.1053C30.6105 10.875 31.0526 11.0625 31.4316 11.4375C31.8105 11.8125 32 12.25 32 12.75V27.125C32 27.625 31.8105 28.0625 31.4316 28.4375C31.0526 28.8125 30.6105 29 30.1053 29H9.89474ZM13.4947 23.6562H26.5053L22.3368 18.1562L18.8632 22.7188L16.3684 20.0312L13.4947 23.6562Z" fill="white"/>
</svg>
