<svg width="40" height="40" viewBox="0 0 40 40" fill="none" xmlns="http://www.w3.org/2000/svg">
<circle cx="20" cy="20" r="20" fill="#585858"/>
<path d="M7 28V23.25C7 22.676 7.20189 22.1862 7.60568 21.7805C8.00947 21.3747 8.49697 21.1719 9.06818 21.1719H13.2341C13.5689 21.1719 13.889 21.256 14.1943 21.4242C14.4996 21.5924 14.7606 21.825 14.9773 22.1219C15.5485 22.9531 16.2773 23.5964 17.1636 24.0516C18.05 24.5068 18.9955 24.7344 20 24.7344C21.0045 24.7344 21.95 24.5068 22.8364 24.0516C23.7227 23.5964 24.4614 22.9531 25.0523 22.1219C25.2689 21.825 25.525 21.5924 25.8205 21.4242C26.1159 21.256 26.4311 21.1719 26.7659 21.1719H30.9318C31.503 21.1719 31.9905 21.3747 32.3943 21.7805C32.7981 22.1862 33 22.676 33 23.25V28H25.3182V24.4672C24.6091 25.1203 23.7966 25.625 22.8807 25.9812C21.9648 26.3375 21.0045 26.5156 20 26.5156C18.9955 26.5156 18.0402 26.3375 17.1341 25.9812C16.228 25.625 15.4106 25.1203 14.6818 24.4672V28H7ZM20 22.9531C19.3106 22.9531 18.6458 22.7898 18.0057 22.4633C17.3655 22.1367 16.8485 21.6865 16.4545 21.1125C16.1394 20.6573 15.7602 20.2911 15.317 20.0141C14.8739 19.737 14.3962 19.549 13.8841 19.45C14.4553 18.8562 15.3515 18.401 16.5727 18.0844C17.7939 17.7677 18.9364 17.6094 20 17.6094C21.0636 17.6094 22.211 17.7677 23.442 18.0844C24.6731 18.401 25.5742 18.8562 26.1455 19.45C25.6333 19.549 25.1557 19.737 24.7125 20.0141C24.2693 20.2911 23.8902 20.6573 23.575 21.1125C23.1811 21.6865 22.664 22.1367 22.0239 22.4633C21.3837 22.7898 20.7091 22.9531 20 22.9531ZM10.5455 19.0938C9.65909 19.0938 8.89583 18.7721 8.25568 18.1289C7.61553 17.4857 7.29545 16.7188 7.29545 15.8281C7.29545 14.9177 7.61553 14.1458 8.25568 13.5125C8.89583 12.8792 9.65909 12.5625 10.5455 12.5625C11.4515 12.5625 12.2197 12.8792 12.85 13.5125C13.4803 14.1458 13.7955 14.9177 13.7955 15.8281C13.7955 16.7188 13.4803 17.4857 12.85 18.1289C12.2197 18.7721 11.4515 19.0938 10.5455 19.0938ZM29.4545 19.0938C28.5682 19.0938 27.8049 18.7721 27.1648 18.1289C26.5246 17.4857 26.2045 16.7188 26.2045 15.8281C26.2045 14.9177 26.5246 14.1458 27.1648 13.5125C27.8049 12.8792 28.5682 12.5625 29.4545 12.5625C30.3606 12.5625 31.1288 12.8792 31.7591 13.5125C32.3894 14.1458 32.7045 14.9177 32.7045 15.8281C32.7045 16.7188 32.3894 17.4857 31.7591 18.1289C31.1288 18.7721 30.3606 19.0938 29.4545 19.0938ZM20 15.5312C19.1136 15.5312 18.3504 15.2096 17.7102 14.5664C17.0701 13.9232 16.75 13.1562 16.75 12.2656C16.75 11.3552 17.0701 10.5833 17.7102 9.95C18.3504 9.31667 19.1136 9 20 9C20.9061 9 21.6742 9.31667 22.3045 9.95C22.9348 10.5833 23.25 11.3552 23.25 12.2656C23.25 13.1562 22.9348 13.9232 22.3045 14.5664C21.6742 15.2096 20.9061 15.5312 20 15.5312Z" fill="white"/>
</svg>
