<?xml version="1.0" encoding="utf-8"?>
<svg width="24px" height="24px" viewBox="0 0 24 24" fill="none" xmlns="http://www.w3.org/2000/svg">
  <path d="M 2 19.308 L 2 15.655 C 2 15.213 2.155 14.836 2.466 14.525 C 2.776 14.212 3.152 14.056 3.591 14.056 L 6.795 14.056 C 7.053 14.056 7.299 14.121 7.534 14.25 C 7.769 14.379 7.97 14.558 8.136 14.787 C 8.576 15.426 9.136 15.921 9.818 16.271 C 10.5 16.621 11.228 16.796 12 16.796 C 12.773 16.796 13.5 16.621 14.182 16.271 C 14.864 15.921 15.432 15.426 15.886 14.787 C 16.053 14.558 16.25 14.379 16.478 14.25 C 16.705 14.121 16.947 14.056 17.205 14.056 L 20.409 14.056 C 20.848 14.056 21.224 14.212 21.534 14.525 C 21.845 14.836 22 15.213 22 15.655 L 22 19.308 L 16.091 19.308 L 16.091 16.591 C 15.545 17.093 14.921 17.481 14.216 17.755 C 13.512 18.03 12.773 18.167 12 18.167 C 11.228 18.167 10.492 18.03 9.795 17.755 C 9.098 17.481 8.47 17.093 7.909 16.591 L 7.909 19.308 L 2 19.308 Z M 12 15.426 C 11.47 15.426 10.958 15.301 10.466 15.049 C 9.974 14.798 9.576 14.452 9.273 14.011 C 9.03 13.66 8.738 13.378 8.398 13.165 C 8.057 12.952 7.689 12.808 7.295 12.731 C 7.735 12.275 8.425 11.925 9.364 11.681 C 10.303 11.438 11.182 11.315 12 11.315 C 12.818 11.315 13.701 11.438 14.648 11.681 C 15.595 11.925 16.288 12.275 16.728 12.731 C 16.333 12.808 15.966 12.952 15.625 13.165 C 15.284 13.378 14.992 13.66 14.75 14.011 C 14.447 14.452 14.049 14.798 13.557 15.049 C 13.065 15.301 12.545 15.426 12 15.426 Z M 4.728 12.458 C 4.045 12.458 3.458 12.21 2.966 11.715 C 2.474 11.221 2.227 10.631 2.227 9.945 C 2.227 9.245 2.474 8.651 2.966 8.165 C 3.458 7.677 4.045 7.434 4.728 7.434 C 5.425 7.434 6.015 7.677 6.5 8.165 C 6.985 8.651 7.228 9.245 7.228 9.945 C 7.228 10.631 6.985 11.221 6.5 11.715 C 6.015 12.21 5.425 12.458 4.728 12.458 Z M 19.273 12.458 C 18.591 12.458 18.004 12.21 17.512 11.715 C 17.019 11.221 16.773 10.631 16.773 9.945 C 16.773 9.245 17.019 8.651 17.512 8.165 C 18.004 7.677 18.591 7.434 19.273 7.434 C 19.97 7.434 20.561 7.677 21.045 8.165 C 21.53 8.651 21.773 9.245 21.773 9.945 C 21.773 10.631 21.53 11.221 21.045 11.715 C 20.561 12.21 19.97 12.458 19.273 12.458 Z M 12 9.717 C 11.318 9.717 10.731 9.47 10.238 8.975 C 9.746 8.48 9.5 7.89 9.5 7.205 C 9.5 6.505 9.746 5.911 10.238 5.424 C 10.731 4.937 11.318 4.693 12 4.693 C 12.697 4.693 13.288 4.937 13.773 5.424 C 14.258 5.911 14.5 6.505 14.5 7.205 C 14.5 7.89 14.258 8.48 13.773 8.975 C 13.288 9.47 12.697 9.717 12 9.717 Z" fill="currentColor"/>
</svg>