<svg width="40" height="40" viewBox="0 0 40 40" fill="none" xmlns="http://www.w3.org/2000/svg" version="1.1">
 <circle cx="20" cy="20" r="20" fill="#585858"/>
 <g>
  <title>Layer 1</title>
  <g stroke="null" id="surface1">
   <path stroke="null" d="m28.01482,10.95197c-2.17224,-2.15304 -4.81897,-3.23093 -7.93471,-3.23093c-2.6001,0 -4.89028,0.74876 -6.87327,2.27098c-2.00767,1.52221 -3.30773,3.46406 -3.89742,5.89687l-1.6045,6.31925c-0.11794,0.39769 -0.02468,0.74876 0.21119,1.05321c0.26056,0.32913 0.56775,0.46901 0.99287,0.46901l2.47943,0l0,3.69719c0,0.6802 0.23587,1.2644 0.73231,1.75535c0.49643,0.49369 1.06143,0.72683 1.74712,0.72683l2.47943,0l0,2.45748l11.17113,0l0,-5.29072c1.18212,-1.05321 2.10093,-2.31486 2.73999,-3.74382c0.66099,-1.42896 0.96818,-2.92649 0.96818,-4.51727c0,-3.08831 -1.08612,-5.68842 -3.25836,-7.84146l0.04662,-0.02194zm-9.7312,3.93032c0.14262,-0.49094 0.33187,-0.95721 0.54306,-1.42622c0.21393,-0.469 0.4498,-0.91333 0.73231,-1.33296c0.28524,-0.42239 0.56774,-0.82008 0.87493,-1.17115c0.30719,0.35107 0.61437,0.74876 0.87219,1.17115c0.28524,0.41963 0.52111,0.86396 0.73231,1.33296c0.21393,0.46901 0.40317,0.93528 0.54305,1.42622c0.14263,0.49369 0.26056,0.93801 0.33187,1.40428c-0.56774,0.30445 -1.06144,0.63357 -1.48656,0.98464c-0.42512,0.37301 -0.75699,0.72408 -1.01755,1.09983c-0.23587,-0.37575 -0.58968,-0.74876 -1.01481,-1.12452c-0.42512,-0.37301 -0.92156,-0.67745 -1.4893,-0.9819c0.07131,-0.44432 0.16731,-0.91333 0.33187,-1.40428l0.04663,0.02194zm1.03949,6.55512c-0.09325,0.63083 -0.14263,1.33297 -0.16457,2.08173c-1.60724,-0.46627 -2.88261,-1.31103 -3.80142,-2.52606c-0.92156,-1.21777 -1.37136,-2.66867 -1.37136,-4.3774c1.55787,0.04663 2.76467,0.35107 3.66154,0.88865c0.89687,0.53757 1.58256,1.23971 2.10093,2.10642c-0.18925,0.56226 -0.32913,1.17115 -0.42512,1.80197l0,0.02468zm7.13383,-2.10642c-0.28524,0.81733 -0.71036,1.54416 -1.27536,2.15304c-0.56775,0.60889 -1.22874,1.12177 -2.03236,1.49753c-0.80362,0.37576 -1.70049,0.63083 -2.7153,0.77345c0,-1.19583 0.11794,-2.22435 0.32913,-3.06636c0.23861,-0.84202 0.59243,-1.56884 1.1108,-2.1311c0.52112,-0.56226 1.18211,-1.00658 2.00768,-1.31103c0.82556,-0.30444 1.81843,-0.51289 3.00054,-0.63083c0,0.9819 -0.14262,1.89523 -0.42512,2.7153zm0,0" fill="white" id="svg_1"/>
  </g>
 </g>

</svg>