<svg width="40" height="40" viewBox="0 0 40 40" fill="none" xmlns="http://www.w3.org/2000/svg">
<circle cx="20" cy="20" r="20" fill="#585858"/>
<path d="M12.7571 31C12.4886 31 12.2511 30.9211 12.0446 30.7632C11.838 30.6053 11.7348 30.4 11.7348 30.1474V27.4947C11.1359 27.1579 10.697 26.6737 10.4182 26.0421C10.1394 25.4105 10 24.7368 10 24.0211V11.4842C10 9.92632 10.7899 8.78947 12.3698 8.07368C13.9497 7.35789 16.4745 7 19.944 7C23.3723 7 25.8764 7.35789 27.4562 8.07368C29.0361 8.78947 29.8261 9.92632 29.8261 11.4842V24.0211C29.8261 24.7368 29.6867 25.4105 29.4079 26.0421C29.1291 26.6737 28.6902 27.1579 28.0913 27.4947V30.1474C28.0913 30.4 27.988 30.6053 27.7815 30.7632C27.575 30.9211 27.3375 31 27.069 31H26.4804C26.1913 31 25.9435 30.9211 25.737 30.7632C25.5304 30.6053 25.4272 30.4 25.4272 30.1474V28.4105H14.3989V30.1474C14.3989 30.4 14.2957 30.6053 14.0891 30.7632C13.8826 30.9211 13.6348 31 13.3457 31H12.7571ZM11.8587 18.0211H27.9674V12.5579H11.8587V18.0211ZM15.1424 24.9368C15.6174 24.9368 16.0201 24.7684 16.3505 24.4316C16.681 24.0947 16.8462 23.6842 16.8462 23.2C16.8462 22.7158 16.681 22.3053 16.3505 21.9684C16.0201 21.6316 15.6174 21.4632 15.1424 21.4632C14.6674 21.4632 14.2647 21.6316 13.9342 21.9684C13.6038 22.3053 13.4386 22.7158 13.4386 23.2C13.4386 23.6842 13.6038 24.0947 13.9342 24.4316C14.2647 24.7684 14.6674 24.9368 15.1424 24.9368ZM24.6837 24.9368C25.1587 24.9368 25.5614 24.7684 25.8918 24.4316C26.2223 24.0947 26.3875 23.6842 26.3875 23.2C26.3875 22.7158 26.2223 22.3053 25.8918 21.9684C25.5614 21.6316 25.1587 21.4632 24.6837 21.4632C24.2087 21.4632 23.806 21.6316 23.4755 21.9684C23.1451 22.3053 22.9799 22.7158 22.9799 23.2C22.9799 23.6842 23.1451 24.0947 23.4755 24.4316C23.806 24.7684 24.2087 24.9368 24.6837 24.9368Z" fill="white"/>
</svg>
