<svg width="40" height="40" viewBox="0 0 40 40" fill="none" xmlns="http://www.w3.org/2000/svg">
<circle cx="20" cy="20" r="20" fill="#585858"/>
<path id="svg_1" fill="rgb(100%,100%,100%)" fill-rule="nonzero" d="m25.14453,20.85547c3.53125,-3.21093 6.85547,-6.21484 6.85547,-8.80078c0,-2.11328 -1.65625,-3.76953 -3.76953,-3.76953c-1.19141,0 -2.34375,0.55859 -3.08594,1.42969c-0.75781,-0.8711 -1.89844,-1.42969 -3.08594,-1.42969c-2.11718,0 -3.77343,1.65625 -3.77343,3.76953c0,2.58594 3.32812,5.58985 6.85937,8.80078zm-3.08594,-10.28515c0.5,0 1.01563,0.24218 1.34766,0.6289l1.73828,2.04688l1.73438,-2.04688c0.33203,-0.38672 0.84765,-0.6289 1.35156,-0.6289c0.84375,0 1.48437,0.64062 1.48437,1.48437c0,1.28125 -2.33203,3.625 -4.57031,5.70313c-2.24219,-2.07813 -4.57422,-4.4336 -4.57422,-5.70313c0,-0.84375 0.64063,-1.48437 1.48828,-1.48437zm0,0"/>
<path id="svg_2" fill="rgb(100%,100%,100%)" fill-rule="nonzero" d="m28.57031,24.28516l-2.28515,0c0,-1.37109 -0.85547,-2.60547 -2.13672,-3.08594l-7.03906,-2.6289l-9.10938,0l0,12.57031l6.85547,0l0,-1.64453l8,2.21875l9.14453,-2.85938l0,-1.14062c0,-1.89844 -1.53125,-3.42969 -3.42969,-3.42969zm-18.28515,4.57031l0,-8l2.28515,0l0,8l-2.28515,0zm12.53906,0.46875l-7.96875,-2.20312l0,-6.26563l1.83984,0l6.65235,2.48047c0.39062,0.14844 0.65234,0.52735 0.65234,0.94922c0,0 -2.27344,-0.05859 -2.62891,-0.17187l-2.71875,-0.90235l-0.72265,2.17188l2.72265,0.90234c0.58204,0.19531 1.1875,0.29688 1.80469,0.29688l6.11328,0c0.44532,0 0.84766,0.26171 1.03125,0.64062l-6.77734,2.10156zm0,0"/>
</svg>
