<svg width="40" height="40" viewBox="0 0 40 40" fill="none" xmlns="http://www.w3.org/2000/svg">
<circle cx="20" cy="20" r="20" fill="#585858"/>
<path d="M20 15.8333C18.5074 15.8333 17.2315 15.3037 16.1722 14.2444C15.113 13.1852 14.5833 11.9093 14.5833 10.4167C14.5833 8.9 15.113 7.61806 16.1722 6.57083C17.2315 5.52361 18.5074 5 20 5C21.5167 5 22.7986 5.52361 23.8458 6.57083C24.8931 7.61806 25.4167 8.9 25.4167 10.4167C25.4167 11.9093 24.8931 13.1852 23.8458 14.2444C22.7986 15.3037 21.5167 15.8333 20 15.8333ZM12.4167 31C10.9241 31 9.64815 30.4704 8.58889 29.4111C7.52963 28.3519 7 27.0759 7 25.5833C7 24.0667 7.52963 22.7847 8.58889 21.7375C9.64815 20.6903 10.9241 20.1667 12.4167 20.1667C13.9333 20.1667 15.2153 20.6903 16.2625 21.7375C17.3097 22.7847 17.8333 24.0667 17.8333 25.5833C17.8333 27.0759 17.3097 28.3519 16.2625 29.4111C15.2153 30.4704 13.9333 31 12.4167 31ZM27.5833 31C26.0907 31 24.8148 30.4704 23.7556 29.4111C22.6963 28.3519 22.1667 27.0759 22.1667 25.5833C22.1667 24.0667 22.6963 22.7847 23.7556 21.7375C24.8148 20.6903 26.0907 20.1667 27.5833 20.1667C29.1 20.1667 30.3819 20.6903 31.4292 21.7375C32.4764 22.7847 33 24.0667 33 25.5833C33 27.0759 32.4764 28.3519 31.4292 29.4111C30.3819 30.4704 29.1 31 27.5833 31Z" fill="white"/>
</svg>
