<?xml version="1.0" encoding="utf-8"?>
<svg width="24px" height="24px" viewBox="0 0 24 24" fill="none" xmlns="http://www.w3.org/2000/svg">
  <path d="M 12 10.333 C 10.852 10.333 9.87 9.926 9.056 9.111 C 8.241 8.296 7.833 7.315 7.833 6.167 C 7.833 5 8.241 4.014 9.056 3.208 C 9.87 2.403 10.852 2 12 2 C 13.167 2 14.153 2.403 14.958 3.208 C 15.764 4.014 16.167 5 16.167 6.167 C 16.167 7.315 15.764 8.296 14.958 9.111 C 14.153 9.926 13.167 10.333 12 10.333 Z M 6.167 22 C 5.019 22 4.037 21.593 3.222 20.778 C 2.407 19.963 2 18.981 2 17.833 C 2 16.667 2.407 15.681 3.222 14.875 C 4.037 14.069 5.019 13.667 6.167 13.667 C 7.333 13.667 8.319 14.069 9.125 14.875 C 9.931 15.681 10.333 16.667 10.333 17.833 C 10.333 18.981 9.931 19.963 9.125 20.778 C 8.319 21.593 7.333 22 6.167 22 Z M 17.833 22 C 16.685 22 15.704 21.593 14.889 20.778 C 14.074 19.963 13.667 18.981 13.667 17.833 C 13.667 16.667 14.074 15.681 14.889 14.875 C 15.704 14.069 16.685 13.667 17.833 13.667 C 19 13.667 19.986 14.069 20.792 14.875 C 21.597 15.681 22 16.667 22 17.833 C 22 18.981 21.597 19.963 20.792 20.778 C 19.986 21.593 19 22 17.833 22 Z" fill="currentColor"/>
</svg>