<?xml version="1.0" encoding="utf-8"?>
<svg width="24px" height="24px" viewBox="0 0 24 24" fill="none" xmlns="http://www.w3.org/2000/svg">
  <path id="svg_1" fill-rule="nonzero" d="M 16.287 12.76 C 19.23 10.085 22 7.581 22 5.426 C 22 3.665 20.62 2.285 18.859 2.285 C 17.866 2.285 16.906 2.751 16.287 3.477 C 15.656 2.751 14.705 2.285 13.715 2.285 C 11.951 2.285 10.571 3.665 10.571 5.426 C 10.571 7.581 13.344 10.085 16.287 12.76 Z M 13.715 4.189 C 14.132 4.189 14.562 4.391 14.839 4.714 L 16.287 6.419 L 17.732 4.714 C 18.009 4.391 18.439 4.189 18.859 4.189 C 19.562 4.189 20.096 4.723 20.096 5.426 C 20.096 6.494 18.152 8.447 16.287 10.179 C 14.419 8.447 12.475 6.484 12.475 5.426 C 12.475 4.723 13.009 4.189 13.715 4.189 Z M 13.715 4.189" fill="currentColor"/>
  <path id="svg_2" fill-rule="nonzero" d="M 19.142 15.618 L 17.238 15.618 C 17.238 14.476 16.525 13.447 15.457 13.047 L 9.591 10.856 L 2 10.856 L 2 21.331 L 7.713 21.331 L 7.713 19.961 L 14.38 21.81 L 22 19.427 L 22 18.477 C 22 16.895 20.724 15.618 19.142 15.618 Z M 3.904 19.427 L 3.904 12.76 L 5.809 12.76 L 5.809 19.427 L 3.904 19.427 Z M 14.354 19.818 L 7.713 17.982 L 7.713 12.76 L 9.246 12.76 L 14.79 14.827 C 15.115 14.951 15.333 15.267 15.333 15.618 C 15.333 15.618 13.439 15.57 13.143 15.475 L 10.877 14.723 L 10.275 16.533 L 12.544 17.285 C 13.029 17.448 13.533 17.533 14.048 17.533 L 19.142 17.533 C 19.513 17.533 19.848 17.751 20.001 18.066 L 14.354 19.818 Z M 14.354 19.818" fill="currentColor"/>
</svg>