<?xml version="1.0" encoding="utf-8"?>
<svg width="24px" height="24px" viewBox="0 0 24 24" fill="none" xmlns="http://www.w3.org/2000/svg">
  <path d="M 2 20.385 L 2 18.846 L 22 18.846 L 22 20.385 L 2 20.385 Z M 2.75 17.308 L 2.75 16.872 C 2.75 14.222 3.487 12.085 4.962 10.462 C 6.437 8.838 8.283 7.786 10.5 7.308 L 10.5 6.538 C 10.5 6.094 10.642 5.726 10.925 5.436 C 11.208 5.145 11.567 5 12 5 C 12.433 5 12.792 5.145 13.075 5.436 C 13.358 5.726 13.5 6.094 13.5 6.538 L 13.5 7.308 C 15.717 7.786 17.562 8.838 19.038 10.462 C 20.512 12.085 21.25 14.222 21.25 16.872 L 21.25 17.308 L 2.75 17.308 Z" fill="currentColor"/>
</svg>