<svg width="40" height="40" viewBox="0 0 40 40" fill="none" xmlns="http://www.w3.org/2000/svg">
<circle cx="20" cy="20" r="20" fill="#585858"/>
<path d="M7 27V25H33V27H7ZM7.975 23V22.4333C7.975 18.9889 8.93375 16.2111 10.8512 14.1C12.7687 11.9889 15.1683 10.6222 18.05 10V9C18.05 8.42222 18.2342 7.94444 18.6025 7.56667C18.9708 7.18889 19.4367 7 20 7C20.5633 7 21.0292 7.18889 21.3975 7.56667C21.7658 7.94444 21.95 8.42222 21.95 9V10C24.8317 10.6222 27.2312 11.9889 29.1488 14.1C31.0662 16.2111 32.025 18.9889 32.025 22.4333V23H7.975Z" fill="white"/>
</svg>
