<svg width="24" height="24" viewBox="0 0 24 24" fill="none" xmlns="http://www.w3.org/2000/svg">
<path d="M1 19.4929V4H2.90928V14.3293H10.5464V6.06586H18.1814C19.2314 6.06586 20.1297 6.46971 20.8782 7.27964C21.6268 8.08735 22 9.06147 22 10.1976V19.4929H20.0907V16.393H2.90929V19.4929L1 19.4929ZM6.72783 13.2953C5.93212 13.2953 5.25537 12.9935 4.69961 12.3922C4.1418 11.7886 3.86289 11.0586 3.86289 10.1976C3.86289 9.33663 4.1418 8.60438 4.69961 8.00303C5.25537 7.39947 5.93213 7.09769 6.72783 7.09769C7.52353 7.09769 8.19824 7.39947 8.75605 8.00303C9.31181 8.60438 9.59072 9.33663 9.59072 10.1976C9.59072 11.0586 9.31181 11.7886 8.75605 12.3922C8.19824 12.9935 7.52353 13.2953 6.72783 13.2953ZM12.4536 14.3293H20.0907V10.1976C20.0907 9.62955 19.9041 9.14358 19.5309 8.73751C19.1556 8.33367 18.7064 8.13173 18.1814 8.13173H12.4536V14.3293ZM6.72783 11.2294C6.99853 11.2294 7.22412 11.1318 7.40664 10.9321C7.59121 10.7346 7.68144 10.4905 7.68144 10.1976C7.68144 9.90469 7.59121 9.65838 7.40664 9.46089C7.22412 9.2634 6.99853 9.16354 6.72783 9.16354C6.45712 9.16354 6.22949 9.2634 6.04697 9.46089C5.86445 9.65838 5.77216 9.90469 5.77216 10.1976C5.77216 10.4905 5.86445 10.7346 6.04697 10.9321C6.22949 11.1318 6.45713 11.2294 6.72783 11.2294ZM6.72783 11.2294C6.45713 11.2294 6.22949 11.1318 6.04697 10.9321C5.86445 10.7346 5.77216 10.4905 5.77216 10.1976C5.77216 9.90469 5.86445 9.65838 6.04697 9.46089C6.22949 9.2634 6.45712 9.16354 6.72783 9.16354C6.99853 9.16354 7.22412 9.2634 7.40664 9.46089C7.59121 9.65838 7.68144 9.90469 7.68144 10.1976C7.68144 10.4905 7.59121 10.7346 7.40664 10.9321C7.22412 11.1318 6.99853 11.2294 6.72783 11.2294ZM12.4536 8.13173H18.1814C18.7064 8.13173 19.1556 8.33367 19.5309 8.73751C19.9041 9.14358 20.0907 9.62955 20.0907 10.1976V14.3293H12.4536V8.13173Z" fill="currentColor"/>
</svg>
