<svg width="40" height="40" viewBox="0 0 40 40" fill="none" xmlns="http://www.w3.org/2000/svg" version="1.1">
 <circle cx="20" cy="20" r="20" fill="#585858"/>
 <g>
  <title>Layer 1</title>
  <g stroke="null" id="surface1">
   <path stroke="null" id="svg_1" fill="white" d="m9,29.27344l0,-18.98568l1.90928,0l0,12.65802l7.63711,0l0,-10.12642l7.63506,0c1.05,0 1.94824,0.4949 2.69678,1.48742c0.74853,0.9898 1.12178,2.18354 1.12178,3.57579l0,11.39086l-1.90928,0l0,-3.79877l-17.18144,0l0,3.79877l-1.90928,0zm5.72783,-7.59482c-0.79571,0 -1.47246,-0.36982 -2.02822,-1.10672c-0.55781,-0.73963 -0.83672,-1.63426 -0.83672,-2.68932c0,-1.05507 0.27891,-1.95241 0.83672,-2.68932c0.55576,-0.73963 1.23252,-1.10945 2.02822,-1.10945c0.7957,0 1.47041,0.36982 2.02822,1.10945c0.55576,0.73691 0.83467,1.63425 0.83467,2.68932c0,1.05506 -0.27891,1.94969 -0.83467,2.68932c-0.55781,0.73691 -1.23252,1.10672 -2.02822,1.10672zm5.72578,1.26716l7.63711,0l0,-5.0632c0,-0.69612 -0.18662,-1.29164 -0.55986,-1.78926c-0.3753,-0.49489 -0.82442,-0.74235 -1.34942,-0.74235l-5.72783,0l0,7.59481zm-5.72578,-3.79877c0.2707,0 0.49629,-0.11964 0.67881,-0.36437c0.18457,-0.24201 0.2748,-0.54113 0.2748,-0.90007c0,-0.35894 -0.09023,-0.66077 -0.2748,-0.90279c-0.18252,-0.24201 -0.40811,-0.36438 -0.67881,-0.36438c-0.27071,0 -0.49834,0.12237 -0.68086,0.36438c-0.18252,0.24201 -0.27481,0.54385 -0.27481,0.90279c0,0.35894 0.09229,0.65805 0.27481,0.90007c0.18252,0.24473 0.41016,0.36437 0.68086,0.36437zm0,0c-0.27071,0 -0.49834,-0.11964 -0.68086,-0.36437c-0.18252,-0.24201 -0.27481,-0.54113 -0.27481,-0.90007c0,-0.35894 0.09229,-0.66077 0.27481,-0.90279c0.18252,-0.24201 0.41016,-0.36438 0.68086,-0.36438c0.2707,0 0.49629,0.12237 0.67881,0.36438c0.18457,0.24201 0.2748,0.54385 0.2748,0.90279c0,0.35894 -0.09023,0.65805 -0.2748,0.90007c-0.18252,0.24473 -0.40811,0.36437 -0.67881,0.36437zm5.72578,-3.79604l5.72783,0c0.525,0 0.97412,0.24745 1.34942,0.74235c0.37324,0.49762 0.55986,1.09314 0.55986,1.78926l0,5.0632l-7.63711,0l0,-7.59481zm0,0"/>
  </g>
 </g>
</svg>