<svg width="40" height="40" viewBox="0 0 40 40" fill="none" xmlns="http://www.w3.org/2000/svg">
<circle cx="20" cy="20" r="20" fill="#585858"/>
<path d="M10.9688 31.25C10.4438 31.25 9.98437 31.0531 9.59062 30.6594C9.19687 30.2656 9 29.8063 9 29.2813V12.2188C9 11.6938 9.19687 11.2344 9.59062 10.8406C9.98437 10.4469 10.4438 10.25 10.9688 10.25H14.5781V9.92188C14.5781 8.54375 15.0539 7.37891 16.0055 6.42734C16.957 5.47578 18.1219 5 19.5 5C20.8781 5 22.043 5.47578 22.9945 6.42734C23.9461 7.37891 24.4219 8.54375 24.4219 9.92188V10.25H28.0312C28.5562 10.25 29.0156 10.4469 29.4094 10.8406C29.8031 11.2344 30 11.6938 30 12.2188V29.2813C30 29.8063 29.8031 30.2656 29.4094 30.6594C29.0156 31.0531 28.5562 31.25 28.0312 31.25H10.9688ZM15.5625 16.1563C15.8469 16.1563 16.082 16.0633 16.268 15.8773C16.4539 15.6914 16.5469 15.4563 16.5469 15.1719V12.2188H14.5781V15.1719C14.5781 15.4563 14.6711 15.6914 14.857 15.8773C15.043 16.0633 15.2781 16.1563 15.5625 16.1563ZM16.5469 10.25H22.4531V9.92188C22.4531 9.09063 22.1688 8.39063 21.6 7.82188C21.0313 7.25313 20.3313 6.96875 19.5 6.96875C18.6687 6.96875 17.9687 7.25313 17.4 7.82188C16.8312 8.39063 16.5469 9.09063 16.5469 9.92188V10.25ZM23.4375 16.1563C23.7219 16.1563 23.957 16.0633 24.143 15.8773C24.3289 15.6914 24.4219 15.4563 24.4219 15.1719V12.2188H22.4531V15.1719C22.4531 15.4563 22.5461 15.6914 22.732 15.8773C22.918 16.0633 23.1531 16.1563 23.4375 16.1563Z" fill="white"/>
</svg>
