<?xml version="1.0" encoding="utf-8"?>
<svg width="24px" height="24px" viewBox="0 0 24 24" fill="none" xmlns="http://www.w3.org/2000/svg">
  <path d="M 5.5 22 C 5.1 22 4.75 21.85 4.45 21.55 C 4.15 21.25 4 20.9 4 20.5 L 4 7.5 C 4 7.1 4.15 6.75 4.45 6.45 C 4.75 6.15 5.1 6 5.5 6 L 8.25 6 L 8.25 5.75 C 8.25 4.7 8.612 3.813 9.338 3.087 C 10.062 2.362 10.95 2 12 2 C 13.05 2 13.938 2.362 14.662 3.087 C 15.388 3.813 15.75 4.7 15.75 5.75 L 15.75 6 L 18.5 6 C 18.9 6 19.25 6.15 19.55 6.45 C 19.85 6.75 20 7.1 20 7.5 L 20 20.5 C 20 20.9 19.85 21.25 19.55 21.55 C 19.25 21.85 18.9 22 18.5 22 L 5.5 22 Z M 9 10.5 C 9.217 10.5 9.396 10.429 9.538 10.287 C 9.679 10.146 9.75 9.967 9.75 9.75 L 9.75 7.5 L 8.25 7.5 L 8.25 9.75 C 8.25 9.967 8.321 10.146 8.462 10.287 C 8.604 10.429 8.783 10.5 9 10.5 Z M 9.75 6 L 14.25 6 L 14.25 5.75 C 14.25 5.117 14.033 4.583 13.6 4.15 C 13.167 3.717 12.633 3.5 12 3.5 C 11.367 3.5 10.833 3.717 10.4 4.15 C 9.967 4.583 9.75 5.117 9.75 5.75 L 9.75 6 Z M 15 10.5 C 15.217 10.5 15.396 10.429 15.538 10.287 C 15.679 10.146 15.75 9.967 15.75 9.75 L 15.75 7.5 L 14.25 7.5 L 14.25 9.75 C 14.25 9.967 14.321 10.146 14.462 10.287 C 14.604 10.429 14.783 10.5 15 10.5 Z" fill="currentColor"/>
</svg>