<?xml version="1.0" encoding="utf-8"?>
<svg width="24px" height="24px" viewBox="0 0 24 24" fill="none" xmlns="http://www.w3.org/2000/svg">
  <path stroke="null" id="svg_1" fill-rule="nonzero" d="M 19.274 3.817 L 18.362 3.817 L 18.362 2 L 16.545 2 L 16.545 3.817 L 7.454 3.817 L 7.454 2 L 5.637 2 L 5.637 3.817 L 4.725 3.817 C 3.725 3.817 2.908 4.637 2.908 5.637 L 2.908 20.183 C 2.908 21.183 3.725 22 4.725 22 L 19.274 22 C 20.274 22 21.091 21.183 21.091 20.183 L 21.091 5.637 C 21.091 4.637 20.274 3.817 19.274 3.817 Z M 19.274 20.183 L 4.725 20.183 L 4.725 10.183 L 19.274 10.183 L 19.274 20.183 Z M 19.274 8.363 L 4.725 8.363 L 4.725 5.637 L 19.274 5.637 L 19.274 8.363 Z M 19.274 8.363" fill="currentColor"/>
</svg>