<svg width="40" height="40" viewBox="0 0 40 40" fill="none" xmlns="http://www.w3.org/2000/svg">
<circle cx="20" cy="20" r="20" fill="#585858"/>
<path stroke="null" id="svg_1" fill="rgb(100%,100%,100%)" fill-rule="nonzero" d="m29.60156,9.19922l-1.20312,0l0,-2.39844l-2.39844,0l0,2.39844l-12,0l0,-2.39844l-2.39844,0l0,2.39844l-1.20312,0c-1.32031,0 -2.39844,1.08203 -2.39844,2.40234l0,19.19922c0,1.32031 1.07813,2.39844 2.39844,2.39844l19.20312,0c1.32032,0 2.39844,-1.07813 2.39844,-2.39844l0,-19.19922c0,-1.32031 -1.07812,-2.40234 -2.39844,-2.40234zm0,21.60156l-19.20312,0l0,-13.19922l19.20312,0l0,13.19922zm0,-15.60156l-19.20312,0l0,-3.59766l19.20312,0l0,3.59766zm0,0"/>
</svg>
