<svg width="300" height="300" data-name="Ebene 1" version="1.1" viewBox="0 0 300 300" xmlns="http://www.w3.org/2000/svg"><defs><clipPath id="prefix__clip-path"><path class="prefix__cls-1" d="m0 0h1024v1024h-1024z"/></clipPath><clipPath id="prefix__clip-path-2"><rect class="prefix__cls-1" width="1024" height="1024" rx="164.09"/></clipPath><linearGradient id="prefix__Unbenannter_Verlauf_5" x2="1" y1="1024" y2="1024" gradientTransform="matrix(2937.7 -9.2619e-6 2.164e-5 -2937.7 -40.784 3010300)" gradientUnits="userSpaceOnUse"><stop stop-color="#003b40" offset="0"/><stop stop-color="#009281" offset=".51"/><stop stop-color="#5bbcac" offset="1"/></linearGradient><style>.prefix__cls-1{fill:none}.prefix__cls-2{clip-path:url(#prefix__clip-path)}.prefix__cls-5{fill:#fff}</style></defs><g class="prefix__cls-2" transform="scale(.29297)" clip-path="url(#prefix__clip-path)"><g clip-path="url(#prefix__clip-path-2)"><path transform="rotate(-16,512,511.99)" d="m-121.29-121.29h1266.6v1266.6h-1266.6z" fill="url(#prefix__Unbenannter_Verlauf_5)" style="fill:url(#prefix__Unbenannter_Verlauf_5)"/></g><g class="prefix__cls-2" clip-path="url(#prefix__clip-path)"><path class="prefix__cls-5" d="m121.2 613.41c0 70.87 26 135 86.84 169.49 45.11 25.6 106.64 23.27 145.23 3.23 9.48-4.93 22.08-17.19 28.18-23.54a5.5 5.5 0 0 1 7.69-0.23l21.78 19.87a33.64 33.64 0 0 0 22.66 8.77h48.31a5.53 5.53 0 0 0 5.53-5.52v-334.33a25.7 25.7 0 0 0-25.71-25.7h-152.55c-103.81 0-188 84.15-188 188m623.84-188.01 9.57-31 23.85-110.58 0.73-8c0-10.78-4.71-20.52-11.93-27.82l-28.61-27.44-178.56 187.49a51.4 51.4 0 0 0-15.9 36.91v346h174.1a182.78 182.78 0 0 0 182.75-182.77c0-91.88-67.8-169.86-156.08-182.79"/></g></g></svg>
