<svg xmlns="http://www.w3.org/2000/svg" xmlns:xlink="http://www.w3.org/1999/xlink" width="800.013" height="176.689" viewBox="0 0 21167 4674.9" fill-rule="evenodd" image-rendering="optimizeQuality" shape-rendering="geometricPrecision"><defs><linearGradient id="prefix__c" x1="12660.836" x2="108951.128" y1="85633.215" y2="58030.785" gradientUnits="userSpaceOnUse"><stop offset="0" stop-color="#003b40"/><stop offset=".51" stop-color="#009281"/><stop offset="1" stop-color="#5bbcac"/></linearGradient><clipPath id="prefix__b"><path d="M2500 25491h20982V4509H2500z"/></clipPath><path id="prefix__a" d="M47577.941 12817.006v1470.034c0 163.312 244.857 163.312 244.857 0 0-366.952 38.322-1326.774-30.524-1623.321h-183.587c-16.042 68.622-30.524 70.405-30.524 153.064z"/></defs><g fill="#fff" transform="translate(-39417 -12663)"><path d="M51311.178 15389.677v153.064c-255.106 0-141.255-15.819-203.862 40.995l-40.995 51.021c66.84 126.55 6.016 122.54 244.857 122.54v918.827c0 157.742 244.857 103.825 244.857-30.524v-888.081h673.302c0 299.443-33.643 734.349 30.524 1010.621 303.454 0 214.111-75.752 214.111-1010.621 341.552 0 367.174 32.752 367.174-122.54 0-127.887-106.276-91.794-367.174-91.794 0-204.976-8.912-105.83 30.524-275.604 92.462-21.612 367.174-15.373 367.174-91.794 0-254.66-642.555-283.179-642.555 245.08v122.54h-673.302v-245.08c151.504-80.208 146.602-61.27 367.174-61.27 22.726-97.364 39.213-135.462-53.695-190.717-184.701-110.063-558.337-33.197-558.337 344.003zm8323.14 827.034c0-219.012 20.943-407.056 277.386-459.636 230.152-47.234 302.34 49.684 456.963 153.286v459.414c-64.612 43.223-74.415 72.633-133.234 111.623-253.769 167.546-601.114 10.249-601.114-264.686zm-244.857-122.54c0 518.901 419.087 896.102 979.206 520.684 0 788.044-648.348 398.144-795.619 398.144-110.509 0-91.794 77.312-91.794 183.81 303.008 70.628 66.172 122.54 673.302 122.54 225.474 0 428.444-250.65 428.444-489.937V15634.98c0-108.726-60.602-91.794-183.587-91.794-27.627 55.923-23.617 38.322-30.524 122.54-204.53-108.281-486.818-295.656-804.085 22.057-96.25 96.472-175.121 227.256-175.121 406.833zm-3029.189 459.413c-293.428 0-221.24-14.259-428.444-153.064v-489.937c217.453-145.711 172.447-153.064 428.444-153.064 412.18 0 412.18 796.287 0 796.287zm-642.555-1439.511v1562.051c0 108.726 60.602 91.794 183.587 91.794 27.627-55.923 23.617-38.322 30.524-122.54 133.012 70.405 221.24 153.064 428.444 153.064 498.626 0 744.598-706.499 375.864-1111.326-337.319-370.516-742.37-38.544-804.308-21.834 0-433.792 66.394-643.224-122.317-643.224-70.628 0-91.794 21.389-91.794 91.794zM44823.91 12786.259v1439.511c0 265.8 178.017 168.66 244.857 153.064 0-493.948-77.757-724.1 113.851-896.77 155.737-140.364 384.998-155.737 470.108 6.016 38.767 73.747 28.296 220.572 28.073 339.324l-.668 337.542c-3.119 396.584 245.526 236.168 245.526 121.872 0-450.724 118.084-1133.161-428.444-1133.161-199.852 0-307.018 102.265-428.444 183.81 0-424.211 69.068-673.747-122.317-673.747-71.519 0-122.317 50.798-122.317 122.54zm8598.521 2940.292c211.437 0 350.91 111.4 367.174 306.35h-642.555c4.233-194.059 155.069-306.35 275.381-306.35zm-520.238 336.874c0 239.956-15.15 433.346 190.717 605.348 210.323 176.012 759.748 200.966 910.806-84.664-129.224-193.168-49.907-30.524-550.762-30.524-161.53 0-301.671-112.291-305.904-306.35 612.477 0 887.412 83.996 887.412-153.064 0-493.725-623.394-772.448-972.968-422.652-84.887 85.11-159.302 230.821-159.302 391.905zm-4406.316-796.288c0 314.816-53.472 1261.494 61.27 1500.781 214.111 0 186.484-3.788 183.81-244.634-4.902-464.984-56.814-579.948 194.059-724.546 103.156-59.488 174.452-41.441 325.956-41.441 94.244 141.032 124.1 151.058 122.54 489.937-2.005 400.817-54.14 520.684 122.317 520.684 70.405 0 91.794-21.389 91.794-91.794 0-467.657 122.317-1163.907-428.444-1163.907-77.534 0-174.898 39.213-235.722 70.405-117.638 59.933-75.975 82.213-192.722 113.405 0-644.783 70.182-673.747-183.587-673.747-35.425 73.97-61.27 133.903-61.27 245.08zm-3274.269 1316.971c-112.291 0-147.939-47.456-214.111-91.794v-183.81c182.028-48.57 113.182-91.794 581.508-91.794v214.334c-103.156 54.586-218.121 153.064-367.174 153.064zm-397.698-857.557l61.27 91.794c404.605-33.643 602.451-220.795 703.825 214.334-203.194 0-383.216-13.368-545.637 35.871-452.507 137.245-325.956 729.893 117.193 729.893 190.717 0 302.785-86.669 428.444-153.064 8.021 94.913-.446 57.928 30.524 122.54h153.064c119.421-225.919 94.244-909.915-67.731-1095.953-163.312-187.598-450.724-174.007-679.317-111.177-149.053 40.995-141.701 52.358-201.634 165.763zm1591.238-1684.368c113.628-214.779 207.65-183.81 581.508-183.81v214.334c-220.795 147.939-209.209 122.54-489.714 122.54-40.772-60.824-55.7-84.887-91.794-153.064zm-153.064-704.494c0 256.888 365.392-69.736 644.56 89.788 81.768 46.788 89.788 119.421 89.788 247.085h-367.174c-771.556 0-456.517 1164.576 367.174 612.477 83.327 157.52 45.228 138.359 244.857 91.794 0-584.627 159.079-1225.177-520.238-1225.177-146.38 0-458.968 54.363-458.968 183.81zm3825.031 3062.609c90.902-172.002 195.618-183.81 581.508-183.81v214.334c-368.734 247.085-296.547 151.281-550.762 91.794-8.021-94.913.446-57.928-30.524-122.54zm-153.064-704.494c0 68.622 24.285 67.286 61.27 122.54 223.468-18.715 673.302-237.282 673.302 214.334-461.642 0-795.619-26.736-795.619 459.414 0 225.251 331.749 464.092 795.619 153.064 47.679 179.131 244.857 154.178 244.857 30.524 0-207.872 27.182-744.82-33.866-884.962-204.976-473.004-945.563-218.567-945.563-95.136zm-612.031-1500.558c-533.383 0-434.906-575.27-290.531-719.644 213.888-213.888 627.182-95.358 627.182 321.5 0 212.774-129.67 398.144-336.651 398.144zm-642.555-459.414c0 297.884 81.768 571.036 385.221 655.7 53.472 14.928 209.878 46.565 251.096 43.223 138.804-11.363 349.796-94.244 428.222-184.924 263.127-303.454 251.096-1095.953-483.03-1095.953-297.884 0-581.508 238.396-581.508 581.954zm5844.712 1960.195c-20.72-249.09-244.857-159.748-244.857-30.524 0 310.806-34.757 821.686 30.524 1102.637h183.587c51.912-222.8 30.524-555.44 30.524-827.034 218.567-146.602 121.649-183.81 397.698-183.81 371.185 0 129.001 512.886 244.857 1010.621h183.587c50.353-216.562 127.664-1064.316-203.194-1205.571-265.8-113.628-431.786 5.347-622.949 133.68zm2631.491 30.524c0 346.008-86.001 1071.891 428.444 1071.891 214.334 0 305.236-101.151 428.444-183.81 10.917 131.675-4.233 55.254 61.27 153.064 265.355 0 183.587 53.026 183.587-1133.161 0-94.244-42.332-91.794-122.317-91.794-235.054 0-73.97 637.208-122.317 796.287-40.104 131.898-441.812 395.916-579.057 89.566-129.892-289.863 118.975-885.853-155.514-885.853h-61.27c-31.86 60.156-61.27 90.234-61.27 183.81zm-11077.171 153.063c0 484.144 703.825 363.164 703.825 520.684 0 318.158-582.845 91.794-642.555 91.794-75.975 0-61.27 106.944-61.27 183.81 90.68 21.166 476.569 246.64 796.733 31.86 147.271-98.923 197.401-327.07 79.762-480.357-87.56-113.851-504.196-226.142-631.638-255.997v-153.064c122.094-64.612 185.37-88.229 312.143-69.736 130.561 18.938 330.412 105.162 330.412-52.581 0-236.168-887.412-297.661-887.412 183.81zm1132.27 153.287c0 221.24-25.845 421.315 191.162 605.125 404.382 342.889 879.837 40.327 879.837-23.171 0-234.163-239.064-86.669-239.064-86.669-686.001 237.505-841.738-770.888-219.904-770.888 237.282 0 458.968 164.649 458.968 0 0-196.064-502.637-368.511-863.573-98.478-82.213 61.493-207.65 243.075-207.65 374.081z"/><use xlink:href="#prefix__a"/><use xlink:href="#prefix__a" x="581.285"/><path d="M58838.699 15696.027c-2.674-120.312 8.466-71.742-30.524-153.064-305.236 0-214.111 61.716-214.111 1102.637 0 99.814 72.856 122.54 153.064 122.54 194.95 0 43-635.871 91.794-796.287 80.431-264.686 489.714-143.26 489.714-336.874v-61.27c-232.158-122.986-231.935-50.13-489.714 122.54z"/></g><g transform="translate(-557 -1005) scale(.2228)" clip-path="url(#prefix__b)"><path d="M5862 4509h14257c1857 0 3362 1506 3362 3362v14257c0 1857-1506 3362-3362 3362H5862c-1857 0-3362-1506-3362-3362V7871c0-1857 1506-3362 3362-3362z" fill="url(#prefix__c)"/><path d="M4983 17078c0 1452 533 2766 1779 3473 924 525 2185 477 2976 66 194-101 452-352 577-482 21-22 51-35 81-35 28 0 56 11 76 30l446 407c127 116 292 180 464 180h990c62 0 113-51 113-113v-6850c0-291-236-527-527-527H8832c-2127 0-3852 1724-3852 3852m12785-3853l196-635 489-2266 15-164c0-221-97-420-244-570l-586-562-3659 3842c-207 197-324 470-326 756v7090h3567c2068 0 3745-1677 3745-3745 0-1883-1389-3480-3198-3745" fill="#fff"/></g></svg>
