<svg width="500" height="174.32" data-name="Ebene 1" version="1.1" viewBox="0 0 500 174.32" xmlns="http://www.w3.org/2000/svg"><defs><style>.prefix__cls-1{fill:red}.prefix__cls-2,.prefix__cls-3{fill:#fff}.prefix__cls-3{stroke:red;stroke-miterlimit:10;stroke-width:.25px}</style></defs><g id="prefix__Higru_MRot_rounded" transform="matrix(1.5847,0,0,1.5847,1.5847,0)" data-name="Higru MRot rounded"><path class="prefix__cls-1" d="m97.67 110h-87.34a11.37 11.37 0 0 1-11.33-11.33v-86.51a12.19 12.19 0 0 1 12.16-12.16h86.51a11.37 11.37 0 0 1 11.33 11.33v87.34a11.37 11.37 0 0 1-11.33 11.33z" style="fill:#f73429"/></g><path class="prefix__cls-2" d="m159.77 127.03a2.5989 2.5989 0 0 1 1.5847-0.23771 8.1138 8.1138 0 0 1 1.8541 0.66558c0.69727 0.3011 1.4421 0.53881 2.1552 0.80821a1.9334 1.9334 0 0 1 0.69728 0.41203c0.14263 0.20601 0 0.45957 0 0.66558-0.22186 0.6022-0.52296 1.1727-0.79236 1.7432q-3.835 7.8286-7.9236 15.514c-1.5847 2.8367-3.0268 5.6416-4.5957 8.4307-1.347 2.4088-2.7416 4.7542-4.1995 7.1471-0.8716 1.3629-1.7432 2.694-2.7099 3.9777a11.664 11.664 0 0 1-1.458 1.5847 1.5847 1.5847 0 0 1-0.61804 0.34864c-0.15848 0-0.22187-0.14263-0.31695-0.22186-1.759-1.9017-3.5656-3.7716-5.2138-5.7684a21.647 21.647 0 0 1-1.7432-2.4088 4.0727 4.0727 0 0 1-0.53881-1.2361l0.41203-0.5705 0.25355-0.34864q10.602-14.643 21.14-29.302a22.186 22.186 0 0 0 2.0284-1.2202z" style="stroke-width:1.5847"/><path class="prefix__cls-3" d="m28.969 109.35a29.064 29.064 0 0 1 3.3121 0 5.0553 5.0553 0 0 1 1.9809 0.47542 23.089 23.089 0 0 1 3.4072 1.759 10.792 10.792 0 0 1 1.5847 1.1093c1.8224 1.5847 3.5973 3.1694 5.3722 4.8334 2.805 2.5831 5.6099 5.1504 8.3832 7.7652a12.789 12.789 0 0 0-3.0902 1.5847 3.6449 3.6449 0 0 0-1.5055 2.3612 7.1471 7.1471 0 0 0 0.49126 3.4547 6.7351 6.7351 0 0 0 0.85575 1.8383 9.5084 9.5084 0 0 0 2.1235 2.0126 18.272 18.272 0 0 0 3.8509 2.1235 10.491 10.491 0 0 0 2.4722 0.71313c1.5847 0.17432 3.2487 0.22186 4.881 0.31694 6.5608 0.2694 13.137 0.44372 19.714 0.61804l8.4307 0.20602c1.4738 0 2.9317 0 4.4055 0.11093v-0.41203c-5.087-0.12678-10.174-0.23771-15.261-0.38033-6.5925-0.19017-13.185-0.34864-19.762-0.66559-0.90329 0-1.8066-0.0951-2.694-0.23771a14.706 14.706 0 0 1-3.3279-1.2202 16.18 16.18 0 0 1-3.5339-2.3612 5.6416 5.6416 0 0 1-1.3946-1.7907 11.664 11.664 0 0 1-0.90329-3.1694 3.3596 3.3596 0 0 1 0.55465-2.2662 5.1979 5.1979 0 0 1 1.9175-1.4896 23.771 23.771 0 0 1 5.087-1.8224 23.2 23.2 0 0 1 5.3088-0.76067h3.0585a11.41 11.41 0 0 0 3.9935 0.64974h2.3454a81.677 81.677 0 0 0 12.139 0 48.176 48.176 0 0 0 9.3816-1.5847 27.495 27.495 0 0 0 3.6132-1.3312c3.6449-1.5847 7.2739-3.2487 10.982-4.7542a46.512 46.512 0 0 1 9.3499-2.488 54.641 54.641 0 0 1 11.489-0.58635 35.482 35.482 0 0 1 13.882 3.3121 39.618 39.618 0 0 1 4.0252 2.3929 80.219 80.219 0 0 1 7.0045 4.9919 25.356 25.356 0 0 1 2.6623 2.5514l-19.952 27.669a80.821 80.821 0 0 0-8.9537-2.5039 16.434 16.434 0 0 0-3.629-0.39618 9.5084 9.5084 0 0 0-1.8858 0.34864c-3.1694 0.80821-6.3389 1.6957-9.5084 2.5673-6.3389 1.759-12.519 3.5656-18.779 5.3405-1.5847 0.41203-3.0427 0.85575-4.5799 1.2361a20.094 20.094 0 0 1-5.911 0.64973 7.0045 7.0045 0 0 1-3.2804-0.98252c-1.5847-0.98253-3.0902-2.0443-4.6116-3.1695-4.564-3.1694-9.0488-6.4498-13.518-9.7619q-3.74-2.7416-7.3848-5.5624c-2.0284-1.5847-4.0727-3.1694-6.0061-4.7542a28.525 28.525 0 0 1-2.9951-3.1694c-2.7416-3.3438-5.4356-6.7351-8.1138-10.158-1.8066-2.3454-3.5815-4.7542-5.3247-7.1154-1.0935-1.5847-2.2028-3.1694-3.1695-4.7542a6.2121 6.2121 0 0 1-0.72897-1.5847 5.2454 5.2454 0 0 1 1.7432-1.759z" style="stroke:#f73429"/><path class="prefix__cls-3" d="m45.402 106.87a4.6274 4.6274 0 0 1 1.8066 0.12678 3.8826 3.8826 0 0 1 1.3153 0.8399c1.9968 1.7115 3.8826 3.5339 5.8001 5.3405 1.3946 1.3312 2.7891 2.694 4.2312 3.9777a26.798 26.798 0 0 1 2.7733 2.7574c1.0142 1.141 1.9968 2.3137 2.9634 3.4864h-2.5197c-2.1235-2.1394-4.2946-4.2471-6.434-6.3389-2.8684-2.9-5.7526-5.8001-8.5892-8.7318-0.44372-0.47542-0.90329-0.93499-1.347-1.4263z" style="stroke:#f73429"/><path class="prefix__cls-3" d="m37.415 105.11a7.7968 7.7968 0 0 1 2.4563-0.69728 2.3454 2.3454 0 0 1 1.2519 0.28525 25.07 25.07 0 0 1 3.2487 1.8858c0.15847 0.12678 0.34864 0.22186 0.50711 0.36448 1.5847 1.5847 3.1695 3.2645 4.7542 4.881q3.1695 3.2804 6.4815 6.5449c1.7115 1.6957 3.4389 3.3755 5.1345 5.087a22.947 22.947 0 0 0-3.6132 0.42788c-0.8399-0.68143-1.5847-1.458-2.4246-2.1869-3.6766-3.4706-7.3214-6.957-10.998-10.412-1.7115-1.5847-3.4547-3.1694-5.2137-4.7542-0.52296-0.47542-1.0459-0.93499-1.5847-1.3629z" style="stroke:#f73429"/><path class="prefix__cls-3" d="m29.191 104.32a2.6623 2.6623 0 0 1 1.7907-0.71313 8.0979 8.0979 0 0 1 2.1394 0.28526 22.868 22.868 0 0 1 3.5815 1.2519 4.5323 4.5323 0 0 1 0.96668 0.69728c1.8541 1.5847 3.629 3.2804 5.4356 4.9602 3.7875 3.5498 7.5433 7.1471 11.331 10.729 0.88745 0.82406 1.7749 1.6798 2.6782 2.488a30.664 30.664 0 0 0-3.7083 1.0301q-5.3564-4.9919-10.76-9.9204c-1.0459-0.95084-2.076-1.9017-3.1695-2.8208a13.898 13.898 0 0 0-2.1077-1.3787 23.565 23.565 0 0 0-3.1695-1.5847 5.7842 5.7842 0 0 0-1.5847-0.39618h-3.5656c-0.15847-0.90329-0.28525-1.8066-0.42788-2.7099a2.1711 2.1711 0 0 1 0.52296-1.9492z" style="stroke:#f73429"/><path d="m30.886 103.21h0.49126a17.432 17.432 0 0 1 5.6416 1.5847 8.5734 8.5734 0 0 1 2.8525-0.83991 3.423 3.423 0 0 1 1.664 0.42788 30.11 30.11 0 0 1 3.5022 2.0918 5.1028 5.1028 0 0 1 2.6306 0.20601 7.0203 7.0203 0 0 1 1.2995 0.95084c3.1695 2.7733 6.1963 5.8001 9.3023 8.6684 0.55465 0.52296 1.1727 0.98253 1.6957 1.5847 1.7274 1.7432 3.2962 3.6449 4.8651 5.5307a5.1662 5.1662 0 0 0 1.3629 0.39618 22.709 22.709 0 0 0 4.8651 0.19017q2.4722 0.19017 4.9443 0.23771h1.7432a63.056 63.056 0 0 0 11.093-0.95084 36.449 36.449 0 0 0 5.1028-1.2678c1.0459-0.36448 2.0601-0.8399 3.0902-1.2836 3.423-1.5847 6.8302-3.0585 10.332-4.358a44.975 44.975 0 0 1 9.5084-2.4405 52.914 52.914 0 0 1 11.632-0.47541 35.181 35.181 0 0 1 14.263 3.8667c1.2678 0.68143 2.4722 1.4896 3.6924 2.282a70.029 70.029 0 0 1 6.9728 5.0236 31.695 31.695 0 0 1 2.3454 2.1394c0.19017-0.23771-0.19016 0.25356 0 0a6.0378 6.0378 0 0 0 2.5039 0.66558 6.4974 6.4974 0 0 1 1.8541-1.0459 3.4705 3.4705 0 0 1 2.3612 0.2694c1.0142 0.47542 2.076 0.8399 3.1694 1.2202 0.34864 0.14262 0.77652 0.34864 0.88745 0.76067v0.41202a10.412 10.412 0 0 1-0.77652 1.9017c-2.6148 5.3564-5.3405 10.681-8.1296 15.958-2.7891 5.2771-5.4039 10.063-8.4149 14.928a49.855 49.855 0 0 1-3.4389 5.087 7.9236 7.9236 0 0 1-1.2678 1.2678 1.2044 1.2044 0 0 1-0.85575 0.3011c-0.23771 0-0.38033-0.23771-0.52296-0.39618-1.9809-2.1394-4.0094-4.2154-5.7842-6.5132a10.76 10.76 0 0 1-1.5847-2.694c-0.64974-0.49126-1.2836-0.96668-1.9334-1.4262l1.5847-2.282a77.81 77.81 0 0 0-9.2706-2.5356 13.375 13.375 0 0 0-3.2804-0.28525 18.716 18.716 0 0 0-2.1235 0.45957c-3.0268 0.77652-6.022 1.5847-9.0171 2.4563l-19.841 5.6416c-1.5847 0.42788-3.1695 0.91914-4.7542 1.2044a16.465 16.465 0 0 1-5.2137 0.3011 7.0203 7.0203 0 0 1-2.805-0.95084c-1.7907-1.1093-3.5181-2.3295-5.2454-3.5339-4.358-3.0585-8.6684-6.1963-12.963-9.3657q-3.5973-2.6623-7.1313-5.3881c-2.1235-1.5847-4.2471-3.2645-6.3389-5.0077a29.65 29.65 0 0 1-3.1694-3.3438c-2.6623-3.1694-5.2137-6.3389-7.7335-9.5084-1.8224-2.3771-3.6449-4.7542-5.3881-7.1788-0.90329-1.2519-1.7907-2.5039-2.6306-3.7716a23.058 23.058 0 0 1-1.3787-2.3296 3.1695 3.1695 0 0 1-0.2694-0.72897v-0.17432a5.6416 5.6416 0 0 1 1.8541-1.9651c-0.14262-0.93499-0.3011-1.8858-0.44372-2.8208a2.5673 2.5673 0 0 1 0.66558-2.2345 2.8208 2.8208 0 0 1 1.9651-0.8399m-1.6957 1.1093a2.1711 2.1711 0 0 0-0.53881 1.9334l0.42788 2.7257c1.1885 0 2.3771-0.12678 3.5815-0.0951a6.3389 6.3389 0 0 1 1.5847 0.39618 21.124 21.124 0 0 1 3.1694 1.5847 12.139 12.139 0 0 1 2.1235 1.4263c1.0776 0.91914 2.1235 1.87 3.1695 2.8208 3.6132 3.2962 7.1947 6.5924 10.76 9.9362a30.744 30.744 0 0 1 3.5498-1.1252c-0.90329-0.80821-1.8066-1.5847-2.6782-2.488-3.7875-3.5656-7.5433-7.163-11.331-10.729-1.8066-1.5847-3.5815-3.3596-5.4356-4.9443a4.041 4.041 0 0 0-0.96668-0.69728 24.04 24.04 0 0 0-3.5815-1.2678 9.651 9.651 0 0 0-2.1394-0.28525 2.7416 2.7416 0 0 0-1.7749 0.72897m8.2247 0.79236c0.53881 0.42788 1.0618 0.88745 1.5847 1.347 1.759 1.5847 3.4864 3.1694 5.2137 4.7542 3.6766 3.4547 7.3056 6.9411 10.982 10.396 0.80821 0.74483 1.5847 1.5847 2.4246 2.2028a21.6 21.6 0 0 1 3.6132-0.42787c-1.6957-1.7115-3.4072-3.3913-5.1345-5.087l-6.4657-6.5449c-1.5847-1.5847-3.1695-3.1694-4.7542-4.881a2.9476 2.9476 0 0 0-0.50711-0.36449 24.183 24.183 0 0 0-3.2804-1.9017 2.6465 2.6465 0 0 0-1.2519-0.28525 8.304 8.304 0 0 0-2.4405 0.71313m7.9236 1.759c0.42788 0.49127 0.90329 0.95084 1.347 1.4263 2.8367 2.9476 5.7209 5.8476 8.5892 8.7318 2.1394 2.1394 4.3105 4.2471 6.434 6.3389h2.5197c-0.96668-1.1727-1.9492-2.3454-2.9634-3.4864a22.788 22.788 0 0 0-2.5673-2.6465c-1.4421-1.2836-2.8367-2.6465-4.2312-3.9777-1.9175-1.7907-3.8033-3.629-5.8001-5.3405a3.8826 3.8826 0 0 0-1.3153-0.8399 4.9602 4.9602 0 0 0-1.8066-0.12678m-16.513 2.4722a5.7209 5.7209 0 0 0-1.7432 1.7432 6.5925 6.5925 0 0 0 0.72897 1.5847c0.98253 1.5847 2.0918 3.1694 3.1695 4.7542 1.7115 2.3929 3.5022 4.7542 5.3247 7.1154 2.6465 3.423 5.3405 6.8143 8.1296 10.111a30.11 30.11 0 0 0 2.9634 3.217c1.9334 1.6798 3.9777 3.1694 6.0061 4.7542 2.4405 1.8858 4.9126 3.74 7.3848 5.5782 4.4689 3.2962 8.9537 6.5766 13.518 9.7619 1.5847 1.0459 3.0427 2.1077 4.6116 3.1695a7.0045 7.0045 0 0 0 3.2804 0.98252 20.601 20.601 0 0 0 5.911-0.64973c1.5847-0.38034 3.0427-0.82406 4.5799-1.2361 6.3389-1.7749 12.519-3.5815 18.779-5.3405 3.1694-0.8716 6.3389-1.759 9.5084-2.5673a12.377 12.377 0 0 1 1.8858-0.34864 16.449 16.449 0 0 1 3.629 0.41203 77.366 77.366 0 0 1 8.9537 2.488q9.9838-13.835 19.952-27.701a27.035 27.035 0 0 0-2.6623-2.5514 80.219 80.219 0 0 0-7.0045-4.9919 39.618 39.618 0 0 0-4.0252-2.3612 35.831 35.831 0 0 0-13.898-3.4864 53.595 53.595 0 0 0-11.489 0.58635 45.799 45.799 0 0 0-9.3499 2.5039c-3.7083 1.4104-7.3373 3.0585-10.982 4.6591a26.687 26.687 0 0 1-3.6132 1.3312 48.176 48.176 0 0 1-9.3816 1.5847 81.677 81.677 0 0 1-12.139 0h-2.3295a12.282 12.282 0 0 1-4.0094-0.64973h-3.0585a23.185 23.185 0 0 0-5.3088 0.74482 24.357 24.357 0 0 0-5.087 1.8224 5.1979 5.1979 0 0 0-1.9175 1.4896 3.4705 3.4705 0 0 0-0.55465 2.2662 11.093 11.093 0 0 0 0.90329 3.1694 5.1345 5.1345 0 0 0 1.3946 1.7907 15.134 15.134 0 0 0 3.5339 2.3612 13.993 13.993 0 0 0 3.3279 1.2202c0.88745 0.14262 1.7907 0.15847 2.694 0.23771 6.5766 0.31694 13.169 0.49126 19.762 0.66558 5.087 0.14263 10.174 0.25356 15.261 0.38034v0.41203c-1.4579 0-2.9317 0-4.4055-0.11094l-8.4149-0.20601c-6.5766-0.17432-13.153-0.34864-19.73-0.61804-1.5847 0-3.2645-0.14263-4.881-0.3011a11.204 11.204 0 0 1-2.4563-0.72897 18.716 18.716 0 0 1-3.8667-2.1235 9.7778 9.7778 0 0 1-2.1235-1.9968 6.8619 6.8619 0 0 1-0.8399-1.8383 7.0679 7.0679 0 0 1-0.50711-3.4706 3.5022 3.5022 0 0 1 1.5055-2.1869 12.567 12.567 0 0 1 3.0902-1.5847c-2.7733-2.6148-5.5782-5.182-8.3832-7.7652-1.7749-1.5847-3.5339-3.2645-5.3564-4.7542a10.935 10.935 0 0 0-1.5847-1.1093 23.089 23.089 0 0 0-3.4072-1.759 5.2613 5.2613 0 0 0-1.9651-0.47542c-1.0935 0-2.2028 0-3.3121 0.14263m130.8 17.559a22.186 22.186 0 0 1-2.0284 1.2202q-10.57 14.659-21.156 29.302a0.3011 0.3011 0 0 1-0.25356 0.36448c-0.14262 0.17432-0.2694 0.38034-0.41203 0.55466a4.4055 4.4055 0 0 0 0.53881 1.2519 21.457 21.457 0 0 0 1.7432 2.3929c1.5847 2.0126 3.4547 3.8826 5.2138 5.7684 0.0951 0.0951 0.15847 0.2377 0.31694 0.22186a1.5847 1.5847 0 0 0 0.61804-0.3328 11.79 11.79 0 0 0 1.458-1.5847c0.96668-1.2678 1.8541-2.6148 2.7099-3.9618 1.4738-2.3454 2.8525-4.7542 4.2154-7.1471 1.5847-2.7891 3.0744-5.6099 4.5799-8.4307q4.0727-7.7018 7.9236-15.514c0.26941-0.58634 0.57051-1.141 0.79237-1.7432 0-0.22187 0.17432-0.47542 0-0.68144a1.5847 1.5847 0 0 0-0.69728-0.39618c-0.71313-0.2694-1.458-0.52296-2.1552-0.82405a8.3357 8.3357 0 0 0-1.8541-0.66559 2.5673 2.5673 0 0 0-1.5847 0.23771z" fill="#f00" stroke="#f00" stroke-miterlimit="10" stroke-width=".25" style="fill:#f73429;stroke:#f73429"/><g id="prefix__Wappen" transform="matrix(1.5847,0,0,1.5847,1.5847,0)"><path class="prefix__cls-1" d="m85.42 5.7v30.14a38 38 0 0 1-30.42 37.07 38 38 0 0 1-30.4-37.07v-30.14z" style="fill:#f73429"/><path class="prefix__cls-2" d="m83.7 7.31v28.53a36.27 36.27 0 0 1-28.7 35.3 36.29 36.29 0 0 1-28.69-35.3v-28.53z"/><path class="prefix__cls-1" d="m81.9 9v26.84a34.51 34.51 0 0 1-26.9 33.46 34.49 34.49 0 0 1-26.87-33.46v-26.84z" style="fill:#f73429"/><path class="prefix__cls-2" d="m34.74 27.58 20.27 8.41-20.27 8.39 8.41-8.4z"/><path class="prefix__cls-2" d="m46.6 56.27 8.41-20.28 8.39 20.28-8.4-8.41z"/><path class="prefix__cls-2" d="m75.29 44.4-20.28-8.41 20.28-8.39-8.41 8.41z"/><path class="prefix__cls-2" d="m63.43 15.71-8.42 20.28-8.38-20.28 8.4 8.41z"/></g><text x="195.98299" y="122.008" fill="#ffffff" font-family="PalatinoLinotype-Bold, 'Palatino Linotype'" font-size="112.52px" font-weight="700" letter-spacing=".02em" style="fill:#000000;stroke-width:1.5847">Malte</text></svg>
