<svg width="300" height="300" data-name="Ebene 1" version="1.1" viewBox="0 0 300 300" xmlns="http://www.w3.org/2000/svg"><defs><style>.prefix__cls-1{fill:red}.prefix__cls-2,.prefix__cls-3{fill:#fff}.prefix__cls-3{stroke:red;stroke-miterlimit:10;stroke-width:.25px}</style></defs><path id="prefix__Higru_MRot_rounded" class="prefix__cls-1" d="m269.09 300h-238.18a31.002 31.002 0 0 1-30.908-30.908v-235.94a33.252 33.252 0 0 1 33.152-33.152h235.94a31.002 31.002 0 0 1 30.908 30.908v238.18a31.002 31.002 0 0 1-30.908 30.908z" style="fill:#f73429;stroke-width:.58594" data-name="Higru MRot rounded"/><path class="prefix__cls-2" d="m274.96 218.62a4.5 4.5 0 0 1 2.7246-0.41601c1.1367 0.15234 2.1387 0.73828 3.1934 1.1719 1.2129 0.52148 2.4727 0.9375 3.7148 1.4004a3.0938 3.0938 0 0 1 1.1719 0.69141c0.24023 0.35742 0.041 0.79687-0.0586 1.1719-0.36914 1.0312-0.90234 2.0098-1.3652 2.9941-4.377 8.9766-8.9414 17.871-13.6 26.701q-3.8672 7.2949-7.8926 14.502c-2.3438 4.1543-4.7226 8.2793-7.2539 12.305-1.4766 2.3438-2.9824 4.6406-4.6582 6.8262a19.113 19.113 0 0 1-2.5137 2.7715 2.373 2.373 0 0 1-1.0547 0.58594c-0.26367 0.0351-0.39257-0.22266-0.54492-0.36914-3.0352-3.2695-6.1348-6.4805-8.9648-9.9258a35.654 35.654 0 0 1-3.0117-4.1367 7.2012 7.2012 0 0 1-0.92578-2.1387c0.24023-0.32227 0.47461-0.65625 0.71484-0.97852l0.43946-0.58594q18.229-25.195 36.393-50.432c1.2715-0.46289 2.2441-1.5 3.4688-2.0918z" style="stroke-width:.58594"/><path class="prefix__cls-3" d="m49.857 188.28a53.127 53.127 0 0 1 5.707-0.19922 8.625 8.625 0 0 1 3.4043 0.80273 42.68 42.68 0 0 1 5.8594 3.0352 18.645 18.645 0 0 1 2.7129 1.9043c3.123 2.707 6.1699 5.5254 9.2344 8.3203 4.8164 4.4473 9.6562 8.8652 14.42 13.359a22.219 22.219 0 0 0-5.3262 2.666 6.252 6.252 0 0 0-2.5781 4.043c-0.33398 2.0215 0.1875 4.0664 0.85547 5.9648a12.064 12.064 0 0 0 1.4648 3.1641 16.465 16.465 0 0 0 3.6445 3.457 31.676 31.676 0 0 0 6.6504 3.6797 18.445 18.445 0 0 0 4.2422 1.2363c2.7949 0.28711 5.6016 0.36914 8.3906 0.52734 11.309 0.46289 22.629 0.76758 33.943 1.0664 4.8398 0.11719 9.668 0.25195 14.508 0.3457 2.5195 0.0937 5.0508 0.0703 7.5703 0.20508v-0.71484c-8.7598-0.20508-17.514-0.4043-26.273-0.64453-11.344-0.32227-22.682-0.58594-34.014-1.1719-1.5469-0.11719-3.0996-0.14062-4.6348-0.4043a24.422 24.422 0 0 1-5.7188-2.0918 27.229 27.229 0 0 1-6.0996-4.0547 9.4746 9.4746 0 0 1-2.3906-3.0996 19.98 19.98 0 0 1-1.5586-5.5781 5.8594 5.8594 0 0 1 0.9668-3.8965 8.8828 8.8828 0 0 1 3.293-2.584 41.73 41.73 0 0 1 8.7598-3.1641 40.184 40.184 0 0 1 9.1406-1.2949c1.7578 0 3.5156-0.11133 5.2734-0.11133 2.1797 0.88477 4.5644 1.0137 6.8848 1.1192 1.3418 0 2.6719 0 4.0195-0.0703a139.8 139.8 0 0 0 20.9 0.0352 82.178 82.178 0 0 0 16.131-2.7363 45.34 45.34 0 0 0 6.2285-2.2793c6.2637-2.7598 12.51-5.5898 18.902-8.0391a78.328 78.328 0 0 1 16.084-4.2891 93.094 93.094 0 0 1 19.775-1.0254c8.25 0.5039 16.523 2.2734 23.93 6.0059a70.928 70.928 0 0 1 6.9082 4.1016 129.63 129.63 0 0 1 12.053 8.5957 45.199 45.199 0 0 1 4.5996 4.3887q-17.145 23.818-34.354 47.637a138.83 138.83 0 0 0-15.398-4.2539 28.799 28.799 0 0 0-6.252-0.69727 17.531 17.531 0 0 0-3.2461 0.61524c-5.4434 1.377-10.852 2.9004-16.254 4.4121-10.781 3.0293-21.539 6.1348-32.32 9.1758-2.6191 0.72656-5.2324 1.4766-7.875 2.1387-3.3281 0.76172-6.7383 1.3594-10.16 1.1191a12.082 12.082 0 0 1-5.6602-1.6992c-2.7012-1.6875-5.3144-3.5156-7.9277-5.3262-7.8516-5.4785-15.586-11.104-23.279-16.799-4.2598-3.1641-8.502-6.334-12.697-9.5801-3.5156-2.7129-7.002-5.4082-10.342-8.3144a49.723 49.723 0 0 1-5.1621-5.4902c-4.8164-5.6954-9.4395-11.531-13.992-17.414a492.27 492.27 0 0 1-9.1699-12.229c-1.9043-2.666-3.8086-5.3379-5.4961-8.1562a11.221 11.221 0 0 1-1.2598-2.6836 9.375 9.375 0 0 1 2.9824-3.0293z" style="stroke:#f73429"/><path class="prefix__cls-3" d="m78.129 183.93a8.2617 8.2617 0 0 1 3.1055 0.2168c0.89062 0.22265 1.5703 0.90234 2.2676 1.459 3.4512 2.9297 6.6973 6.0762 9.9609 9.1934 2.4258 2.2793 4.7988 4.623 7.2891 6.8379a43.025 43.025 0 0 1 4.7754 4.752c1.7578 1.9629 3.4395 3.9609 5.1152 5.9824-1.4531 0-2.9297 0.10547-4.3418 0.0352-3.6738-3.6855-7.4062-7.3125-11.08-10.986-4.9453-4.9922-9.8906-9.9609-14.777-15.029-0.77344-0.82031-1.5703-1.6172-2.3438-2.4609zm-13.74-3.0293a13.529 13.529 0 0 1 4.2188-1.2012 4.3066 4.3066 0 0 1 2.1504 0.48633 41.291 41.291 0 0 1 5.6484 3.2578 6.3164 6.3164 0 0 1 0.87891 0.63282c2.6777 2.8418 5.4082 5.6074 8.1328 8.3906 3.709 3.7559 7.418 7.5293 11.133 11.273 2.9297 2.9297 5.9121 5.8125 8.8359 8.748a38.971 38.971 0 0 0-6.2168 0.73829c-1.4531-1.1719-2.7832-2.5195-4.1719-3.7793-6.3281-5.959-12.592-11.965-18.92-17.906-2.959-2.7949-5.9414-5.5781-8.9707-8.2969-0.9082-0.80859-1.7988-1.6055-2.7363-2.3438zm-14.162-1.3535a4.5762 4.5762 0 0 1 3.0938-1.2363 14.209 14.209 0 0 1 3.6855 0.48633 39.258 39.258 0 0 1 6.1465 2.1621 7.248 7.248 0 0 1 1.6641 1.2012c3.1992 2.748 6.2637 5.6484 9.375 8.5254 6.5273 6.123 12.979 12.305 19.494 18.463 1.5352 1.4356 3.0586 2.8887 4.6289 4.2773a51.416 51.416 0 0 0-6.3867 1.7988q-9.2051-8.6133-18.51-17.098c-1.7988-1.6289-3.5918-3.2695-5.4316-4.8516a24.961 24.961 0 0 0-3.6504-2.4726 39.568 39.568 0 0 0-5.4902-2.7129 10.547 10.547 0 0 0-2.5957-0.67383c-2.0566-0.0586-4.1016 0-6.1582 0.15234-0.25195-1.5586-0.48633-3.123-0.73828-4.6875a3.7793 3.7793 0 0 1 0.90234-3.3398z" style="stroke:#f73429"/><path d="m53.156 177.62h0.85547c3.3867 0.26368 6.6094 1.4766 9.6973 2.8184a15.082 15.082 0 0 1 4.8984-1.4414 5.666 5.666 0 0 1 2.8652 0.73828 48.34 48.34 0 0 1 6.041 3.6035 8.5605 8.5605 0 0 1 4.5293 0.34571 12.234 12.234 0 0 1 2.2324 1.6406c5.5195 4.7754 10.652 9.9609 16.014 14.918 0.95508 0.89063 1.998 1.6758 2.9297 2.6074 2.9766 3.0176 5.6719 6.2871 8.3848 9.5215a8.373 8.373 0 0 0 2.3438 0.67383 38.426 38.426 0 0 0 8.3672 0.33398c2.8301 0.22852 5.6836 0.35742 8.5254 0.4043 0.9961-0.0703 1.998 0.082 2.9941 0a106.16 106.16 0 0 0 19.031-1.6289 59.338 59.338 0 0 0 8.8242-2.291c1.8164-0.62109 3.5684-1.4414 5.3262-2.2148 5.8945-2.5898 11.771-5.2441 17.795-7.5a78.697 78.697 0 0 1 16.406-4.1953 92.168 92.168 0 0 1 20.01-0.82031c8.4902 0.58593 16.992 2.5898 24.504 6.6562 2.1973 1.1719 4.2656 2.5781 6.3691 3.9199a119.23 119.23 0 0 1 11.994 8.6719 49.764 49.764 0 0 1 4.043 3.8965c0.32226-0.42774-0.31641 0.42773 0 0 1.1309 0.80859 3.1992 0.99023 4.3184 1.1719a10.453 10.453 0 0 1 3.1758-1.793 6.041 6.041 0 0 1 4.0606 0.43946c1.7578 0.82031 3.5684 1.4473 5.3672 2.1152 0.61524 0.24609 1.3418 0.58594 1.5293 1.3066v0.70313a16.576 16.576 0 0 1-1.3301 3.2695c-4.4941 9.2344-9.1875 18.375-13.992 27.463-4.6641 8.6484-9.3516 17.291-14.52 25.658a87.205 87.205 0 0 1-5.9648 8.6894 13.588 13.588 0 0 1-2.1621 2.1797 2.1328 2.1328 0 0 1-1.4766 0.50977c-0.4043-0.0586-0.65039-0.41602-0.91406-0.69141-3.3984-3.6621-6.8848-7.248-9.9609-11.186a19.043 19.043 0 0 1-2.8652-4.6465c-0.63281 0.87891 0.63868-0.87305 0 0q-1.6582-1.248-3.3164-2.4609c1.5938-2.168 1.248-1.7578 2.8535-3.9141a133.69 133.69 0 0 0-15.943-4.3652 23.572 23.572 0 0 0-5.6602-0.50977 35.613 35.613 0 0 0-3.6504 0.80859c-5.1973 1.3301-10.354 2.7949-15.516 4.2305-11.385 3.1992-22.764 6.4922-34.154 9.6914-2.748 0.75-5.4902 1.582-8.2969 2.0918a28.711 28.711 0 0 1-8.9766 0.50976 11.842 11.842 0 0 1-4.8281-1.6289c-3.0762-1.9102-6.0527-4.0137-9.0234-6.082q-11.268-7.916-22.324-16.137-6.1875-4.5762-12.305-9.2578c-3.6387-2.8184-7.2891-5.625-10.758-8.6309a51.885 51.885 0 0 1-5.3848-5.7305c-4.5703-5.3965-8.9648-10.939-13.295-16.512-3.1523-4.1016-6.2637-8.2031-9.2871-12.369-1.541-2.1387-3.0645-4.2891-4.5176-6.4863a41.197 41.197 0 0 1-2.3438-3.9961 4.6875 4.6875 0 0 1-0.45117-1.2598v-0.31055a9.4922 9.4922 0 0 1 3.1816-3.375c-0.24609-1.6172-0.50977-3.2461-0.76172-4.8633a4.4297 4.4297 0 0 1 1.1309-3.8379 4.9629 4.9629 0 0 1 3.3926-1.4531m-2.9297 1.9277a3.8262 3.8262 0 0 0-0.92578 3.3281c0.25195 1.5586 0.48633 3.123 0.73828 4.6875 2.0449-0.14062 4.1016-0.21093 6.1582-0.15234a10.436 10.436 0 0 1 2.6133 0.67969 38.93 38.93 0 0 1 5.4727 2.707 24.352 24.352 0 0 1 3.6504 2.4727c1.8398 1.582 3.6328 3.2226 5.4316 4.8516q9.3047 8.4902 18.51 17.098a53.742 53.742 0 0 1 6.3809-1.7988c-1.5645-1.3887-3.0996-2.8418-4.623-4.2774-6.5156-6.1465-12.967-12.34-19.494-18.463-3.0938-2.877-6.1465-5.7773-9.375-8.5254a7.6172 7.6172 0 0 0-1.6641-1.2012 40.049 40.049 0 0 0-6.1465-2.1621 14.801 14.801 0 0 0-3.6855-0.48633 4.5703 4.5703 0 0 0-3.0703 1.248m14.162 1.3535c0.9375 0.73829 1.8281 1.5352 2.7246 2.3438 3.0293 2.7188 6 5.502 8.9707 8.2969 6.3281 5.9414 12.592 11.959 18.914 17.906 1.3828 1.2715 2.7246 2.6016 4.1777 3.7793a38.971 38.971 0 0 1 6.2168-0.73829c-2.9297-2.9297-5.8887-5.8594-8.8359-8.748-3.7324-3.7324-7.4414-7.5059-11.133-11.273-2.7246-2.7949-5.4551-5.5606-8.1328-8.3906a6.3164 6.3164 0 0 0-0.87891-0.63282 41.291 41.291 0 0 0-5.6484-3.2578 4.3066 4.3066 0 0 0-2.1504-0.48633 13.898 13.898 0 0 0-4.207 1.2129m13.74 3.0293c0.75 0.84375 1.5586 1.6406 2.3438 2.4609 4.8867 5.0566 9.832 10.049 14.777 15.029 3.6738 3.6856 7.4062 7.3125 11.08 10.986 1.4414 0.0703 2.8887-0.0586 4.3418-0.0351q-2.4961-3.0352-5.1152-5.9824a39.756 39.756 0 0 0-4.7754-4.752c-2.4902-2.2148-4.8633-4.5586-7.2891-6.8379-3.2812-3.1055-6.5273-6.2637-9.9609-9.1934-0.70898-0.54492-1.377-1.2363-2.2676-1.459a8.4902 8.4902 0 0 0-3.1055-0.2168m-28.271 4.3535a10.137 10.137 0 0 0-3.0117 2.9883 11.221 11.221 0 0 0 1.2363 2.6602c1.6875 2.8066 3.5918 5.4785 5.4961 8.1562 2.9707 4.1367 6.0469 8.2031 9.1641 12.246 4.5527 5.8945 9.1875 11.719 13.992 17.414a50.859 50.859 0 0 0 5.1621 5.4902c3.3398 2.9004 6.832 5.6133 10.342 8.3145q6.293 4.8516 12.697 9.5801c7.6934 5.6953 15.428 11.32 23.273 16.799 2.6191 1.8047 5.2324 3.6387 7.9336 5.3262a11.953 11.953 0 0 0 5.6602 1.6992c3.4219 0.22852 6.832-0.35742 10.16-1.1191 2.6426-0.66211 5.2734-1.4121 7.875-2.1387 10.781-3.041 21.539-6.1465 32.32-9.1758 5.4141-1.5117 10.811-3.0469 16.254-4.4121a19.119 19.119 0 0 1 3.2461-0.62109 29.174 29.174 0 0 1 6.252 0.70312 138.83 138.83 0 0 1 15.398 4.2949q17.209-23.807 34.354-47.637a45.199 45.199 0 0 0-4.5996-4.3887 127.03 127.03 0 0 0-12.053-8.5957 72.352 72.352 0 0 0-6.9082-4.1016c-7.4121-3.7324-15.691-5.4902-23.93-6.0234a92.332 92.332 0 0 0-19.775 1.0254 78.516 78.516 0 0 0-16.084 4.2891c-6.3926 2.4492-12.639 5.2734-18.902 8.0391a45.756 45.756 0 0 1-6.2285 2.2793 82.178 82.178 0 0 1-16.131 2.7363 139.8 139.8 0 0 1-20.9-0.0352c-1.3359 0.0937-2.6777 0.0703-4.0195 0.0703-2.3438-0.10547-4.6875-0.23438-6.8848-1.1191-1.7578 0-3.5156 0.0879-5.2734 0.11132a40.846 40.846 0 0 0-9.1406 1.2949 41.602 41.602 0 0 0-8.748 3.123 8.7891 8.7891 0 0 0-3.293 2.584 6 6 0 0 0-0.9668 3.8965 19.482 19.482 0 0 0 1.5586 5.5781 9.2051 9.2051 0 0 0 2.3906 3.0996 27.357 27.357 0 0 0 6.0996 4.0547 24.609 24.609 0 0 0 5.7188 2.0918c1.5293 0.26367 3.0879 0.28711 4.6348 0.4043 11.332 0.58593 22.67 0.84375 34.014 1.1719q13.137 0.33985 26.273 0.64453v0.70899c-2.5195-0.12891-5.0508-0.10547-7.5762-0.19922-4.834-0.0937-9.6621-0.22852-14.502-0.3457-11.314-0.29883-22.623-0.58594-33.943-1.0664-2.8008-0.14648-5.6074-0.22852-8.3906-0.52734a18.615 18.615 0 0 1-4.2422-1.2363 32.062 32.062 0 0 1-6.6504-3.6504 16.465 16.465 0 0 1-3.6445-3.457 12.24 12.24 0 0 1-1.4648-3.1641c-0.66797-1.8984-1.1719-3.9434-0.85547-5.9648a6.1875 6.1875 0 0 1 2.5781-4.043 22.441 22.441 0 0 1 5.3262-2.666c-4.7637-4.4942-9.6035-8.9238-14.42-13.359-3.0527-2.7949-6.0996-5.6133-9.2402-8.3262a19.014 19.014 0 0 0-2.707-1.8984 41.396 41.396 0 0 0-5.8594-3.0352 9.1172 9.1172 0 0 0-3.4043-0.80859c-1.875 0-3.791 0.0527-5.6836 0.22852m225.1 30.34c-1.2246 0.58594-2.1973 1.6289-3.5156 2.1035q-18.193 25.195-36.393 50.432a0.49805 0.49805 0 0 1-0.43946 0.58593c-0.24023 0.32227-0.47461 0.65625-0.71484 0.97852a6.9492 6.9492 0 0 0 0.92578 2.1387 37.084 37.084 0 0 0 3.0117 4.1367c2.8301 3.4512 5.9297 6.6562 8.959 9.9258 0.15821 0.14649 0.28711 0.4043 0.55079 0.36914a2.4961 2.4961 0 0 0 1.0547-0.58594 18.75 18.75 0 0 0 2.5078-2.7715c1.6816-2.1856 3.1875-4.4941 4.6875-6.8262 2.5312-4.0254 4.9102-8.1504 7.2539-12.305q4.0254-7.1953 7.8926-14.502c4.6582-8.8301 9.2227-17.725 13.6-26.701 0.46289-0.9961 0.98437-1.9629 1.3652-2.9941 0.0937-0.36915 0.29883-0.8086 0.0586-1.1719a3.0352 3.0352 0 0 0-1.2012-0.69141c-1.2363-0.46289-2.4961-0.89062-3.709-1.4004a13.266 13.266 0 0 0-3.1934-1.1719 4.3594 4.3594 0 0 0-2.7012 0.4043z" fill="#f00" stroke="#f00" stroke-miterlimit="10" stroke-width=".25" style="fill:#f73429;stroke:#f73429"/><g id="prefix__Wappen" transform="matrix(.58594 0 0 .58594 .58594 0)"><path class="prefix__cls-1" d="m401.25 26.54v140.28c0 86.26-63.17 157.24-141.53 172.54-78.34-15.3-141.53-86.28-141.53-172.54v-140.28z" style="fill:#f73429"/><path class="prefix__cls-2" d="m393.24 34v132.8a167.78 167.78 0 0 1-39.49 107.72c-24.49 29.13-57.82 49.17-94 56.61-36.17-7.44-69.52-27.48-94-56.61a167.74 167.74 0 0 1-39.5-107.72v-132.8z"/><path class="prefix__cls-1" d="m384.84 41.67v125.15a159.43 159.43 0 0 1-37.53 102.33c-22.84 27.16-53.89 46.05-87.59 53.39-33.72-7.34-64.72-26.23-87.6-53.39a159.43 159.43 0 0 1-37.53-102.33v-125.15z" style="fill:#f73429"/><path class="prefix__cls-2" d="m165.35 128.37 94.37 39.16-94.37 39.03 39.14-39.09zm55.23 133.55 39.14-94.39 39.05 94.39-39.12-39.14zm133.53-55.25-94.39-39.14 94.39-39.06-39.14 39.14z"/><path class="prefix__cls-2" d="m298.88 73.14-39.16 94.39-39.04-94.39 39.12 39.14z"/></g></svg>
