<svg width="717.5" height="174.04" data-name="Ebene 1" version="1.1" xmlns="http://www.w3.org/2000/svg"><defs><linearGradient id="prefix__id0-8-7" x1="3522.5" x2="1519.1" y1="3493.4" y2="1490" gradientTransform="scale(.0378)" gradientUnits="userSpaceOnUse"><stop stop-color="#ffda00" offset="0"/><stop stop-color="#e5a100" offset="1"/></linearGradient><style>.prefix__cls-2{fill:#1d1d1b}</style></defs><g fill="#fff" style="fill:#fff"><path class="prefix__cls-2" transform="translate(-67.72,-153.51)" d="m276.57 303.43a11.53 11.53 0 0 1-8.75 4.18 11 11 0 0 1-5.08-1.19 13.4 13.4 0 0 1-4-3.15 14.83 14.83 0 0 1-2.67-4.43 13.94 13.94 0 0 1-1-5.08 14.67 14.67 0 0 1 0.94-5.22 14 14 0 0 1 2.63-4.39 12.9 12.9 0 0 1 4-3 11.24 11.24 0 0 1 5-1.13 14.12 14.12 0 0 1 3.64 0.44 11.1 11.1 0 0 1 2.94 1.23 9.35 9.35 0 0 1 2.23 1.88 11.68 11.68 0 0 1 1.59 2.4l-2.04 1.34a8.82 8.82 0 0 0-3.49-3.72 9.9 9.9 0 0 0-4.87-1.19 8.64 8.64 0 0 0-4.09 1 9.84 9.84 0 0 0-3.11 2.55 11.67 11.67 0 0 0-2 3.64 13.21 13.21 0 0 0-0.69 4.24 12.2 12.2 0 0 0 0.79 4.37 11.59 11.59 0 0 0 2.17 3.63 10.59 10.59 0 0 0 3.24 2.47 9 9 0 0 0 4 0.92 9.66 9.66 0 0 0 4.47-1.09 13.25 13.25 0 0 0 4.09-3.47v-4.56h-6.01v-2.1h8.33v13.39h-2.26v-4z" style="fill:#fff"/><path class="prefix__cls-2" transform="translate(-67.72,-153.51)" d="m294.25 289.73a8.2 8.2 0 0 0-4.6 1.46 7.35 7.35 0 0 0-2.76 3.8v12.43h-2.61v-20h2.46v4.8a9.09 9.09 0 0 1 3-3.61 6.94 6.94 0 0 1 4-1.3 2.69 2.69 0 0 1 0.5 0v2.38z" style="fill:#fff"/><path class="prefix__cls-2" transform="translate(-67.72,-153.51)" d="m305.61 307.8a9.61 9.61 0 0 1-4-0.83 9.8 9.8 0 0 1-3.17-2.26 10.49 10.49 0 0 1-2.09-3.32 10.79 10.79 0 0 1-0.75-4 10.55 10.55 0 0 1 0.75-4 10.29 10.29 0 0 1 2.07-3.26 9.84 9.84 0 0 1 3.17-2.23 10.1 10.1 0 0 1 8 0 9.55 9.55 0 0 1 3.13 2.24 10.54 10.54 0 0 1 2.76 7.17v0.61a1.55 1.55 0 0 1 0 0.42h-17.16a8.41 8.41 0 0 0 0.75 3 8.14 8.14 0 0 0 1.63 2.36 7.27 7.27 0 0 0 2.28 1.55 6.83 6.83 0 0 0 2.74 0.56 7.06 7.06 0 0 0 1.92-0.27 7.77 7.77 0 0 0 1.76-0.73 6.6 6.6 0 0 0 1.46-1.13 4.85 4.85 0 0 0 1-1.48l2.26 0.61a6.65 6.65 0 0 1-1.3 2 9.09 9.09 0 0 1-2 1.57 9.6 9.6 0 0 1-2.46 1 10.68 10.68 0 0 1-2.75 0.42zm7.39-11.43a8 8 0 0 0-2.36-5.22 7.14 7.14 0 0 0-2.26-1.5 7 7 0 0 0-2.74-0.54 7.18 7.18 0 0 0-2.76 0.54 7.08 7.08 0 0 0-2.28 1.5 7.35 7.35 0 0 0-1.57 2.3 8.7 8.7 0 0 0-0.71 2.92z" style="fill:#fff"/><path class="prefix__cls-2" transform="translate(-67.72,-153.51)" d="m324.6 307.8a7.07 7.07 0 0 1-2.63-0.48 6.61 6.61 0 0 1-2.11-1.32 6 6 0 0 1-1.9-4.41 4.92 4.92 0 0 1 0.61-2.42 5.84 5.84 0 0 1 1.73-1.92 8.45 8.45 0 0 1 2.65-1.25 12.21 12.21 0 0 1 3.38-0.44 18.48 18.48 0 0 1 3.11 0.27 13.52 13.52 0 0 1 2.8 0.77v-1.8a5.8 5.8 0 0 0-1.5-4.2 5.48 5.48 0 0 0-4.14-1.55 8.81 8.81 0 0 0-3.15 0.61 15.16 15.16 0 0 0-3.26 1.76l-0.92-1.73a13.5 13.5 0 0 1 7.52-2.61 8.07 8.07 0 0 1 5.91 2.11 7.8 7.8 0 0 1 2.15 5.83v9a0.9 0.9 0 0 0 1 1.07v2.3a6.17 6.17 0 0 1-1 0.12 2.24 2.24 0 0 1-1.55-0.5 1.87 1.87 0 0 1-0.59-1.38l-0.08-1.57a9.06 9.06 0 0 1-3.47 2.76 10.69 10.69 0 0 1-4.56 0.98zm0.61-2a9 9 0 0 0 3.79-0.8 6.11 6.11 0 0 0 2.59-2 2.4 2.4 0 0 0 0.52-0.75 1.91 1.91 0 0 0 0.17-0.75v-3.26a16 16 0 0 0-2.7-0.77 15.18 15.18 0 0 0-2.86-0.27 8 8 0 0 0-4.49 1.15 3.5 3.5 0 0 0-1.73 3 4.14 4.14 0 0 0 0.36 1.73 4.38 4.38 0 0 0 1 1.4 4.65 4.65 0 0 0 1.52 0.94 5.1 5.1 0 0 0 1.83 0.39z" style="fill:#fff"/><path class="prefix__cls-2" transform="translate(-67.72,-153.51)" d="m349.69 306.46-0.67 0.31c-0.29 0.13-0.63 0.26-1 0.38a12 12 0 0 1-1.3 0.35 7.49 7.49 0 0 1-1.53 0.15 5.58 5.58 0 0 1-1.61-0.23 3.75 3.75 0 0 1-1.34-0.71 3.49 3.49 0 0 1-0.92-1.21 3.9 3.9 0 0 1-0.35-1.69v-14.31h-2.76v-2.07h2.76v-6.75h2.61v6.75h4.6v2.07h-4.6v13.58a2.07 2.07 0 0 0 0.79 1.63 2.69 2.69 0 0 0 1.63 0.52 4.9 4.9 0 0 0 2-0.36 8.59 8.59 0 0 0 1.07-0.52z" style="fill:#fff"/><path class="prefix__cls-2" transform="translate(-67.72,-153.51)" d="m363.27 307.42v-27.24h2.73v27.24h-2.69z" style="fill:#fff"/><path class="prefix__cls-2" transform="translate(-67.72,-153.51)" d="m389 307.42h-2.61v-11.17a9.74 9.74 0 0 0-1.06-5.18 3.6 3.6 0 0 0-3.24-1.61 6.65 6.65 0 0 0-2.3 0.42 7.78 7.78 0 0 0-2.13 1.19 9.1 9.1 0 0 0-1.66 1.83 7.14 7.14 0 0 0-1.11 2.28v12.24h-2.61v-20h2.38v4.58a9.39 9.39 0 0 1 3.51-3.53 9.63 9.63 0 0 1 5-1.34 5.89 5.89 0 0 1 2.8 0.61 4.78 4.78 0 0 1 1.84 1.73 8 8 0 0 1 1 2.72 19.12 19.12 0 0 1 0.31 3.57v11.7z" style="fill:#fff"/><path class="prefix__cls-2" transform="translate(-67.72,-153.51)" d="m403.82 306.46-0.67 0.31c-0.29 0.13-0.63 0.26-1 0.38a12 12 0 0 1-1.3 0.35 7.49 7.49 0 0 1-1.53 0.15 5.58 5.58 0 0 1-1.61-0.23 3.75 3.75 0 0 1-1.34-0.71 3.49 3.49 0 0 1-0.92-1.21 3.9 3.9 0 0 1-0.35-1.69v-14.31h-2.76v-2.07h2.76v-6.75h2.61v6.75h4.6v2.07h-4.6v13.58a2.07 2.07 0 0 0 0.79 1.63 2.69 2.69 0 0 0 1.63 0.52 4.9 4.9 0 0 0 2-0.36 8.59 8.59 0 0 0 1.07-0.52z" style="fill:#fff"/><path class="prefix__cls-2" transform="translate(-67.72,-153.51)" d="m415.14 307.8a9.61 9.61 0 0 1-4-0.83 9.8 9.8 0 0 1-3.17-2.26 10.49 10.49 0 0 1-2.09-3.32 10.79 10.79 0 0 1-0.75-4 10.55 10.55 0 0 1 0.75-4 10.29 10.29 0 0 1 2.07-3.26 9.84 9.84 0 0 1 3.17-2.23 10.1 10.1 0 0 1 8 0 9.55 9.55 0 0 1 3.13 2.24 10.53 10.53 0 0 1 2.76 7.17v0.61a1.54 1.54 0 0 1 0 0.42h-17.16a8.41 8.41 0 0 0 0.75 3 8.14 8.14 0 0 0 1.63 2.36 7.27 7.27 0 0 0 2.28 1.55 6.83 6.83 0 0 0 2.74 0.56 7.06 7.06 0 0 0 1.92-0.27 7.77 7.77 0 0 0 1.76-0.73 6.6 6.6 0 0 0 1.46-1.13 4.85 4.85 0 0 0 1-1.48l2.26 0.61a6.65 6.65 0 0 1-1.3 2 9.09 9.09 0 0 1-2 1.57 9.6 9.6 0 0 1-2.46 1 10.68 10.68 0 0 1-2.75 0.42zm7.37-11.43a8 8 0 0 0-2.36-5.22 7.14 7.14 0 0 0-2.26-1.5 7 7 0 0 0-2.74-0.54 7.18 7.18 0 0 0-2.76 0.54 7.08 7.08 0 0 0-2.28 1.5 7.35 7.35 0 0 0-1.57 2.3 8.7 8.7 0 0 0-0.71 2.92h14.67z" style="fill:#fff"/><path class="prefix__cls-2" transform="translate(-67.72,-153.51)" d="m437.35 307.69a8.26 8.26 0 0 1-3.78-0.86 9.74 9.74 0 0 1-3-2.28 10.45 10.45 0 0 1-1.94-3.26 10.72 10.72 0 0 1-0.69-3.8 11.81 11.81 0 0 1 0.67-4 10.2 10.2 0 0 1 1.9-3.32 9.26 9.26 0 0 1 2.93-2.26 8.41 8.41 0 0 1 3.78-0.84 7.7 7.7 0 0 1 4.45 1.29 12.34 12.34 0 0 1 3.22 3.24v-4.18h2.34v20.08a8.18 8.18 0 0 1-0.79 3.66 7.88 7.88 0 0 1-2.11 2.67 9 9 0 0 1-3.11 1.61 13.07 13.07 0 0 1-3.78 0.54 11 11 0 0 1-5.56-1.23 9.81 9.81 0 0 1-3.42-3.3l1.61-1.27a7.19 7.19 0 0 0 3.15 2.82 10 10 0 0 0 4.22 0.9 9.32 9.32 0 0 0 2.76-0.4 6.83 6.83 0 0 0 2.28-1.19 5.61 5.61 0 0 0 1.55-2 6.49 6.49 0 0 0 0.58-2.82v-4a8.33 8.33 0 0 1-3.15 3 8.46 8.46 0 0 1-4.11 1.2zm0.73-2.19a6.34 6.34 0 0 0 2.26-0.42 7.57 7.57 0 0 0 2-1.13 7.45 7.45 0 0 0 1.52-1.59 4.94 4.94 0 0 0 0.81-1.8v-6.18a7.84 7.84 0 0 0-1.15-2 8 8 0 0 0-1.65-1.57 8.37 8.37 0 0 0-2-1 6.21 6.21 0 0 0-2.13-0.38 6.28 6.28 0 0 0-3 0.71 7.22 7.22 0 0 0-2.24 1.86 8.28 8.28 0 0 0-1.4 2.61 9.38 9.38 0 0 0-0.48 3 8.3 8.3 0 0 0 0.58 3.07 8 8 0 0 0 1.59 2.55 7.65 7.65 0 0 0 2.36 1.73 6.75 6.75 0 0 0 2.93 0.54z" style="fill:#fff"/><path class="prefix__cls-2" transform="translate(-67.72,-153.51)" d="m463 289.73a8.21 8.21 0 0 0-4.6 1.46 7.35 7.35 0 0 0-2.76 3.8v12.43h-2.64v-20h2.46v4.8a9.08 9.08 0 0 1 3-3.61 6.94 6.94 0 0 1 4-1.3 2.71 2.71 0 0 1 0.5 0v2.38z" style="fill:#fff"/><path class="prefix__cls-2" transform="translate(-67.72,-153.51)" d="m471.57 307.8a7.07 7.07 0 0 1-2.63-0.48 6.61 6.61 0 0 1-2.11-1.32 6 6 0 0 1-1.9-4.41 4.93 4.93 0 0 1 0.61-2.42 5.85 5.85 0 0 1 1.73-1.92 8.45 8.45 0 0 1 2.65-1.25 12.21 12.21 0 0 1 3.38-0.44 18.48 18.48 0 0 1 3.11 0.27 13.54 13.54 0 0 1 2.8 0.77v-1.8a5.8 5.8 0 0 0-1.5-4.2 5.48 5.48 0 0 0-4.14-1.55 8.81 8.81 0 0 0-3.15 0.61 15.17 15.17 0 0 0-3.26 1.76l-0.92-1.73a13.5 13.5 0 0 1 7.52-2.61 8.07 8.07 0 0 1 5.91 2.11 7.8 7.8 0 0 1 2.15 5.83v9a0.9 0.9 0 0 0 1 1.07v2.3a6.19 6.19 0 0 1-1 0.12 2.24 2.24 0 0 1-1.55-0.5 1.87 1.87 0 0 1-0.59-1.38l-0.08-1.57a9.06 9.06 0 0 1-3.47 2.76 10.69 10.69 0 0 1-4.56 0.98zm0.61-2a9 9 0 0 0 3.74-0.77 6.1 6.1 0 0 0 2.59-2 2.39 2.39 0 0 0 0.52-0.75 1.91 1.91 0 0 0 0.17-0.75v-3.26a16 16 0 0 0-2.71-0.77 15.17 15.17 0 0 0-2.86-0.27 8 8 0 0 0-4.49 1.15 3.5 3.5 0 0 0-1.73 3 4.14 4.14 0 0 0 0.36 1.73 4.37 4.37 0 0 0 1 1.4 4.66 4.66 0 0 0 1.51 0.94 5.11 5.11 0 0 0 1.9 0.36z" style="fill:#fff"/><path class="prefix__cls-2" transform="translate(-67.72,-153.51)" d="m496.66 306.46-0.67 0.31c-0.29 0.13-0.63 0.26-1 0.38a12 12 0 0 1-1.3 0.35 7.49 7.49 0 0 1-1.54 0.15 5.58 5.58 0 0 1-1.61-0.23 3.75 3.75 0 0 1-1.34-0.71 3.49 3.49 0 0 1-0.92-1.21 3.91 3.91 0 0 1-0.34-1.69v-14.31h-2.76v-2.07h2.76v-6.75h2.61v6.75h4.6v2.07h-4.6v13.58a2.07 2.07 0 0 0 0.79 1.63 2.7 2.7 0 0 0 1.63 0.52 4.9 4.9 0 0 0 2-0.36 8.74 8.74 0 0 0 1.07-0.52z" style="fill:#fff"/><path class="prefix__cls-2" transform="translate(-67.72,-153.51)" d="m499.92 283.25v-3.84h2.61v3.84zm0 24.17v-20h2.61v20z" style="fill:#fff"/><path class="prefix__cls-2" transform="translate(-67.72,-153.51)" d="m516.92 307.8a9.48 9.48 0 0 1-4-0.83 9.81 9.81 0 0 1-3.13-2.24 10.18 10.18 0 0 1-2.05-3.3 10.82 10.82 0 0 1-0.73-4 10.69 10.69 0 0 1 0.75-4 10.46 10.46 0 0 1 2.07-3.3 10.06 10.06 0 0 1 3.13-2.26 9.21 9.21 0 0 1 4-0.84 9.34 9.34 0 0 1 4 0.84 10 10 0 0 1 3.15 2.26 10.46 10.46 0 0 1 2.07 3.3 10.71 10.71 0 0 1 0.75 4 10.84 10.84 0 0 1-0.73 4 10.19 10.19 0 0 1-2.05 3.3 9.75 9.75 0 0 1-3.15 2.24 9.61 9.61 0 0 1-4.08 0.83zm-7.25-10.28a8.34 8.34 0 0 0 0.58 3.13 8.48 8.48 0 0 0 1.55 2.53 7 7 0 0 0 2.3 1.71 6.62 6.62 0 0 0 2.82 0.61 6.45 6.45 0 0 0 2.82-0.63 7.51 7.51 0 0 0 2.32-1.73 8.23 8.23 0 0 0 1.57-2.55 8.84 8.84 0 0 0 0-6.27 8.18 8.18 0 0 0-1.57-2.57 7.48 7.48 0 0 0-2.32-1.73 6.45 6.45 0 0 0-2.82-0.63 6.33 6.33 0 0 0-2.8 0.63 7.42 7.42 0 0 0-2.3 1.75 8.41 8.41 0 0 0-1.57 2.59 8.64 8.64 0 0 0-0.58 3.16z" style="fill:#fff"/><path class="prefix__cls-2" transform="translate(-67.72,-153.51)" d="m548.07 307.42h-2.61v-11.17a9.74 9.74 0 0 0-1.05-5.18 3.61 3.61 0 0 0-3.24-1.61 6.65 6.65 0 0 0-2.3 0.42 7.76 7.76 0 0 0-2.13 1.19 9.12 9.12 0 0 0-1.74 1.83 7.15 7.15 0 0 0-1.11 2.28v12.24h-2.61v-20h2.38v4.58a9.39 9.39 0 0 1 3.51-3.53 9.63 9.63 0 0 1 5-1.34 5.89 5.89 0 0 1 2.8 0.61 4.78 4.78 0 0 1 1.84 1.73 8 8 0 0 1 1 2.72 19.17 19.17 0 0 1 0.31 3.57v11.7z" style="fill:#fff"/><path class="prefix__cls-2" transform="translate(-67.72,-153.51)" d="m553.52 307.42v-3.76h2.26v3.76z" style="fill:#fff"/><path class="prefix__cls-2" d="m402.65 32.91h-51.5v75.26h51.5a52.34 52.34 0 0 1-9.52-12.68h-26.85v-18.8h21a49 49 0 0 1 0.05-12.64h-21.05v-18.5h26.81a52.32 52.32 0 0 1 9.52-12.64" style="fill:#fff"/><path class="prefix__cls-2" d="m438.18 95.49a25 25 0 0 1 0-50 24.43 24.43 0 0 1 17.27 7.33l10.63-10.83a39.55 39.55 0 0 0-27.9-11.73c-21.81 0-39.53 18.05-39.53 40.28s17.71 40.16 39.53 40.16 39.41-18.05 39.41-40.16h-39.41v14.33h20a24.26 24.26 0 0 1-20 10.61" style="fill:#fff"/><path class="prefix__cls-2" d="m700.01 45.54h17.49v-12.63h-50.22v12.64h17.6v62.62h15.17v-62.63zm-52.45 37h-20.48l10.3-31.14zm4 12.64 4.21 13h16.6l-25.24-75.26h-18.94l-25.46 75.26h16.05l4.43-13h28.34zm-83.39-49.65h25.91v-12.62h-41.09v75.26h41.07v-12.68h-25.9v-18.8h21.39v-12.64h-21.39v-18.51zm-64.54 24.77v-24.64h8.19c7.53 0 12.18 5.13 12.18 12.35 0 7.56-4.87 12.31-13.51 12.31h-6.86zm0 8 20.26 29.9h18.39l-20.37-28.89c11.37-2.96 17.47-10.82 17.47-22.71 0-15.46-9.85-23.7-28.12-23.7h-22.81v75.26h15.17v-29.9z" style="fill:#fff"/><path class="prefix__cls-2" transform="translate(-67.72,-153.51)" d="m389.91 199.06h17.49v-12.64h-50.27v12.64h17.6v62.62h15.17v-62.62zm-90.1 15 31 47.61h14.84v-75.25h-15.18v46.93l-30.89-46.93h-14.94v75.25h15.16v-47.61zm-30-27.64h-15.13v75.26h15.17v-75.26z" style="fill:#fff"/></g><g clip-rule="evenodd" shape-rendering="geometricPrecision" stroke-width=".041" text-rendering="geometricPrecision"><path class="prefix__fil0" d="M27.17 0S0 0 0 27.17v119.616s0 27.17 27.17 27.17h119.616s27.17 0 27.17-27.17V27.17s0-27.17-27.17-27.17z" fill="#ffdb00" image-rendering="optimizeQuality"/><path class="prefix__fil1" d="m146.83 174h-54.71l-45.834-45.832-10.112-20.142-2.918-20.06 11.222-32.143 24.745-19.691 32.267-5.261 11.92 11.92 12.949 3.988 47.724 47.723v52.492c-0.041 20.799-16.031 25.608-23.471 26.718-2.179 0.329-3.617 0.329-3.7 0.329z" fill="url(#prefix__id0-8-7)" fill-rule="evenodd" image-rendering="optimizeQuality"/><path class="prefix__fil2" d="m116.04 71.482c8.015 0 14.51-6.495 14.51-14.51 0-8.016-6.495-14.51-14.51-14.51-8.016 0-14.51 6.494-14.51 14.51 0 8.015 6.494 14.51 14.51 14.51z" fill="#fff" image-rendering="optimizeQuality"/><path class="prefix__fil2" d="m101.49 30.87c-4.644-1.192-9.454-1.85-14.469-1.85-32.019 0-57.999 25.98-57.999 58s25.979 57.999 58 57.999c32.02 0 57.999-25.979 57.999-58h-58v20.306h31.734c-6.7 10.441-18.415 17.388-31.734 17.388-20.84 0-37.693-16.894-37.693-37.694 0-20.84 16.894-37.693 37.693-37.693h0.124c2.096-7.933 7.358-14.551 14.345-18.456z" fill="#fff" image-rendering="optimizeQuality"/></g></svg>
