<svg width="717.5" height="174.04" data-name="Ebene 1" version="1.1" xmlns="http://www.w3.org/2000/svg"><defs><linearGradient id="prefix__id0-8" x1="3522.5" x2="1519.1" y1="3493.4" y2="1490" gradientTransform="matrix(.03475 0 0 .03475 159.95 -252.68)" gradientUnits="userSpaceOnUse"><stop stop-color="#ffda00" offset="0"/><stop stop-color="#e5a100" offset="1"/></linearGradient><style>.prefix__cls-2{fill:#1d1d1b}</style></defs><path class="prefix__cls-2" transform="translate(-67.72 -153.51)" d="M276.57 303.43a11.53 11.53 0 01-8.75 4.18 11 11 0 01-5.08-1.19 13.4 13.4 0 01-4-3.15 14.83 14.83 0 01-2.67-4.43 13.94 13.94 0 01-1-5.08 14.67 14.67 0 01.94-5.22 14 14 0 012.63-4.39 12.9 12.9 0 014-3 11.24 11.24 0 015-1.13 14.12 14.12 0 013.64.44 11.1 11.1 0 012.94 1.23 9.35 9.35 0 012.23 1.88 11.68 11.68 0 011.59 2.4l-2.04 1.34a8.82 8.82 0 00-3.49-3.72 9.9 9.9 0 00-4.87-1.19 8.64 8.64 0 00-4.09 1 9.84 9.84 0 00-3.11 2.55 11.67 11.67 0 00-2 3.64 13.21 13.21 0 00-.69 4.24 12.2 12.2 0 00.79 4.37 11.59 11.59 0 002.17 3.63 10.59 10.59 0 003.24 2.47 9 9 0 004 .92 9.66 9.66 0 004.47-1.09 13.25 13.25 0 004.09-3.47v-4.56h-6.01V294h8.33v13.39h-2.26v-4z"/><path class="prefix__cls-2" transform="translate(-67.72 -153.51)" d="M294.25 289.73a8.2 8.2 0 00-4.6 1.46 7.35 7.35 0 00-2.76 3.8v12.43h-2.61v-20h2.46v4.8a9.09 9.09 0 013-3.61 6.94 6.94 0 014-1.3 2.69 2.69 0 01.5 0v2.38z"/><path class="prefix__cls-2" transform="translate(-67.72 -153.51)" d="M305.61 307.8a9.61 9.61 0 01-4-.83 9.8 9.8 0 01-3.17-2.26 10.49 10.49 0 01-2.09-3.32 10.79 10.79 0 01-.75-4 10.55 10.55 0 01.75-4 10.29 10.29 0 012.07-3.26 9.84 9.84 0 013.17-2.23 10.1 10.1 0 018 0 9.55 9.55 0 013.13 2.24 10.54 10.54 0 012.76 7.17v.61a1.55 1.55 0 010 .42h-17.16a8.41 8.41 0 00.75 3 8.14 8.14 0 001.63 2.36 7.27 7.27 0 002.28 1.55 6.83 6.83 0 002.74.56 7.06 7.06 0 001.92-.27 7.77 7.77 0 001.76-.73 6.6 6.6 0 001.46-1.13 4.85 4.85 0 001-1.48l2.26.61a6.65 6.65 0 01-1.3 2 9.09 9.09 0 01-2 1.57 9.6 9.6 0 01-2.46 1 10.68 10.68 0 01-2.75.42zm7.39-11.43a8 8 0 00-2.36-5.22 7.14 7.14 0 00-2.26-1.5 7 7 0 00-2.74-.54 7.18 7.18 0 00-2.76.54 7.08 7.08 0 00-2.28 1.5 7.35 7.35 0 00-1.57 2.3 8.7 8.7 0 00-.71 2.92z"/><path class="prefix__cls-2" transform="translate(-67.72 -153.51)" d="M324.6 307.8a7.07 7.07 0 01-2.63-.48 6.61 6.61 0 01-2.11-1.32 6 6 0 01-1.9-4.41 4.92 4.92 0 01.61-2.42 5.84 5.84 0 011.73-1.92 8.45 8.45 0 012.65-1.25 12.21 12.21 0 013.38-.44 18.48 18.48 0 013.11.27 13.52 13.52 0 012.8.77v-1.8a5.8 5.8 0 00-1.5-4.2 5.48 5.48 0 00-4.14-1.55 8.81 8.81 0 00-3.15.61 15.16 15.16 0 00-3.26 1.76l-.92-1.73a13.5 13.5 0 017.52-2.61 8.07 8.07 0 015.91 2.11 7.8 7.8 0 012.15 5.83v9a.9.9 0 001 1.07v2.3a6.17 6.17 0 01-1 .12 2.24 2.24 0 01-1.55-.5 1.87 1.87 0 01-.59-1.38l-.08-1.57a9.06 9.06 0 01-3.47 2.76 10.69 10.69 0 01-4.56.98zm.61-2a9 9 0 003.79-.8 6.11 6.11 0 002.59-2 2.4 2.4 0 00.52-.75 1.91 1.91 0 00.17-.75v-3.26a16 16 0 00-2.7-.77 15.18 15.18 0 00-2.86-.27 8 8 0 00-4.49 1.15 3.5 3.5 0 00-1.73 3 4.14 4.14 0 00.36 1.73 4.38 4.38 0 001 1.4 4.65 4.65 0 001.52.94 5.1 5.1 0 001.83.39z"/><path class="prefix__cls-2" transform="translate(-67.72 -153.51)" d="M349.69 306.46l-.67.31c-.29.13-.63.26-1 .38a12 12 0 01-1.3.35 7.49 7.49 0 01-1.53.15 5.58 5.58 0 01-1.61-.23 3.75 3.75 0 01-1.34-.71 3.49 3.49 0 01-.92-1.21 3.9 3.9 0 01-.35-1.69V289.5h-2.76v-2.07h2.76v-6.75h2.61v6.75h4.6v2.07h-4.6v13.58a2.07 2.07 0 00.79 1.63 2.69 2.69 0 001.63.52 4.9 4.9 0 002-.36 8.59 8.59 0 001.07-.52z"/><path class="prefix__cls-2" transform="translate(-67.72 -153.51)" d="M363.27 307.42v-27.24H366v27.24h-2.69z"/><path class="prefix__cls-2" transform="translate(-67.72 -153.51)" d="M389 307.42h-2.61v-11.17a9.74 9.74 0 00-1.06-5.18 3.6 3.6 0 00-3.24-1.61 6.65 6.65 0 00-2.3.42 7.78 7.78 0 00-2.13 1.19 9.1 9.1 0 00-1.66 1.83 7.14 7.14 0 00-1.11 2.28v12.24h-2.61v-20h2.38V292a9.39 9.39 0 013.51-3.53 9.63 9.63 0 015-1.34 5.89 5.89 0 012.8.61 4.78 4.78 0 011.84 1.73 8 8 0 011 2.72 19.12 19.12 0 01.31 3.57v11.7z"/><path class="prefix__cls-2" transform="translate(-67.72 -153.51)" d="M403.82 306.46l-.67.31c-.29.13-.63.26-1 .38a12 12 0 01-1.3.35 7.49 7.49 0 01-1.53.15 5.58 5.58 0 01-1.61-.23 3.75 3.75 0 01-1.34-.71 3.49 3.49 0 01-.92-1.21 3.9 3.9 0 01-.35-1.69V289.5h-2.76v-2.07h2.76v-6.75h2.61v6.75h4.6v2.07h-4.6v13.58a2.07 2.07 0 00.79 1.63 2.69 2.69 0 001.63.52 4.9 4.9 0 002-.36 8.59 8.59 0 001.07-.52z"/><path class="prefix__cls-2" transform="translate(-67.72 -153.51)" d="M415.14 307.8a9.61 9.61 0 01-4-.83 9.8 9.8 0 01-3.17-2.26 10.49 10.49 0 01-2.09-3.32 10.79 10.79 0 01-.75-4 10.55 10.55 0 01.75-4 10.29 10.29 0 012.07-3.26 9.84 9.84 0 013.17-2.23 10.1 10.1 0 018 0 9.55 9.55 0 013.13 2.24 10.53 10.53 0 012.76 7.17v.61a1.54 1.54 0 010 .42h-17.16a8.41 8.41 0 00.75 3 8.14 8.14 0 001.63 2.36 7.27 7.27 0 002.28 1.55 6.83 6.83 0 002.74.56 7.06 7.06 0 001.92-.27 7.77 7.77 0 001.76-.73 6.6 6.6 0 001.46-1.13 4.85 4.85 0 001-1.48l2.26.61a6.65 6.65 0 01-1.3 2 9.09 9.09 0 01-2 1.57 9.6 9.6 0 01-2.46 1 10.68 10.68 0 01-2.75.42zm7.37-11.43a8 8 0 00-2.36-5.22 7.14 7.14 0 00-2.26-1.5 7 7 0 00-2.74-.54 7.18 7.18 0 00-2.76.54 7.08 7.08 0 00-2.28 1.5 7.35 7.35 0 00-1.57 2.3 8.7 8.7 0 00-.71 2.92h14.67z"/><path class="prefix__cls-2" transform="translate(-67.72 -153.51)" d="M437.35 307.69a8.26 8.26 0 01-3.78-.86 9.74 9.74 0 01-3-2.28 10.45 10.45 0 01-1.94-3.26 10.72 10.72 0 01-.69-3.8 11.81 11.81 0 01.67-4 10.2 10.2 0 011.9-3.32 9.26 9.26 0 012.93-2.26 8.41 8.41 0 013.78-.84 7.7 7.7 0 014.45 1.29 12.34 12.34 0 013.22 3.24v-4.18h2.34v20.08a8.18 8.18 0 01-.79 3.66 7.88 7.88 0 01-2.11 2.67 9 9 0 01-3.11 1.61 13.07 13.07 0 01-3.78.54 11 11 0 01-5.56-1.23 9.81 9.81 0 01-3.42-3.3l1.61-1.27a7.19 7.19 0 003.15 2.82 10 10 0 004.22.9 9.32 9.32 0 002.76-.4 6.83 6.83 0 002.28-1.19 5.61 5.61 0 001.55-2 6.49 6.49 0 00.58-2.82v-4a8.33 8.33 0 01-3.15 3 8.46 8.46 0 01-4.11 1.2zm.73-2.19a6.34 6.34 0 002.26-.42 7.57 7.57 0 002-1.13 7.45 7.45 0 001.52-1.59 4.94 4.94 0 00.81-1.8v-6.18a7.84 7.84 0 00-1.15-2 8 8 0 00-1.65-1.57 8.37 8.37 0 00-2-1 6.21 6.21 0 00-2.13-.38 6.28 6.28 0 00-3 .71 7.22 7.22 0 00-2.24 1.86 8.28 8.28 0 00-1.4 2.61 9.38 9.38 0 00-.48 3 8.3 8.3 0 00.58 3.07 8 8 0 001.59 2.55 7.65 7.65 0 002.36 1.73 6.75 6.75 0 002.93.54z"/><path class="prefix__cls-2" transform="translate(-67.72 -153.51)" d="M463 289.73a8.21 8.21 0 00-4.6 1.46 7.35 7.35 0 00-2.76 3.8v12.43H453v-20h2.46v4.8a9.08 9.08 0 013-3.61 6.94 6.94 0 014-1.3 2.71 2.71 0 01.5 0v2.38z"/><path class="prefix__cls-2" transform="translate(-67.72 -153.51)" d="M471.57 307.8a7.07 7.07 0 01-2.63-.48 6.61 6.61 0 01-2.11-1.32 6 6 0 01-1.9-4.41 4.93 4.93 0 01.61-2.42 5.85 5.85 0 011.73-1.92 8.45 8.45 0 012.65-1.25 12.21 12.21 0 013.38-.44 18.48 18.48 0 013.11.27 13.54 13.54 0 012.8.77v-1.8a5.8 5.8 0 00-1.5-4.2 5.48 5.48 0 00-4.14-1.55 8.81 8.81 0 00-3.15.61 15.17 15.17 0 00-3.26 1.76l-.92-1.73a13.5 13.5 0 017.52-2.61 8.07 8.07 0 015.91 2.11 7.8 7.8 0 012.15 5.83v9a.9.9 0 001 1.07v2.3a6.19 6.19 0 01-1 .12 2.24 2.24 0 01-1.55-.5 1.87 1.87 0 01-.59-1.38l-.08-1.57a9.06 9.06 0 01-3.47 2.76 10.69 10.69 0 01-4.56.98zm.61-2a9 9 0 003.74-.77 6.1 6.1 0 002.59-2 2.39 2.39 0 00.52-.75 1.91 1.91 0 00.17-.75v-3.26a16 16 0 00-2.71-.77 15.17 15.17 0 00-2.86-.27 8 8 0 00-4.49 1.15 3.5 3.5 0 00-1.73 3 4.14 4.14 0 00.36 1.73 4.37 4.37 0 001 1.4 4.66 4.66 0 001.51.94 5.11 5.11 0 001.9.36z"/><path class="prefix__cls-2" transform="translate(-67.72 -153.51)" d="M496.66 306.46l-.67.31c-.29.13-.63.26-1 .38a12 12 0 01-1.3.35 7.49 7.49 0 01-1.54.15 5.58 5.58 0 01-1.61-.23 3.75 3.75 0 01-1.34-.71 3.49 3.49 0 01-.92-1.21 3.91 3.91 0 01-.34-1.69V289.5h-2.76v-2.07h2.76v-6.75h2.61v6.75h4.6v2.07h-4.6v13.58a2.07 2.07 0 00.79 1.63 2.7 2.7 0 001.63.52 4.9 4.9 0 002-.36 8.74 8.74 0 001.07-.52z"/><path class="prefix__cls-2" transform="translate(-67.72 -153.51)" d="m499.92 283.25v-3.84h2.61v3.84zm0 24.17v-20h2.61v20z"/><path class="prefix__cls-2" transform="translate(-67.72 -153.51)" d="M516.92 307.8a9.48 9.48 0 01-4-.83 9.81 9.81 0 01-3.13-2.24 10.18 10.18 0 01-2.05-3.3 10.82 10.82 0 01-.73-4 10.69 10.69 0 01.75-4 10.46 10.46 0 012.07-3.3 10.06 10.06 0 013.13-2.26 9.21 9.21 0 014-.84 9.34 9.34 0 014 .84 10 10 0 013.15 2.26 10.46 10.46 0 012.07 3.3 10.71 10.71 0 01.75 4 10.84 10.84 0 01-.73 4 10.19 10.19 0 01-2.05 3.3 9.75 9.75 0 01-3.15 2.24 9.61 9.61 0 01-4.08.83zm-7.25-10.28a8.34 8.34 0 00.58 3.13 8.48 8.48 0 001.55 2.53 7 7 0 002.3 1.71 6.62 6.62 0 002.82.61 6.45 6.45 0 002.82-.63 7.51 7.51 0 002.32-1.73 8.23 8.23 0 001.57-2.55 8.84 8.84 0 000-6.27 8.18 8.18 0 00-1.57-2.57 7.48 7.48 0 00-2.32-1.73 6.45 6.45 0 00-2.82-.63 6.33 6.33 0 00-2.8.63 7.42 7.42 0 00-2.3 1.75 8.41 8.41 0 00-1.57 2.59 8.64 8.64 0 00-.58 3.16z"/><path class="prefix__cls-2" transform="translate(-67.72 -153.51)" d="M548.07 307.42h-2.61v-11.17a9.74 9.74 0 00-1.05-5.18 3.61 3.61 0 00-3.24-1.61 6.65 6.65 0 00-2.3.42 7.76 7.76 0 00-2.13 1.19 9.12 9.12 0 00-1.74 1.83 7.15 7.15 0 00-1.11 2.28v12.24h-2.61v-20h2.38V292a9.39 9.39 0 013.51-3.53 9.63 9.63 0 015-1.34 5.89 5.89 0 012.8.61 4.78 4.78 0 011.84 1.73 8 8 0 011 2.72 19.17 19.17 0 01.31 3.57v11.7z"/><path class="prefix__cls-2" transform="translate(-67.72 -153.51)" d="m553.52 307.42v-3.76h2.26v3.76z"/><path class="prefix__cls-2" d="M402.65 32.91h-51.5v75.26h51.5a52.34 52.34 0 01-9.52-12.68h-26.85v-18.8h21a49 49 0 01.05-12.64h-21.05v-18.5h26.81a52.32 52.32 0 019.52-12.64"/><path class="prefix__cls-2" d="M438.18 95.49a25 25 0 010-50 24.43 24.43 0 0117.27 7.33l10.63-10.83a39.55 39.55 0 00-27.9-11.73c-21.81 0-39.53 18.05-39.53 40.28s17.71 40.16 39.53 40.16 39.41-18.05 39.41-40.16h-39.41v14.33h20a24.26 24.26 0 01-20 10.61"/><path class="prefix__cls-2" d="M700.01 45.54h17.49V32.91h-50.22v12.64h17.6v62.62h15.17V45.54zm-52.45 37h-20.48l10.3-31.14zm4 12.64l4.21 13h16.6l-25.24-75.26h-18.94l-25.46 75.26h16.05l4.43-13h28.34zm-83.39-49.65h25.91V32.91h-41.09v75.26h41.07V95.49h-25.9v-18.8h21.39V64.05h-21.39V45.54zM503.63 70.3V45.66h8.19c7.53 0 12.18 5.13 12.18 12.35 0 7.56-4.87 12.31-13.51 12.31h-6.86zm0 8l20.26 29.9h18.39l-20.37-28.89c11.37-2.96 17.47-10.82 17.47-22.71 0-15.46-9.85-23.7-28.12-23.7h-22.81v75.26h15.17v-29.9z"/><path class="prefix__cls-2" transform="translate(-67.72 -153.51)" d="m389.91 199.06h17.49v-12.64h-50.27v12.64h17.6v62.62h15.17v-62.62zm-90.1 15 31 47.61h14.84v-75.25h-15.18v46.93l-30.89-46.93h-14.94v75.25h15.16v-47.61zm-30-27.64h-15.13v75.26h15.17v-75.26z"/><g transform="matrix(1.0878 0 0 1.0878 -173.99 274.86)" clip-rule="evenodd" shape-rendering="geometricPrecision" stroke-width=".038" text-rendering="geometricPrecision"><path class="prefix__fil0" d="m184.93-252.68s-24.979 0-24.979 24.979v109.97s0 24.98 24.98 24.98h109.97s24.978 0 24.978-24.98v-109.97s0-24.979-24.978-24.979z" fill="#ffdb00" image-rendering="optimizeQuality"/><path class="prefix__fil1" d="m294.94-92.721h-50.297l-42.135-42.136-9.296-18.517-2.683-18.44 10.316-29.552 22.75-18.101 29.664-4.837 10.959 10.959 11.903 3.665 43.874 43.874v48.256c-0.038 19.122-14.738 23.543-21.578 24.563-2.003 0.303-3.325 0.303-3.401 0.303z" fill="url(#prefix__id0-8)" fill-rule="evenodd" image-rendering="optimizeQuality"/><path class="prefix__fil2" d="m266.63-186.97c7.37 0 13.34-5.971 13.34-13.34s-5.97-13.34-13.34-13.34c-7.369 0-13.34 5.971-13.34 13.34s5.971 13.34 13.34 13.34z" fill="#fff" image-rendering="optimizeQuality"/><path class="prefix__fil2" d="m253.25-224.3a53.245 53.245 0 0 0-13.302-1.7c-29.438 0-53.32 23.882-53.32 53.32s23.882 53.32 53.32 53.32 53.32-23.882 53.32-53.32h-53.32v18.668h29.173c-6.16 9.598-16.93 15.985-29.173 15.985-19.159 0-34.653-15.532-34.653-34.653 0-19.16 15.532-34.653 34.653-34.653h0.114c1.927-7.293 6.764-13.377 13.188-16.967z" fill="#fff" image-rendering="optimizeQuality"/></g></svg>
