<svg width="300" height="300" clip-rule="evenodd" fill-rule="evenodd" image-rendering="optimizeQuality" shape-rendering="geometricPrecision" text-rendering="geometricPrecision" version="1.1" viewBox="0 0 7937.4 7937.2" xml:space="preserve" xmlns="http://www.w3.org/2000/svg"><defs><style type="text/css">.prefix__fil0{fill:#ffdb00;fill-rule:nonzero}</style></defs><g transform="matrix(1.7514 0 0 1.7514 -22040 -14405)" fill="#1e293b"><path class="prefix__fil0" d="m15984 9885c313 0 566-254 566-566 0-313-254-566-566-566-313 0-566 254-566 566 0 313 254 566 566 566z" style="fill:#1e293b"/><path class="prefix__fil0" d="m15415 8297c-181-46-370-72-565-72-1251 0-2266 1014-2266 2266 0 1251 1014 2266 2266 2266 1251 0 2266-1014 2266-2266h-2266v793h1240c-262 408-719 680-1240 680-813 0-1473-659-1473-1473 0-813 659-1473 1473-1473h5c82-309 287-568 560-721z" style="fill:#1e293b"/></g></svg>
