<svg width="300.14" height="300.07" clip-rule="evenodd" fill-rule="evenodd" image-rendering="optimizeQuality" shape-rendering="geometricPrecision" text-rendering="geometricPrecision" version="1.1" viewBox="0 0 4235 4234" xmlns="http://www.w3.org/2000/svg"><defs><linearGradient id="prefix__id0" x1="3522.5" x2="1519.1" y1="3493.4" y2="1490" gradientUnits="userSpaceOnUse"><stop stop-color="#ffda00" offset="0"/><stop stop-color="#e5a100" offset="1"/></linearGradient><style>.prefix__fil2{fill:#fff;fill-rule:nonzero}</style></defs><path d="m661 0s-661 0-661 661v2910s0 661 661 661h2910s661 0 661-661v-2910s0-661-661-661z" fill="#ffdb00" fill-rule="nonzero"/><path d="m3572 4233h-1331l-1115-1115-246-490-71-488 273-782 602-479 785-128 290 290 315 97 1161 1161v1277c-1 506-390 623-571 650-53 8-88 8-90 8z" fill="url(#prefix__id0)" style="fill:url(#prefix__id0)"/><path class="prefix__fil2" d="m2823 1739c195 0 353-158 353-353s-158-353-353-353-353 158-353 353 158 353 353 353z"/><path class="prefix__fil2" d="m2469 751c-113-29-230-45-352-45-779 0-1411 632-1411 1411s632 1411 1411 1411 1411-632 1411-1411h-1411v494h772c-163 254-448 423-772 423-507 0-917-411-917-917 0-507 411-917 917-917h3c51-193 179-354 349-449z"/></svg>
