<?xml version="1.0" encoding="UTF-8" standalone="no"?>
<svg
   width="24"
   height="24"
   viewBox="0 0 24 24"
   version="1.1"
   xmlns="http://www.w3.org/2000/svg"
   xmlns:svg="http://www.w3.org/2000/svg">
  <defs />
  <path
     d="m 23.461957,18.939924 -3.706424,-3.706839 c -0.738251,-0.735286 -1.960809,-0.712946 -2.724779,0.0513 l -1.867313,1.866898 a 54.631201,54.631201 0 0 1 -0.36847,-0.20499 C 13.615782,16.292921 12.001862,15.397393 10.303547,13.697837 8.6001975,11.994695 7.7038434,10.378293 7.0484706,9.198346 6.9793134,9.073339 6.9130521,8.9528139 6.8476183,8.8383563 L 8.1008594,7.5869769 8.7169995,6.9700784 C 9.4821411,6.2047297 9.50324,4.9825164 8.7667127,4.2450926 L 5.060288,0.53784074 C 4.3237607,-0.19854871 3.1006509,-0.1762088 2.3355093,0.58913978 L 1.2909119,1.6397359 1.3194573,1.6680745 C 0.96918971,2.1150104 0.67649559,2.630483 0.45868153,3.1863605 0.25789819,3.7154852 0.13289126,4.2204085 0.07573143,4.726366 c -0.48940937,4.0573127 1.36466477,7.765392 6.39638347,12.79718 6.9553641,6.954881 12.5604731,6.42948 12.8022821,6.40383 0.526643,-0.06296 1.031359,-0.188786 1.54428,-0.387983 0.551051,-0.215264 1.06618,-0.507543 1.51284,-0.857053 l 0.02283,0.02027 1.058249,-1.036255 c 0.763556,-0.76521 0.785551,-1.987837 0.04936,-2.726432 z" />
</svg>
