<?xml version="1.0" encoding="UTF-8" standalone="no"?>
<svg
   width="24"
   height="24"
   viewBox="0 0 24 24"
   version="1.1"
   xmlns="http://www.w3.org/2000/svg"
   xmlns:svg="http://www.w3.org/2000/svg">
  <defs />
  <path
     d="M 22.118838,0.00769121 H 1.8810086 C 0.84387736,0.00769121 0,0.8511071 0,1.8880847 V 22.104018 c 0,1.036825 0.84387736,1.880598 1.8810086,1.880598 H 22.118838 C 23.156225,23.984616 24,23.140843 24,22.104018 V 1.8880847 C 23.999693,0.85079945 23.155917,0.00769121 22.118838,0.00769121 Z m -1.27474,2.14040699 c 0.444962,0 0.805577,0.3609731 0.805577,0.8060365 0,0.4452175 -0.360615,0.805883 -0.805577,0.805883 -0.445473,0 -0.806189,-0.3609731 -0.806189,-0.805883 0,-0.4450634 0.360665,-0.8060365 0.806189,-0.8060365 z m -2.888297,0 c 0.445473,0 0.806191,0.3609731 0.806191,0.8060365 0,0.4452175 -0.360667,0.805883 -0.806191,0.805883 -0.445268,0 -0.805575,-0.3609731 -0.805575,-0.805883 5.1e-5,-0.4450634 0.360716,-0.8060365 0.805575,-0.8060365 z m 3.89451,19.6871388 H 2.1493799 V 5.7609064 H 21.850311 Z m -9.850465,-2.052111 c 3.394994,0 6.157823,-2.762214 6.157823,-6.157875 0,-3.395456 -2.762829,-6.1578234 -6.157823,-6.1578234 -3.3951477,0 -6.1578232,2.7623674 -6.1578232,6.1578234 0,3.395661 2.7626242,6.157875 6.1578232,6.157875 z m 0,-11.0742378 c 2.710683,0 4.916413,2.2056288 4.916413,4.9164138 0,2.710683 -2.205781,4.916465 -4.916413,4.916465 -2.7108369,0 -4.9164139,-2.205782 -4.9164139,-4.916465 -5.11e-5,-2.710837 2.205577,-4.9164138 4.9164139,-4.9164138 z m -0.620679,4.9164138 v -3.103446 c 0,-0.342617 0.278062,-0.6206795 0.620679,-0.6206795 0.342617,0 0.620679,0.2780625 0.620679,0.6206795 v 2.482716 h 2.560397 c 0.342463,0 0.620679,0.278267 0.620679,0.620679 0,0.342514 -0.278267,0.620679 -0.620679,0.620679 h -3.181076 c -0.342617,5.1e-5 -0.620679,-0.278165 -0.620679,-0.620628 z" />
</svg>
