<svg xmlns="http://www.w3.org/2000/svg" width="16" height="16" viewBox="0 0 468.067 468.067">
    <path d="M431.38.225H36.685C16.458.225 0 16.674 0 36.898v394.268c0 20.221 16.458 36.677 36.685 36.677H431.38c20.232 0 36.688-16.456 36.688-36.677V36.898C468.062 16.668 451.606.225 431.38.225zm-24.861 41.744c8.678 0 15.711 7.04 15.711 15.72 0 8.683-7.033 15.717-15.711 15.717-8.688 0-15.723-7.04-15.723-15.717 0-8.68 7.034-15.72 15.723-15.72zm-56.33 0c8.688 0 15.723 7.04 15.723 15.72 0 8.683-7.034 15.717-15.723 15.717-8.684 0-15.711-7.04-15.711-15.717.001-8.68 7.035-15.72 15.711-15.72zm75.954 383.955H41.919V112.429h384.224v313.495zm-192.112-40.022c66.212 0 120.095-53.871 120.095-120.096 0-66.221-53.883-120.095-120.095-120.095-66.215 0-120.095 53.874-120.095 120.095 0 66.225 53.879 120.096 120.095 120.096zm0-215.979c52.866 0 95.884 43.016 95.884 95.884 0 52.866-43.019 95.885-95.884 95.885-52.869 0-95.884-43.019-95.884-95.885-.001-52.869 43.015-95.884 95.884-95.884zm-12.105 95.884v-60.526c0-6.682 5.423-12.105 12.105-12.105s12.105 5.423 12.105 12.105v48.42h49.935c6.679 0 12.105 5.427 12.105 12.105 0 6.68-5.427 12.105-12.105 12.105h-62.04c-6.682.001-12.105-5.425-12.105-12.104z"/>
</svg>
