<?xml version="1.0" encoding="UTF-8" standalone="no"?>
<svg
   width="24"
   height="24"
   viewBox="0 0 24 24"
   version="1.1"
   xmlns="http://www.w3.org/2000/svg"
   xmlns:svg="http://www.w3.org/2000/svg">
  <defs />
  <path
     d="M 13.0176,12.48 H 10.9824 A 9.0912,9.0912 0 0 0 1.92,21.6 0.48,0.48 0 0 0 2.4,22.08 H 21.6 A 0.528,0.528 0 0 0 22.08,21.5424 9.0816,9.0816 0 0 0 13.0176,12.48 Z M 16.8,6.72 A 4.8,4.8 0 0 1 12,11.52 4.8,4.8 0 0 1 7.2,6.72 4.8,4.8 0 0 1 12,1.9199998 4.8,4.8 0 0 1 16.8,6.72 Z" />
</svg>
