<?xml version="1.0" encoding="UTF-8" standalone="no"?>
<svg
   viewBox="0 0 24 24"
   version="1.1"
   width="24"
   height="24"
   xmlns="http://www.w3.org/2000/svg"
   xmlns:svg="http://www.w3.org/2000/svg">
  <defs />
  <path
     d="M 20.609547,3.0257037 C 18.421051,1.0085679 15.698898,0 12.44798,0 9.0305996,0 6.117503,1.1456548 3.7135861,3.4418604 1.3096695,5.7380659 0.10526316,8.592411 0.10526316,12.009792 c 0,3.275397 1.14565484,6.090574 3.43206844,8.450428 C 5.8335372,22.820073 8.9179925,24 12.800489,24 c 2.34027,0 4.636476,-0.479805 6.888617,-1.44431 0.734394,-0.313341 1.091799,-1.155445 0.793145,-1.894737 -0.308445,-0.763768 -1.179926,-1.116279 -1.9388,-0.793144 -1.958385,0.842104 -3.877601,1.263157 -5.747858,1.263157 -2.9767437,0 -5.2827413,-0.905752 -6.9179921,-2.722153 -1.630355,-1.811506 -2.4479803,-3.941249 -2.4479803,-6.384333 0,-2.6536111 0.8763769,-4.8665855 2.6242348,-6.6438192 1.7429621,-1.7723377 3.8922888,-2.6634025 6.4381886,-2.6634025 2.345165,0 4.328029,0.7294981 5.943695,2.1884944 1.615668,1.4589961 2.423501,3.2949815 2.423501,5.5079553 0,1.512852 -0.372093,2.77601 -1.111383,3.779682 -0.73929,1.008569 -1.507956,1.507956 -2.305997,1.507956 -0.430844,0 -0.646267,-0.230111 -0.646267,-0.695226 0,-0.376989 0.02937,-0.817626 0.08323,-1.326806 l 0.91065,-7.4467559 H 14.656058 L 14.455324,6.9620562 C 13.657282,6.3108933 12.780905,5.982864 11.831089,5.982864 c -1.507956,0 -2.8004894,0.6022032 -3.8727049,1.8017136 C 6.8812728,8.9840879 6.347613,10.531212 6.347613,12.421052 c 0,1.845778 0.4749082,3.339046 1.4296206,4.470013 0.9547124,1.135863 2.1003672,1.698898 3.4418604,1.698898 1.19951,0 2.222766,-0.504285 3.074663,-1.507956 0.641371,0.964503 1.586291,1.444308 2.834761,1.444308 1.835986,0 3.422277,-0.798042 4.758874,-2.39902 1.336598,-1.596084 2.007344,-3.525092 2.007344,-5.78213 0,-2.859241 -1.091799,-5.3023255 -3.285189,-7.3194613 z M 13.3929,14.291309 c -0.553243,0.744187 -1.214198,1.121176 -1.982863,1.121176 -0.523868,0 -0.944921,-0.274175 -1.263158,-0.822522 -0.3231339,-0.548348 -0.4847006,-1.228886 -0.4847006,-2.046512 0,-1.008568 0.2252143,-1.821297 0.6756426,-2.438188 0.450428,-0.6168912 1.008568,-0.9302326 1.674419,-0.9302326 0.577723,0 1.091799,0.2301101 1.542227,0.6952264 0.450429,0.4651162 0.675643,1.0820072 0.675643,1.8555692 -0.0049,0.964504 -0.283966,1.816401 -0.83721,2.565483 z" />
</svg>
