<?xml version="1.0" encoding="UTF-8" standalone="no"?>
<svg height="24" viewBox="0 0 48 48" width="24"
    xmlns="http://www.w3.org/2000/svg" id="fi_5082090">
    <g id="Fax">
        <path d="m42 8h-4a3.0033 3.0033 0 0 1 -3-3v-4h-14a2 2 0 0 0 -2 2v10h23z"></path>
        <path d="m38 6h4l-5-5v4a1 1 0 0 0 1 1z"></path>
        <rect height="31" rx="2" width="9" x="6" y="11"></rect>
        <path d="m22 21h19v4h-19z"></path>
        <path d="m44 15h-27v25a4.0046 4.0046 0 0 1 -4 4h-5a4.0046 4.0046 0 0 1 -4-4v-25a3.0033 3.0033 0 0 0 -3 3v26a3.0033 3.0033 0 0 0 3 3h40a3.0033 3.0033 0 0 0 3-3v-26a3.0033 3.0033 0 0 0 -3-3zm-19 27h-5v-4h5zm0-8h-5v-4h5zm9 8h-5v-4h5zm0-8h-5v-4h5zm9 8h-5v-4h5zm0-8h-5v-4h5zm0-8a1 1 0 0 1 -1 1h-21a1 1 0 0 1 -1-1v-6a1 1 0 0 1 1-1h21a1 1 0 0 1 1 1z"></path>
    </g>
</svg>
