<?xml version="1.0" encoding="UTF-8" standalone="no"?>
<svg
   viewBox="0 0 24 24"
   version="1.1"
   width="24"
   height="24"
   xmlns="http://www.w3.org/2000/svg"
   xmlns:svg="http://www.w3.org/2000/svg">
  <defs />
  <path
     d="m 14.482965,5.3678772 c 1.109697,0.6957694 1.887832,1.8731562 2.029503,3.2398355 0.452564,0.2114563 0.954848,0.3330586 1.487382,0.3330586 1.944141,0 3.519881,-1.5757394 3.519881,-3.5195807 0,-1.9441408 -1.57574,-3.5198802 -3.519881,-3.5198802 -1.925571,5.99e-4 -3.487532,1.5481843 -3.516885,3.4665668 z m -2.305953,7.2068888 c 1.944141,0 3.51988,-1.576039 3.51988,-3.5198801 0,-1.9438413 -1.576038,-3.5195807 -3.51988,-3.5195807 -1.943841,0 -3.5204787,1.5760389 -3.5204787,3.5198802 0,1.9438416 1.5766377,3.5195806 3.5204787,3.5195806 z m 1.493074,0.23991 H 10.68334 c -2.4850621,0 -4.5067768,2.022015 -4.5067768,4.507077 v 3.652564 l 0.00928,0.05721 0.2515912,0.07877 c 2.3715463,0.740996 4.4318986,0.988093 6.1277426,0.988093 3.312318,0 5.232198,-0.944365 5.350506,-1.004566 L 18.1508,20.974919 h 0.02516 v -3.653162 c 9.02e-4,-2.485061 -2.020813,-4.507076 -4.505875,-4.507076 z M 19.493523,9.180981 H 16.52984 c -0.03204,1.185773 -0.538226,2.253538 -1.338825,3.02149 2.20891,0.656833 3.825083,2.705204 3.825083,5.124673 v 1.125571 c 2.926245,-0.10722 4.612506,-0.936579 4.723625,-0.992287 L 23.97484,17.341222 H 24 V 13.687458 C 24,11.202696 21.978285,9.180981 19.493523,9.180981 Z M 6.0007488,8.9413704 c 0.6885812,0 1.32924,-0.2009734 1.8719582,-0.5433171 0.1725196,-1.1252715 0.7757394,-2.1085736 1.6374391,-2.7782853 0.0036,-0.065893 0.00989,-0.131187 0.00989,-0.1976789 0,-1.9441406 -1.5760389,-3.5198801 -3.5192813,-3.5198801 -1.9444402,0 -3.5198801,1.5757395 -3.5198801,3.5198801 0,1.9432424 1.5754399,3.5192813 3.5198791,3.5192813 z M 9.1618122,12.202471 C 8.3651069,11.438413 7.8607265,10.376339 7.8238863,9.1977539 7.7139649,9.1896669 7.6052416,9.180981 7.4932236,9.180981 H 4.5067765 C 2.0217147,9.180981 0,11.202696 0,13.687458 v 3.653163 l 0.00928491,0.05631 0.25159118,0.07937 c 1.90250851,0.59394 3.60044931,0.867696 5.07525271,0.953955 v -1.103107 c 5.991e-4,-2.419469 1.6161738,-4.467241 3.8256834,-5.124673 z" />
</svg>
