<?xml version="1.0" encoding="UTF-8" standalone="no"?>
<svg
   width="24"
   height="24"
   version="1.1"
   xmlns="http://www.w3.org/2000/svg"
   xmlns:svg="http://www.w3.org/2000/svg">
  <defs />
  <path
     d="M 16.5,7.5 H 15 c 0,-1.05 -1.2,-3 -3,-3 V 3 c 2.7,0 4.5,2.7 4.5,4.5 z M 17.55,2.85 C 16.05,1.05 13.65,0 11.25,0 c -2.4,0 -4.8,1.05 -6.3,2.85 -1.5,1.65 -2.1,3.9 -1.8,6 0.3,2.25 1.2,3.9 3.15,5.55 0.75,0.6 1.05,1.2 1.35,1.8 0,0.15 0.15,0.3 0.15,0.45 -0.15,0.15 -0.3,0.3 -0.3,0.6 C 7.5,17.7 7.8,18 8.25,18 7.8,18 7.5,18.3 7.5,18.75 7.5,19.2 7.8,19.5 8.25,19.5 7.8,19.5 7.5,19.8 7.5,20.25 7.5,20.7 7.8,21 8.25,21 7.8,21 7.5,21.3 7.5,21.75 7.5,22.2 7.8,22.5 8.25,22.5 H 9 c 0,0.75 1.05,1.5 2.25,1.5 1.2,0 2.25,-0.75 2.25,-1.5 h 0.75 C 14.7,22.5 15,22.2 15,21.75 15,21.3 14.7,21 14.25,21 14.7,21 15,20.7 15,20.25 15,19.8 14.7,19.5 14.25,19.5 14.7,19.5 15,19.2 15,18.75 15,18.3 14.7,18 14.25,18 14.7,18 15,17.7 15,17.25 c 0,-0.3 -0.15,-0.45 -0.3,-0.6 0,-0.15 0.15,-0.15 0.15,-0.3 0.3,-0.6 0.6,-1.2 1.35,-1.8 1.95,-1.65 2.85,-3.3 3.15,-5.7 0.3,-2.1 -0.3,-4.2 -1.8,-6 z M 18,8.7 c -0.3,1.95 -1.05,3.3 -2.7,4.8 -0.9,0.75 -1.35,1.5 -1.8,2.1 -0.3,0.75 -0.45,0.9 -0.75,0.9 h -3 C 9.45,16.5 9.3,16.35 9,15.6 8.7,15 8.25,14.1 7.35,13.2 5.4,11.55 4.95,10.2 4.65,8.7 4.35,7.05 4.95,5.25 6,3.9 7.35,2.4 9.3,1.5 11.25,1.5 c 1.95,0 3.9,0.9 5.25,2.4 1.05,1.35 1.65,3.15 1.5,4.8 z" />
</svg>
