<svg xmlns="http://www.w3.org/2000/svg" width="16" height="16">
    <path fill="#444" d="M11.7 1.9C10.7.7 9.1 0 7.5 0S4.3.7 3.3 1.9c-1 1.1-1.4 2.6-1.2 4 .2 1.5.8 2.6 2.1 3.7.5.4.7.8.9 1.2 0 .1.1.2.1.3-.1.1-.2.2-.2.4 0 .3.2.5.5.5-.3 0-.5.2-.5.5s.2.5.5.5c-.3 0-.5.2-.5.5s.2.5.5.5c-.3 0-.5.2-.5.5s.2.5.5.5H6c0 .5.7 1 1.5 1S9 15.5 9 15h.5c.3 0 .5-.2.5-.5s-.2-.5-.5-.5c.3 0 .5-.2.5-.5s-.2-.5-.5-.5c.3 0 .5-.2.5-.5s-.2-.5-.5-.5c.3 0 .5-.2.5-.5 0-.2-.1-.3-.2-.4 0-.1.1-.1.1-.2.2-.4.4-.8.9-1.2 1.3-1.1 1.9-2.2 2.1-3.8.2-1.4-.2-2.8-1.2-4zm.3 3.9c-.2 1.3-.7 2.2-1.8 3.2-.6.5-.9 1-1.2 1.4-.2.5-.3.6-.5.6h-2c-.2 0-.3-.1-.5-.6-.2-.4-.5-1-1.1-1.6-1.3-1.1-1.6-2-1.8-3-.2-1.1.2-2.3.9-3.2.9-1 2.2-1.6 3.5-1.6s2.6.6 3.5 1.6c.7.9 1.1 2.1 1 3.2z"/>
    <path fill="#444" d="M11 5h-1c0-.7-.8-2-2-2V2c1.8 0 3 1.8 3 3z"/>
</svg>
