<svg version="1.0" encoding="UTF-8"
    xmlns="http://www.w3.org/2000/svg" width="18pt" height="16pt" viewBox="0 0 30.000000 28.000000" preserveAspectRatio="xMidYMid meet">
    <g transform="translate(0.000000,28.000000) scale(0.100000,-0.100000)" fill="#000000" stroke="none">
        <path d="M187 236 c-5 -12 -21 -16 -67 -16 l-60 0 0 -100 0 -101 68 3 67 3 3 70 c3 69 4 71 33 82 25 10 30 16 27 40 -2 23 -8 29 -34 31 -21 2 -33 -2 -37 -12z m61 -23 c2 -15 -3 -23 -20 -28 -13 -4 -35 -19 -50 -33 -37 -34 -49 -20 -15 16 15 16 27 35 27 43 0 22 11 30 35 27 12 -2 21 -12 23 -25z"/>
    </g>
</svg>