<?xml version="1.0" encoding="UTF-8" standalone="no"?>
<svg
   version="1.0"
   width="24"
   height="24"
   viewBox="0 0 24 24"
   xmlns="http://www.w3.org/2000/svg"
   xmlns:svg="http://www.w3.org/2000/svg">
  <defs />
  <path
     d="M 16.671426,3.7714283 C 16.242855,4.8 14.871426,5.1428571 10.92857,5.1428571 H 5.7857134 V 22.371426 L 11.614284,22.114283 17.35714,21.85714 17.614283,15.857141 C 17.871426,9.9428562 17.957141,9.7714275 20.442855,8.8285704 22.585711,7.9714275 23.014282,7.457142 22.757139,5.4 22.585711,3.4285711 22.071426,2.9142854 19.842855,2.7428569 c -1.8,-0.1714286 -2.828571,0.1714285 -3.171429,1.0285714 z m 5.228571,1.9714288 c 0.171429,1.2857142 -0.257142,1.9714276 -1.714284,2.3999991 -1.114287,0.3428571 -3.000002,1.6285713 -4.285714,2.8285718 -3.17143,2.914285 -4.2,1.714285 -1.285715,-1.371429 C 15.899999,8.2285706 16.928568,6.6 16.928568,5.9142856 c 0,-1.8857144 0.942858,-2.5714288 3.000002,-2.3142859 1.028571,0.1714285 1.799999,1.0285717 1.971427,2.1428574 z" />
</svg>
