<?xml version="1.0" encoding="UTF-8" standalone="no"?>
<svg
   viewBox="0 0 24 24"
   version="1.1"
   width="24"
   height="24"
   xmlns="http://www.w3.org/2000/svg"
   xmlns:svg="http://www.w3.org/2000/svg">
  <defs />
  <path
     d="M 12,0 C 7.588875,0 3.9999845,3.5888907 3.9999845,8.0000156 c 0,1.3242187 0.331078,2.6371874 0.9604685,3.8017504 l 6.602063,11.940421 C 11.650406,23.901375 11.817891,24 12,24 c 0.182109,0 0.349594,-0.09862 0.437484,-0.257813 l 6.6045,-11.944359 C 19.668937,10.637203 20.000016,9.3241875 20.000016,7.9999687 20.000016,3.5888907 16.411125,0 12,0 Z m 0,12 C 9.7944375,12 8.0000156,10.205578 8.0000156,8.0000156 8.0000156,5.7944532 9.7944375,4.0000312 12,4.0000312 c 2.205563,0 3.999984,1.794422 3.999984,3.9999844 C 15.999984,10.205578 14.205563,12 12,12 Z" />
</svg>
