<?xml version="1.0" encoding="UTF-8" standalone="no"?>
<svg
   version="1.0"
   width="40"
   height="40"
   viewBox="0 0 420.75 420.75002"
   preserveAspectRatio="xMidYMid meet"
   id="svg884"
   xmlns="http://www.w3.org/2000/svg"
   xmlns:svg="http://www.w3.org/2000/svg">
  <defs
     id="defs888" />
  <g
     transform="matrix(0.1,0,0,-0.1,-45.582135,465.97727)"
     fill="#000000"
     stroke="none"
     id="g882">
    <path
       d="m 2815,4481 c -183,-34 -306,-75 -465,-158 -146,-75 -273,-168 -391,-287 -128,-129 -213,-248 -293,-411 -117,-236 -155,-389 -163,-655 -6,-183 3,-279 38,-425 89,-362 311,-693 614,-910 100,-73 311,-181 425,-219 105,-35 268,-67 380,-75 l 95,-6 5,-333 5,-333 631,633 c 518,521 641,649 691,723 184,274 274,566 274,894 0,437 -161,823 -473,1130 -123,121 -244,207 -403,285 -246,122 -391,156 -675,162 -159,3 -214,0 -295,-15 z"
       id="path878" />
    <path
       d="M 1380,3535 C 1151,3491 936,3370 763,3186 542,2953 436,2642 462,2312 c 22,-269 130,-502 328,-702 144,-146 277,-230 459,-290 48,-15 108,-31 134,-35 l 47,-7 V 946 615 l 395,395 394,394 -81,54 c -45,29 -104,71 -132,93 l -50,40 -103,-103 -103,-103 v 96 96 l -137,6 c -202,8 -329,46 -465,138 -259,176 -394,460 -367,771 27,302 239,581 521,689 l 57,21 11,57 c 6,31 26,108 45,171 19,63 33,115 32,116 -1,0 -31,-5 -67,-11 z"
       id="path880" />
  </g>
</svg>

