<?xml version="1.0" encoding="UTF-8" standalone="no"?>
<svg
   viewBox="0 0 24 24"
   version="1.0"
   width="24"
   height="24"
   xmlns="http://www.w3.org/2000/svg"
   xmlns:svg="http://www.w3.org/2000/svg">
  <defs />
  <path
     d="M 5.271589,6.4157938 C 3.9653547,6.6667734 2.7389775,7.3569671 1.7521716,8.4065178 0.49156992,9.7355684 -0.11306256,11.509537 0.03524352,13.391884 c 0.12548976,1.534397 0.7415304,2.863448 1.87093828,4.004264 0.8213874,0.832795 1.5800302,1.311939 2.6181728,1.654183 0.2737957,0.08556 0.6160405,0.176826 0.7643466,0.199643 l 0.2680918,0.03993 v 1.893754 1.88805 L 7.8099046,20.818596 10.057312,18.571188 9.5952818,18.263168 C 9.3385981,18.09775 9.0020574,17.858178 8.8423431,17.732688 l -0.285204,-0.228162 -0.5875202,0.58752 -0.5875202,0.58752 V 18.131974 17.584383 L 6.6006396,17.550157 C 5.4484155,17.504526 4.7239974,17.28777 3.9482424,16.762995 2.4708857,15.759076 1.7008349,14.139118 1.8548451,12.365149 2.0088552,10.642517 3.2181203,9.0510787 4.8266707,8.4350382 L 5.1518034,8.3152527 5.2145484,7.99012 C 5.2487727,7.8132934 5.3628543,7.3740792 5.4712318,7.0147222 5.5796094,6.6553652 5.6594664,6.358753 5.6537623,6.353049 c -0.0057,0 -0.1768264,0.028521 -0.3821733,0.062745 z M 13.456944,1.0197341 C 12.413097,1.2136728 11.711495,1.4475401 10.804547,1.9209787 9.971751,2.3487848 9.2473328,2.8792642 8.5742514,3.5580497 7.8441291,4.293876 7.3592823,4.9726615 6.9029559,5.9024267 6.2355786,7.2485895 6.0188235,8.1213138 5.9731908,9.6385991 c -0.034224,1.0438469 0.017112,1.5914379 0.2167551,2.4242339 0.5076631,2.064877 1.7739688,3.952928 3.5023052,5.190713 0.5704079,0.416398 1.7739689,1.032438 2.4242339,1.249194 0.598928,0.199643 1.528694,0.382173 2.167551,0.427806 l 0.541888,0.03423 0.02852,1.899459 0.02852,1.899459 3.599275,-3.610683 c 2.954713,-2.971826 3.656314,-3.701949 3.941518,-4.12405 1.049552,-1.562918 1.562919,-3.22851 1.562919,-5.0994479 0,-2.4926829 -0.918357,-4.6944579 -2.69803,-6.4456104 C 20.587044,2.7937031 19.89685,2.3031521 18.989902,1.8582339 17.586699,1.1623361 16.759606,0.96839736 15.139649,0.93417288 c -0.90695,-0.0171123 -1.220675,0 -1.682705,0.0855612 z" />
</svg>
