<?xml version="1.0" encoding="UTF-8" standalone="no"?> <svg id="Layer_1" data-name="Layer 1" xmlns="http://www.w3.org/2000/svg" viewBox="0 0 128 128"><defs><style>.cls-1{fill:#2d3e50;}</style></defs><title>b</title><path class="cls-1" d="M68.19243,98.34161c-3.55517-2.54095-8.22385,1.15375-9.874,5.13555-1.43548,3.472.33272,6.66224,3.88521,7.68721a8.90147,8.90147,0,0,0,5.99683-.39441c4.36549-2.058,3.92276-7.12377,1.6233-10.66283A6.46609,6.46609,0,0,0,68.19243,98.34161Z"/><path class="cls-1" d="M98.57907,63.98658a19.78737,19.78737,0,0,0-3.12587.26027,36.39584,36.39584,0,0,0-10.75406,3.17148c-1.70916.86934-3.303,1.95332-5.03894,2.77437-1.74942.82641-3.9335.79959-5.54071,1.84065A4.74205,4.74205,0,0,0,72.024,74.86407c-.52053,2.2136.93373,3.97106,2.76364,4.98529,2.66436,1.47573,5.35825,2.90315,7.97969,4.44865,2.2136,1.30669,4.69282,3.2654,7.42962,2.84146,1.93187-.30051,3.60884-2.03652,5.04433-3.252a65.34165,65.34165,0,0,0,5.259-5.12214c2.01236-2.13042,5.047-4.37353,6.08269-7.18815a5.109,5.109,0,0,0-1.48914-5.24824A8.89223,8.89223,0,0,0,98.57907,63.98658Z"/><path class="cls-1" d="M126.2933,62.6611c-.00537-.169-.00806-.33539-.01341-.50175-.00806-.27367-.01878-.55-.02951-.82371-.02147-.45882-.04294-.91765-.07514-1.37379-.00537-.09928-.01073-.19318-.0161-.29245-.02147-.322-.04829-.64665-.07514-.96861l-.0161-.18514A62.32217,62.32217,0,0,0,69.84524,1.96295c-.05635-.00537-.11269-.00806-.169-.01341-.52589-.04829-1.05716-.08855-1.58842-.12074-.15026-.01341-.29783-.02147-.44541-.02951-.45612-.02416-.91763-.04829-1.37377-.06439-.161-.00537-.3193-.01074-.47759-.0161-.59567-.0161-1.19132-.02953-1.78965-.02953-.46955,0-.9391.00806-1.406.01878-.23612.00537-.47491.0161-.71371.02147-.20392.008-.40516.01341-.60371.02147-.35686.01878-.71371.03755-1.06789.05634-.03757.00269-.06976.00537-.10733.00537a62.31772,62.31772,0,0,0-58.168,56.6654C1.76842,60.28384,1.6906,62.01447,1.6906,64c0,.48565.00537.9713.01878,1.45426l.0161.52053q.01209.45882.0322.91763c.01341.21733.02416.432.03488.64932.01341.2549.0322.5098.04829.76739.0161.24416.0322.491.05367.73518.0161.21465.03488.432.05635.64663.02414.27369.04829.54737.07781.821.01878.1932.04294.38637.06171.58225.01878.20124.03757.39979.06441.59834l.04829.32734A61.69119,61.69119,0,0,0,5.15724,84.57438a.291.291,0,0,0,.01341.04561c.11806.33808.24147.67884.36759,1.01959.04292.1127.08586.22539.1261.33808q.157.42259.322.83714c.07781.20392.15831.40247.24149.601.08049.20392.161.40784.24684.60639A62.085,62.085,0,0,0,35.96513,119.678a1.28425,1.28425,0,0,0,.12074.06172c.31392.1583.63322.31392.95251.46418.20929.102.42126.20392.63055.30051.102.04829.20392.09392.3032.14221a62.15522,62.15522,0,0,0,26.02922,5.66412h.03487c.51786,0,1.03839-.00806,1.55355-.02147.08318-.00269.161-.008.2388-.008.45881-.01341.91495-.02953,1.36571-.05367.02147,0,.04294-.00269.06439-.00269A62.30945,62.30945,0,0,0,126.22353,67.252c.00269-.01878.00269-.03757.00537-.05635.02414-.45614.04024-.91495.051-1.37646l.008-.22806c.0161-.5259.02147-1.05716.02147-1.58844V64C126.3094,63.5546,126.304,63.10652,126.2933,62.6611ZM64.00135,118.08689c-.22808,0-.45345-.008-.67884-.01073-.271-.00269-.872-.58492-1.10277-.74324q-.644-.44271-1.27718-.89616c-.7969-.5742-1.58038-1.16985-2.34238-1.78967a23.58246,23.58246,0,0,1-4.89049-5.14038c-2.8861-4.37292-2.35483-9.43584.28137-13.789,1.88228-3.10819,4.81846-5.55664,7.0442-8.43336a31.83852,31.83852,0,0,0,5.668-10.53047,11.34615,11.34615,0,0,0-1.72742-10.16247c-2.59419-3.19261-7.36171-4.90411-11.20532-5.90781-.483-.1261-.974-.22806-1.46769-.31124a31.50381,31.50381,0,0,0-3.2949-.33539,76.54278,76.54278,0,0,0-11.94538.2549c-3.48272.33808-7.14254,1.41938-10.44012-.26563-2.84415-1.44891-5.40386-3.40225-8.53778-4.21792a32.06731,32.06731,0,0,0-7.41891-.79957A54.09836,54.09836,0,0,1,75.5362,11.1581c.24416,4.124,3.98984,6.6381,2.06066,11.01969-2.60266,5.90828-9.9357,7.66307-12.93546,13.25743a7.312,7.312,0,0,0,.3193,7.81332,55.42117,55.42117,0,0,1,2.97293,5.27775c1.30669,2.52754,2.71534,5.83049,5.3019,7.31963,7.56648,4.3628,8.17823-9.222,13.38086-10.08059,2.80656-.46418,4.39231,1.12424,5.7151,3.36466,1.57769,2.667,2.84146,5.00139,6.17393,5.65339a22.36911,22.36911,0,0,0,6.33491,0c1.03569-.09928,12.08758-1.846,11.95611-2.439a54.09375,54.09375,0,0,1-52.81507,65.74247Z"/></svg>