<?xml version="1.0" encoding="UTF-8" standalone="no"?>
<svg
   viewBox="0 0 24 24"
   version="1.1"
   width="24"
   height="24"
   xmlns="http://www.w3.org/2000/svg"
   xmlns:svg="http://www.w3.org/2000/svg">
  <defs />
  <path
     d="m 23.679937,11.748938 -0.0024,-0.09413 c -0.0015,-0.05119 -0.0036,-0.103125 -0.0056,-0.154313 -0.0039,-0.08625 -0.0081,-0.172125 -0.0141,-0.257625 l -0.003,-0.05494 a 10.991625,10.991625 0 0 0 -0.0141,-0.1815 l -0.0029,-0.03469 A 11.685375,11.685375 0 0 0 13.095938,0.3680625 L 13.06425,0.365625 a 9.6358125,9.6358125 0 0 0 -0.29775,-0.0226875 2.40375,2.40375 0 0 0 -0.08363,-0.005625 14.68125,14.68125 0 0 0 -0.257437,-0.012 l -0.08962,-0.003 a 12.405188,12.405188 0 0 0 -0.335625,-0.005625 c -0.08812,0 -0.176063,0.0015 -0.263625,0.003562 -0.04425,9.375e-4 -0.08906,0.003 -0.133688,0.004125 -0.03825,0.0015 -0.07594,0.002437 -0.11325,0.003937 l -0.20025,0.0105 c -0.0069,5.625e-4 -0.01313,0.001125 -0.02006,0.001125 A 11.684625,11.684625 0 0 0 0.3628125,10.964625 10.966313,10.966313 0 0 0 0.316875,12 c 0,0.09112 9.375e-4,0.182063 0.003375,0.272625 l 0.003,0.0975 q 0.002438,0.08625 0.006188,0.172125 c 0.002437,0.04088 0.0045,0.081 0.006563,0.121875 0.002437,0.04781 0.006,0.09563 0.009,0.143813 0.003,0.04575 0.006,0.09206 0.010125,0.137812 0.003,0.04031 0.006375,0.081 0.0105,0.121313 0.0045,0.05138 0.009,0.102562 0.014625,0.153749 0.003375,0.03638 0.008063,0.07256 0.0114375,0.109313 0.00375,0.03769 0.007125,0.075 0.0121875,0.112313 l 0.009,0.06131 a 11.567063,11.567063 0 0 0 0.553875,2.353875 0.0545625,0.0545625 0 0 0 0.002625,0.0087 c 0.022125,0.06338 0.0451875,0.12732 0.0688125,0.19125 0.00806,0.021 0.016125,0.04218 0.023625,0.06338 Q 1.09125,16.2 1.1221875,16.277812 a 3.75,3.75 0 0 0 0.045375,0.1125 c 0.015,0.03843 0.03,0.07668 0.046312,0.113805 a 11.640938,11.640938 0 0 0 5.529375,5.9355 0.24075,0.24075 0 0 0 0.0225,0.01155 c 0.059063,0.02962 0.118875,0.05887 0.1786875,0.087 0.039375,0.01912 0.079125,0.03825 0.118125,0.05625 0.019312,0.0092 0.038437,0.01762 0.057,0.02682 a 11.654063,11.654063 0 0 0 4.880625,1.062 h 0.0064 c 0.09713,0 0.194812,-0.0015 0.291375,-0.0042 0.01556,-3.75e-4 0.03,-0.0015 0.04481,-0.0015 0.08587,-0.0024 0.171564,-0.0057 0.255938,-0.0099 0.0041,0 0.0081,-5.62e-4 0.01218,-5.62e-4 A 11.683125,11.683125 0 0 0 23.666813,12.60975 c 3.74e-4,-0.0036 3.74e-4,-0.0071 9.37e-4,-0.0105 0.0045,-0.0855 0.0075,-0.171563 0.0094,-0.258188 l 0.0017,-0.04275 c 0.003,-0.09862 0.0039,-0.198187 0.0039,-0.297749 V 12 c 0,-0.08344 -9.38e-4,-0.167437 -0.003,-0.251062 z M 12.000188,22.141313 c -0.04275,0 -0.08494,-0.0015 -0.127125,-0.002 -0.05081,-7.5e-4 -0.1635,-0.109874 -0.206813,-0.1395 Q 11.5455,21.916875 11.426813,21.831937 A 9.4575,9.4575 0 0 1 10.9875,21.496313 4.421625,4.421625 0 0 1 10.070625,20.532562 c -0.541125,-0.819937 -0.4415625,-1.76925 0.05269,-2.585625 0.352875,-0.582562 0.903562,-1.04175 1.320749,-1.581187 A 5.9698125,5.9698125 0 0 0 12.506813,14.391375 2.127375,2.127375 0 0 0 12.183,12.485812 c -0.486375,-0.598499 -1.380375,-0.9195 -2.100938,-1.107562 A 3.1843125,3.1843125 0 0 0 9.8068125,11.31975 5.907,5.907 0 0 0 9.189,11.256937 14.351813,14.351813 0 0 0 6.9493125,11.30475 C 6.29625,11.368125 5.61,11.571 4.9918125,11.254875 4.458375,10.983188 3.9785625,10.617 3.3909375,10.464 A 6.0125625,6.0125625 0 0 0 1.9996875,10.314 10.143375,10.143375 0 0 1 14.163,2.092125 c 0.04575,0.77325 0.748125,1.244625 0.38625,2.06625 -0.487875,1.10775 -1.862812,1.4368125 -2.425312,2.4856875 a 1.371,1.371 0 0 0 0.06,1.465125 10.391438,10.391438 0 0 1 0.557438,0.9894375 c 0.244875,0.474 0.509063,1.093125 0.994125,1.3725 1.418625,0.818063 1.533375,-1.729125 2.50875,-1.89 0.526312,-0.087188 0.823687,0.21075 1.071562,0.63075 0.295876,0.5000625 0.532875,0.937688 1.157626,1.059937 a 4.194375,4.194375 0 0 0 1.187812,0 C 19.8555,10.25325 21.92775,9.9256875 21.903,9.8145 A 10.142625,10.142625 0 0 1 12.000188,22.141313 Z M 12.786,18.439125 c -0.666563,-0.476438 -1.541813,0.216187 -1.851375,0.962813 -0.269063,0.650999 0.06244,1.249125 0.728625,1.441312 a 1.6689375,1.6689375 0 0 0 1.12425,-0.07388 c 0.818625,-0.385875 0.735563,-1.33575 0.3045,-1.999312 A 1.212375,1.212375 0 0 0 12.786,18.43912 Z m 5.69775,-6.441562 a 3.7100625,3.7100625 0 0 0 -0.586312,0.04875 6.82425,6.82425 0 0 0 -2.016188,0.594563 c -0.320437,0.163125 -0.619312,0.366375 -0.944812,0.520313 -0.328125,0.154874 -0.737438,0.149999 -1.03875,0.344999 a 0.889125,0.889125 0 0 0 -0.393,0.530813 c -0.0975,0.415125 0.175125,0.744563 0.51825,0.934688 0.4995,0.27675 1.004625,0.5445 1.49625,0.834187 0.414937,0.245062 0.87975,0.612188 1.392937,0.532687 0.36225,-0.05625 0.676687,-0.38175 0.94575,-0.609749 a 12.251625,12.251625 0 0 0 0.98625,-0.960375 C 19.221375,14.369063 19.79025,13.9485 19.9845,13.420688 A 0.9579375,0.9579375 0 0 0 19.705125,12.436687 1.66725,1.66725 0 0 0 18.48375,11.997563 Z" />
</svg>
