<svg width="219" height="219" xmlns="http://www.w3.org/2000/svg"><path fill="#e55129" d="M107.31 0h6.5c7.68 1.23 12.9 3.71 19.56 8.68a8563.846 8563.846 0 0030.81 22.89c2.96 2.19 7.89 5.04 8.8 7.86 1.06 3.23-2.17 6.83-5.29 6.49-1.1-.127-2.553-.867-4.36-2.22-11.8-8.86-23.64-17.653-35.52-26.38-4.507-3.307-8.153-5.393-10.94-6.26-7.2-2.227-14.017-1.023-20.45 3.61-11.753 8.467-36.553 27.003-74.4 55.61-5.44 4.12-15.37 9.33-10.24 17.92 4.58 7.67 16.43-.76 16.67 9.59.58 25.11 0 49.01.04 87.78.007 5.04.487 8.763 1.44 11.17 3.22 8.16 9.97 11.39 18.64 11.54 9.787.16 19.503.24 29.15.24a.79.79 0 00.79-.79c.007-21.76 0-43.187-.02-64.28-.013-6.64.42-11.22 1.3-13.74 3.6-10.4 12.34-11.96 22.95-11.96h18.03c10.51-.01 19.27 1.19 23.16 11.21 1.067 2.727 1.593 8.157 1.58 16.29-.02 20.487-.03 41.317-.03 62.49 0 .467.233.7.7.7 86.97.4-22.501.142 64.559.162 7.4 0 8.05 10.17-.2 10.17-136.554-.087-28.629-.322-68.729-.202-39.433.12-69.703.067-90.81-.16-5.473-.053-9.32-.367-11.54-.94-12.82-3.29-21.07-15.16-21.06-28.23.027-28.753.09-57.52.19-86.3 0-.347-.17-.543-.51-.59C7.173 100.85 1.147 94.547 0 83.44v-.5c.633-6.267 3.143-11.07 7.53-14.41a5495.929 5495.929 0 0182.53-61.7C95.193 3.063 100.943.787 107.31 0zm27.89 136.38c-.07-4.59-3.15-8.44-7.96-8.43-9.107.033-18.227.043-27.36.03-6.86 0-11.26 1.91-11.29 9.34-.087 23.467-.113 46.943-.08 70.43a.5.5 0 00.5.5h45.75a.705.705 0 00.7-.7c.147-23.753.06-47.477-.26-71.17z"/></svg>
