<?xml version="1.0" encoding="UTF-8" standalone="no"?>
<svg
   id="Ebene_1"
   data-name="Ebene 1"
   viewBox="0 0 429.95 205.24"
   version="1.1"
   xmlns="http://www.w3.org/2000/svg"
   xmlns:svg="http://www.w3.org/2000/svg">
  <defs
     id="defs4">
    <style
       id="style2">
      .cls-1 {
        fill: #e55129;
      }
    </style>
  </defs>
  <g
     id="g48"
     style="fill:#ffffff">
    <path
       class="cls-1"
       d="M177.36,72.64c-.41,0-.74-.13-.99-.39-.26-.26-.39-.59-.39-.99V35.4c0-.4,.13-.73,.39-.99s.59-.39,.99-.39h5.02c.55,0,.96,.13,1.21,.39,.26,.26,.42,.46,.5,.61l14.73,23v-22.62c0-.4,.13-.73,.39-.99s.57-.39,.94-.39h5.63c.4,0,.74,.13,.99,.39,.26,.26,.39,.59,.39,.99v35.85c0,.37-.13,.69-.39,.97-.26,.28-.59,.41-.99,.41h-5.08c-.55,0-.95-.14-1.19-.41-.24-.28-.41-.47-.52-.58l-14.67-22.29v21.9c0,.4-.13,.74-.39,.99s-.59,.39-.99,.39h-5.57Z"
       id="path6"
       style="fill:#ffffff" />
    <path
       class="cls-1"
       d="M227.51,73.19c-4.23,0-7.58-1.18-10.07-3.53-2.48-2.35-3.8-5.77-3.94-10.26v-2.37c.15-2.83,.79-5.27,1.93-7.31,1.14-2.04,2.74-3.6,4.8-4.69,2.06-1.08,4.47-1.63,7.23-1.63,3.09,0,5.67,.63,7.75,1.9,2.08,1.27,3.64,3,4.69,5.19,1.05,2.19,1.57,4.7,1.57,7.53v1.27c0,.37-.14,.68-.41,.94-.28,.26-.6,.39-.96,.39h-18.04v.44c.04,1.18,.27,2.25,.69,3.23,.42,.97,1.03,1.76,1.82,2.34,.79,.59,1.74,.88,2.84,.88,.92,0,1.67-.13,2.26-.39,.59-.26,1.08-.57,1.46-.94,.39-.37,.67-.68,.85-.94,.33-.37,.6-.6,.8-.69,.2-.09,.52-.14,.97-.14h5.74c.37,0,.67,.1,.91,.3,.24,.2,.34,.49,.3,.85-.04,.59-.34,1.31-.91,2.18-.57,.86-1.41,1.71-2.51,2.54-1.1,.83-2.47,1.52-4.11,2.07-1.64,.55-3.52,.83-5.65,.83Zm-5.46-17.6h10.81v-.11c0-1.32-.21-2.47-.63-3.45-.42-.97-1.04-1.74-1.85-2.29-.81-.55-1.78-.83-2.92-.83s-2.12,.28-2.92,.83c-.81,.55-1.43,1.32-1.85,2.29-.42,.97-.63,2.12-.63,3.45v.11Z"
       id="path8"
       style="fill:#ffffff" />
    <path
       class="cls-1"
       d="M260.66,72.64c-2.28,0-4.23-.38-5.85-1.13-1.62-.75-2.84-1.92-3.67-3.5-.83-1.58-1.24-3.57-1.24-5.96v-11.58h-4.3c-.4,0-.74-.13-.99-.39-.26-.26-.39-.59-.39-.99v-3.75c0-.4,.13-.74,.39-.99s.59-.39,.99-.39h4.3v-9.1c0-.4,.14-.74,.41-.99,.28-.26,.6-.39,.96-.39h5.41c.4,0,.74,.13,.99,.39,.26,.26,.39,.59,.39,.99v9.1h6.9c.37,0,.68,.13,.94,.39,.26,.26,.39,.59,.39,.99v3.75c0,.4-.13,.74-.39,.99s-.57,.39-.94,.39h-6.9v10.92c0,1.4,.25,2.49,.75,3.28,.5,.79,1.37,1.19,2.62,1.19h4.03c.37,0,.68,.13,.94,.39,.26,.26,.39,.57,.39,.94v4.08c0,.4-.13,.74-.39,.99s-.57,.39-.94,.39h-4.8Z"
       id="path10"
       style="fill:#ffffff" />
    <path
       class="cls-1"
       d="M271.58,72.64c-.37,0-.68-.13-.94-.39-.26-.26-.39-.59-.39-.99v-3.7c0-.37,.08-.7,.25-.99,.17-.29,.36-.57,.58-.83l13.51-15.39h-12.52c-.41,0-.74-.13-.99-.39-.26-.26-.39-.57-.39-.94v-3.7c0-.4,.13-.74,.39-.99s.59-.39,.99-.39h21.51c.4,0,.74,.13,.99,.39,.26,.26,.39,.59,.39,.99v3.97c0,.33-.07,.63-.22,.88-.15,.26-.33,.52-.55,.77l-13.24,15.28h13.79c.37,0,.68,.13,.94,.39s.39,.57,.39,.94v3.7c0,.4-.13,.74-.39,.99-.26,.26-.57,.39-.94,.39h-23.17Z"
       id="path12"
       style="fill:#ffffff" />
    <path
       class="cls-1"
       d="M309.31,72.64c-.52,0-.91-.13-1.19-.39-.28-.26-.49-.59-.63-.99l-7.89-25.54c-.07-.18-.11-.37-.11-.55,0-.33,.12-.62,.36-.85,.24-.24,.52-.36,.85-.36h4.85c.48,0,.85,.13,1.1,.39,.26,.26,.42,.5,.5,.72l5.02,17.04,5.35-16.93c.07-.26,.25-.52,.52-.8,.28-.28,.67-.41,1.19-.41h3.14c.51,0,.91,.14,1.19,.41,.28,.28,.45,.54,.52,.8l5.35,16.93,5.02-17.04c.04-.22,.19-.46,.47-.72,.28-.26,.63-.39,1.08-.39h4.85c.33,0,.62,.12,.86,.36,.24,.24,.36,.52,.36,.85,0,.18-.02,.37-.05,.55l-7.94,25.54c-.11,.4-.3,.74-.58,.99-.28,.26-.67,.39-1.19,.39h-4.25c-.52,0-.92-.13-1.21-.39-.29-.26-.52-.59-.66-.99l-5.35-16.33-5.46,16.33c-.11,.4-.31,.74-.61,.99-.29,.26-.7,.39-1.21,.39h-4.25Z"
       id="path14"
       style="fill:#ffffff" />
    <path
       class="cls-1"
       d="M359.12,73.19c-4.23,0-7.58-1.18-10.07-3.53-2.48-2.35-3.8-5.77-3.94-10.26v-2.37c.15-2.83,.79-5.27,1.93-7.31,1.14-2.04,2.74-3.6,4.8-4.69,2.06-1.08,4.47-1.63,7.23-1.63,3.09,0,5.67,.63,7.75,1.9,2.08,1.27,3.64,3,4.69,5.19,1.05,2.19,1.57,4.7,1.57,7.53v1.27c0,.37-.14,.68-.41,.94-.28,.26-.6,.39-.96,.39h-18.04v.44c.04,1.18,.27,2.25,.69,3.23,.42,.97,1.03,1.76,1.82,2.34,.79,.59,1.74,.88,2.84,.88,.92,0,1.67-.13,2.26-.39,.59-.26,1.08-.57,1.46-.94,.39-.37,.67-.68,.85-.94,.33-.37,.6-.6,.8-.69,.2-.09,.52-.14,.97-.14h5.74c.37,0,.67,.1,.91,.3,.24,.2,.34,.49,.3,.85-.04,.59-.34,1.31-.91,2.18-.57,.86-1.41,1.71-2.51,2.54-1.1,.83-2.47,1.52-4.11,2.07-1.64,.55-3.52,.83-5.65,.83Zm-5.46-17.6h10.81v-.11c0-1.32-.21-2.47-.63-3.45-.42-.97-1.04-1.74-1.85-2.29-.81-.55-1.78-.83-2.92-.83s-2.12,.28-2.92,.83c-.81,.55-1.43,1.32-1.85,2.29-.42,.97-.63,2.12-.63,3.45v.11Z"
       id="path16"
       style="fill:#ffffff" />
    <path
       class="cls-1"
       d="M379.91,72.64c-.37,0-.68-.13-.94-.39-.26-.26-.39-.59-.39-.99v-25.93c0-.37,.13-.69,.39-.97,.26-.28,.57-.41,.94-.41h5.41c.37,0,.69,.14,.96,.41,.28,.28,.41,.6,.41,.97v2.21c.92-1.14,2.05-2.02,3.39-2.65,1.34-.62,2.9-.94,4.66-.94h2.37c.37,0,.68,.13,.94,.39,.26,.26,.39,.59,.39,.99v4.74c0,.41-.13,.74-.39,.99s-.57,.39-.94,.39h-4.85c-1.62,0-2.89,.45-3.81,1.35-.92,.9-1.38,2.18-1.38,3.83v14.62c0,.4-.13,.74-.39,.99s-.59,.39-.99,.39h-5.79Z"
       id="path18"
       style="fill:#ffffff" />
    <path
       class="cls-1"
       d="M403.96,72.64c-.41,0-.74-.13-.99-.39-.26-.26-.39-.59-.39-.99V34.85c0-.4,.13-.74,.39-.99s.59-.39,.99-.39h5.41c.37,0,.68,.13,.94,.39,.26,.26,.39,.59,.39,.99v18.64l8.5-8.6c.29-.26,.56-.48,.8-.66,.24-.18,.62-.28,1.13-.28h6.23c.37,0,.66,.12,.88,.36,.22,.24,.33,.52,.33,.85,0,.15-.04,.31-.11,.5-.07,.18-.2,.33-.39,.44l-10.65,10.7,12.03,13.73c.33,.29,.5,.59,.5,.88,0,.33-.12,.62-.36,.85-.24,.24-.52,.36-.86,.36h-6.4c-.55,0-.95-.09-1.19-.28-.24-.18-.51-.4-.8-.66l-9.65-10.81v10.37c0,.4-.13,.74-.39,.99-.26,.26-.57,.39-.94,.39h-5.41Z"
       id="path20"
       style="fill:#ffffff" />
    <path
       class="cls-1"
       d="M191.32,128.35c-3.35,0-6.23-.55-8.66-1.65-2.43-1.1-4.32-2.77-5.68-4.99-1.36-2.22-2.1-5.03-2.21-8.41-.04-1.58-.05-3.15-.05-4.72s.02-3.15,.05-4.77c.11-3.31,.86-6.1,2.23-8.36s3.29-3.96,5.74-5.1c2.45-1.14,5.3-1.71,8.58-1.71s6.08,.57,8.52,1.71c2.45,1.14,4.37,2.84,5.76,5.1s2.13,5.05,2.21,8.36c.07,1.62,.11,3.21,.11,4.77s-.04,3.14-.11,4.72c-.11,3.38-.85,6.19-2.21,8.41-1.36,2.23-3.25,3.89-5.68,4.99-2.43,1.1-5.29,1.65-8.6,1.65Zm0-7.12c2.13,0,3.89-.65,5.27-1.96,1.38-1.3,2.1-3.39,2.18-6.26,.07-1.62,.11-3.13,.11-4.55s-.04-2.91-.11-4.5c-.04-1.91-.39-3.48-1.05-4.69-.66-1.21-1.54-2.1-2.62-2.68-1.08-.57-2.34-.85-3.78-.85s-2.7,.29-3.81,.85c-1.1,.57-1.98,1.46-2.62,2.68-.64,1.21-1,2.78-1.08,4.69-.04,1.58-.06,3.08-.06,4.5s.02,2.93,.06,4.55c.11,2.87,.85,4.96,2.21,6.26,1.36,1.31,3.12,1.96,5.3,1.96Z"
       id="path22"
       style="fill:#ffffff" />
    <path
       class="cls-1"
       d="M230.81,128.35c-2.1,0-3.84-.36-5.24-1.08-1.4-.72-2.54-1.63-3.42-2.73v1.88c0,.4-.13,.74-.39,.99-.26,.26-.59,.39-.99,.39h-5.24c-.41,0-.74-.13-.99-.39-.26-.26-.39-.59-.39-.99v-36.41c0-.4,.13-.74,.39-.99s.59-.39,.99-.39h5.68c.37,0,.68,.13,.94,.39,.26,.26,.39,.59,.39,.99v12.02c.92-1.03,2.06-1.87,3.42-2.51,1.36-.64,2.98-.97,4.85-.97s3.58,.32,4.99,.97c1.42,.64,2.62,1.54,3.61,2.7,.99,1.16,1.75,2.53,2.29,4.11,.53,1.58,.82,3.33,.85,5.24,.04,.66,.06,1.28,.06,1.85s-.02,1.21-.06,1.9c-.07,1.95-.38,3.72-.91,5.32-.53,1.6-1.29,2.98-2.26,4.14-.97,1.16-2.17,2.04-3.58,2.65-1.42,.61-3.08,.91-4.99,.91Zm-2.48-6.62c1.4,0,2.5-.3,3.31-.91,.81-.61,1.39-1.41,1.74-2.4,.35-.99,.56-2.08,.63-3.25,.07-1.14,.07-2.28,0-3.42-.07-1.18-.29-2.26-.63-3.25-.35-.99-.93-1.79-1.74-2.4-.81-.61-1.91-.91-3.31-.91-1.32,0-2.4,.29-3.23,.88-.83,.59-1.45,1.33-1.88,2.23-.42,.9-.65,1.87-.69,2.9-.04,.66-.05,1.34-.05,2.04s.02,1.4,.05,2.1c.07,1.1,.29,2.13,.66,3.09,.37,.96,.97,1.75,1.82,2.37,.85,.63,1.95,.94,3.31,.94Z"
       id="path24"
       style="fill:#ffffff" />
    <path
       class="cls-1"
       d="M259.11,128.35c-1.84,0-3.47-.3-4.91-.91-1.43-.61-2.65-1.49-3.64-2.65-.99-1.16-1.75-2.54-2.26-4.14-.52-1.6-.83-3.37-.94-5.32-.04-.7-.06-1.33-.06-1.9s.02-1.19,.06-1.85c.07-1.91,.38-3.66,.91-5.24,.53-1.58,1.29-2.95,2.26-4.11,.97-1.16,2.19-2.06,3.64-2.7,1.45-.64,3.1-.97,4.94-.97s3.55,.32,4.91,.97c1.36,.64,2.48,1.48,3.37,2.51v-12.02c0-.4,.13-.74,.39-.99s.59-.39,.99-.39h5.68c.37,0,.68,.13,.94,.39,.26,.26,.39,.59,.39,.99v36.41c0,.4-.13,.74-.39,.99s-.57,.39-.94,.39h-5.3c-.37,0-.68-.13-.94-.39-.26-.26-.39-.59-.39-.99v-1.88c-.92,1.1-2.08,2.01-3.48,2.73-1.4,.72-3.14,1.08-5.24,1.08Zm2.54-6.62c1.36,0,2.46-.31,3.28-.94,.83-.62,1.43-1.42,1.82-2.37,.39-.96,.6-1.99,.63-3.09,.07-.7,.11-1.4,.11-2.1s-.04-1.38-.11-2.04c-.04-1.03-.26-1.99-.66-2.9-.41-.9-1.02-1.65-1.85-2.23-.83-.59-1.9-.88-3.23-.88-1.4,0-2.5,.3-3.31,.91-.81,.61-1.39,1.41-1.74,2.4-.35,.99-.56,2.08-.63,3.25-.11,1.14-.11,2.28,0,3.42,.07,1.18,.28,2.26,.63,3.25,.35,.99,.93,1.79,1.74,2.4,.81,.61,1.91,.91,3.31,.91Z"
       id="path26"
       style="fill:#ffffff" />
    <path
       class="cls-1"
       d="M291.21,128.35c-1.95,0-3.7-.38-5.24-1.13-1.54-.75-2.78-1.77-3.7-3.06-.92-1.29-1.38-2.72-1.38-4.3,0-2.61,1.06-4.67,3.17-6.18,2.11-1.51,4.9-2.54,8.36-3.09l7.23-1.05v-.99c0-1.43-.33-2.54-.99-3.31-.66-.77-1.82-1.16-3.47-1.16-1.21,0-2.19,.24-2.92,.72-.74,.48-1.31,1.1-1.71,1.88-.29,.48-.72,.72-1.27,.72h-5.24c-.41,0-.72-.12-.94-.36-.22-.24-.31-.52-.28-.85,0-.62,.24-1.36,.72-2.21,.48-.85,1.21-1.68,2.21-2.51,.99-.83,2.26-1.52,3.81-2.07,1.54-.55,3.44-.83,5.68-.83s4.3,.28,5.96,.83c1.65,.55,2.98,1.32,3.97,2.32,.99,.99,1.73,2.14,2.21,3.45,.48,1.31,.72,2.71,.72,4.22v17.04c0,.4-.13,.74-.39,.99s-.59,.39-.99,.39h-5.41c-.37,0-.68-.13-.94-.39-.26-.26-.39-.59-.39-.99v-2.04c-.48,.7-1.12,1.35-1.93,1.96-.81,.61-1.77,1.09-2.9,1.46s-2.44,.55-3.94,.55Zm2.21-5.74c1.21,0,2.3-.26,3.25-.77,.96-.51,1.71-1.3,2.26-2.37,.55-1.07,.83-2.41,.83-4.03v-.94l-5.13,.83c-1.99,.33-3.44,.83-4.36,1.49-.92,.66-1.38,1.47-1.38,2.43,0,.7,.21,1.31,.63,1.82,.42,.52,.98,.9,1.68,1.16,.7,.26,1.43,.39,2.21,.39Z"
       id="path28"
       style="fill:#ffffff" />
    <path
       class="cls-1"
       d="M327.51,128.35c-2.69,0-5.05-.5-7.09-1.49-2.04-.99-3.65-2.44-4.83-4.33-1.18-1.89-1.82-4.16-1.93-6.81-.04-.59-.06-1.33-.06-2.23s.02-1.65,.06-2.23c.11-2.68,.74-4.97,1.9-6.87,1.16-1.89,2.77-3.34,4.83-4.33,2.06-.99,4.43-1.49,7.12-1.49,2.46,0,4.56,.34,6.29,1.02,1.73,.68,3.14,1.54,4.25,2.56,1.1,1.03,1.92,2.11,2.46,3.23,.53,1.12,.82,2.11,.85,2.95,.04,.37-.08,.69-.36,.97-.28,.28-.6,.41-.96,.41h-5.9c-.37,0-.65-.1-.86-.3s-.4-.49-.58-.86c-.52-1.29-1.18-2.21-1.99-2.76-.81-.55-1.82-.83-3.03-.83-1.66,0-2.96,.53-3.92,1.6-.96,1.07-1.47,2.72-1.54,4.96-.04,1.43-.04,2.74,0,3.92,.11,2.28,.63,3.94,1.57,4.96,.94,1.03,2.23,1.54,3.89,1.54,1.29,0,2.32-.28,3.09-.83,.77-.55,1.42-1.47,1.93-2.76,.15-.37,.33-.65,.55-.85,.22-.2,.51-.3,.88-.3h5.9c.37,0,.69,.14,.96,.41,.28,.28,.39,.6,.36,.97-.04,.63-.21,1.36-.52,2.21-.31,.85-.81,1.71-1.49,2.59-.68,.88-1.55,1.7-2.62,2.46-1.07,.75-2.36,1.36-3.89,1.82-1.53,.46-3.3,.69-5.32,.69Z"
       id="path30"
       style="fill:#ffffff" />
    <path
       class="cls-1"
       d="M348.14,127.8c-.41,0-.74-.13-.99-.39-.26-.26-.39-.59-.39-.99v-36.41c0-.4,.13-.74,.39-.99s.59-.39,.99-.39h5.96c.37,0,.68,.13,.94,.39,.26,.26,.39,.59,.39,.99v12.41c.99-1.18,2.21-2.11,3.64-2.81,1.43-.7,3.16-1.05,5.18-1.05,2.17,0,4.09,.49,5.76,1.46,1.67,.97,2.99,2.39,3.94,4.25,.96,1.86,1.43,4.11,1.43,6.76v15.39c0,.4-.13,.74-.39,.99s-.59,.39-.99,.39h-6.01c-.37,0-.68-.13-.94-.39-.26-.26-.39-.59-.39-.99v-15.06c0-1.95-.48-3.47-1.43-4.55-.96-1.08-2.32-1.63-4.08-1.63s-3.12,.54-4.16,1.63c-1.05,1.08-1.57,2.6-1.57,4.55v15.06c0,.4-.13,.74-.39,.99s-.57,.39-.94,.39h-5.96Z"
       id="path32"
       style="fill:#ffffff" />
    <path
       class="cls-1"
       d="M401.54,128.35c-2.76,0-5.17-.45-7.23-1.35s-3.66-2.2-4.8-3.89c-1.14-1.69-1.71-3.68-1.71-5.96,0-1.62,.32-3.05,.96-4.3,.64-1.25,1.54-2.38,2.68-3.39,1.14-1.01,2.45-1.94,3.92-2.79-1.51-1.62-2.58-3.09-3.23-4.41-.64-1.32-.97-2.68-.97-4.08,0-1.69,.44-3.25,1.32-4.69,.88-1.43,2.19-2.6,3.92-3.5,1.73-.9,3.84-1.35,6.34-1.35,2.35,0,4.36,.43,6.01,1.3,1.66,.86,2.92,2.01,3.81,3.45,.88,1.43,1.32,3,1.32,4.69,0,1.51-.34,2.86-1.02,4.05-.68,1.2-1.61,2.27-2.79,3.23-1.18,.96-2.52,1.88-4.03,2.76l7.23,7.23c.37-.62,.83-1.49,1.38-2.59,.55-1.1,1.05-2.52,1.49-4.25,.11-.59,.5-.88,1.16-.88h4.8c.33,0,.6,.1,.8,.3,.2,.2,.3,.47,.3,.8-.04,.7-.2,1.52-.5,2.46-.29,.94-.7,1.92-1.21,2.95-.52,1.03-1.08,2.04-1.71,3.03-.63,.99-1.25,1.91-1.88,2.76l6.01,6.07c.26,.29,.39,.57,.39,.83,0,.29-.09,.53-.28,.72-.18,.18-.44,.28-.77,.28h-6.34c-.37,0-.66-.06-.88-.19-.22-.13-.42-.25-.61-.36l-2.76-2.65c-1.47,1.21-3.12,2.14-4.94,2.79s-3.89,.97-6.21,.97Zm0-6.34c1.21,0,2.36-.19,3.45-.58,1.08-.39,2.09-1.02,3.01-1.9l-8.16-8c-1.14,.63-2.12,1.37-2.92,2.23-.81,.86-1.21,1.9-1.21,3.12,0,1.07,.28,1.99,.83,2.76,.55,.77,1.28,1.36,2.18,1.77,.9,.41,1.85,.61,2.84,.61Zm.22-18.48c.92-.51,1.76-1.02,2.54-1.52,.77-.5,1.38-1.05,1.82-1.66,.44-.61,.66-1.3,.66-2.07,0-1.14-.39-2.04-1.16-2.7-.77-.66-1.73-.99-2.87-.99-1.07,0-2,.33-2.81,.99-.81,.66-1.21,1.56-1.21,2.7,0,.52,.09,1.02,.28,1.52,.18,.5,.5,1.04,.94,1.63,.44,.59,1.05,1.29,1.82,2.1Z"
       id="path34"
       style="fill:#ffffff" />
    <path
       class="cls-1"
       d="M182.27,182.96c-.59,0-1.06-.17-1.41-.5-.35-.33-.56-.73-.63-1.21l-6.29-35.36c-.04-.07-.06-.15-.06-.22v-.17c0-.29,.11-.56,.33-.8,.22-.24,.5-.36,.83-.36h5.79c.96,0,1.49,.39,1.6,1.16l4.14,23.33,4.47-14.51c.11-.29,.29-.61,.55-.94,.26-.33,.68-.5,1.27-.5h3.48c.59,0,1.01,.17,1.27,.5,.26,.33,.42,.64,.5,.94l4.52,14.45,4.08-23.28c.11-.77,.66-1.16,1.66-1.16h5.79c.33,0,.61,.12,.83,.36,.22,.24,.33,.51,.33,.8v.17c0,.07-.02,.15-.06,.22l-6.29,35.36c-.07,.48-.29,.88-.63,1.21s-.82,.5-1.41,.5h-4.47c-.59,0-1.04-.16-1.35-.47-.31-.31-.52-.63-.63-.97l-5.9-17.1-5.85,17.1c-.11,.33-.32,.65-.63,.97-.31,.31-.78,.47-1.41,.47h-4.41Z"
       id="path36"
       style="fill:#ffffff" />
    <path
       class="cls-1"
       d="M232.86,183.51c-3.05,0-5.61-.51-7.67-1.52-2.06-1.01-3.63-2.45-4.72-4.33-1.08-1.88-1.68-4.06-1.79-6.56-.04-.73-.05-1.57-.05-2.51s.02-1.76,.05-2.45c.11-2.54,.74-4.73,1.88-6.59,1.14-1.86,2.74-3.29,4.8-4.3,2.06-1.01,4.56-1.52,7.5-1.52s5.39,.51,7.45,1.52c2.06,1.01,3.66,2.45,4.8,4.3,1.14,1.86,1.76,4.05,1.88,6.59,.07,.7,.11,1.52,.11,2.45s-.04,1.77-.11,2.51c-.11,2.5-.71,4.69-1.79,6.56s-2.66,3.32-4.72,4.33c-2.06,1.01-4.6,1.52-7.61,1.52Zm0-6.07c1.8,0,3.16-.56,4.08-1.68,.92-1.12,1.42-2.77,1.49-4.94,.04-.55,.05-1.29,.05-2.21s-.02-1.65-.05-2.21c-.07-2.13-.57-3.77-1.49-4.91-.92-1.14-2.28-1.71-4.08-1.71s-3.17,.57-4.11,1.71c-.94,1.14-1.44,2.78-1.52,4.91-.04,.55-.06,1.29-.06,2.21s.02,1.65,.06,2.21c.07,2.17,.58,3.82,1.52,4.94,.94,1.12,2.31,1.68,4.11,1.68Z"
       id="path38"
       style="fill:#ffffff" />
    <path
       class="cls-1"
       d="M254.26,182.96c-.41,0-.74-.13-.99-.39-.26-.26-.39-.59-.39-.99v-36.41c0-.4,.13-.74,.39-.99s.59-.39,.99-.39h5.96c.37,0,.68,.13,.94,.39,.26,.26,.39,.59,.39,.99v12.41c.99-1.18,2.21-2.11,3.64-2.81,1.43-.7,3.16-1.05,5.18-1.05,2.17,0,4.09,.49,5.76,1.46,1.67,.97,2.99,2.39,3.94,4.25,.96,1.86,1.43,4.11,1.43,6.76v15.39c0,.4-.13,.74-.39,.99s-.59,.39-.99,.39h-6.01c-.37,0-.68-.13-.94-.39-.26-.26-.39-.59-.39-.99v-15.06c0-1.95-.48-3.47-1.43-4.55-.96-1.08-2.32-1.63-4.08-1.63s-3.12,.54-4.16,1.63c-1.05,1.08-1.57,2.6-1.57,4.55v15.06c0,.4-.13,.74-.39,.99s-.57,.39-.94,.39h-5.96Z"
       id="path40"
       style="fill:#ffffff" />
    <path
       class="cls-1"
       d="M289.45,182.96c-.37,0-.68-.13-.94-.39-.26-.26-.39-.59-.39-.99v-25.93c0-.4,.13-.74,.39-.99s.57-.39,.94-.39h5.41c.4,0,.74,.13,.99,.39,.26,.26,.39,.59,.39,.99v2.15c.96-1.18,2.19-2.15,3.7-2.92,1.51-.77,3.35-1.16,5.52-1.16s4.07,.49,5.71,1.46c1.64,.97,2.92,2.39,3.86,4.25,.94,1.86,1.41,4.11,1.41,6.76v15.39c0,.4-.14,.74-.41,.99-.28,.26-.6,.39-.97,.39h-5.85c-.41,0-.74-.13-.99-.39-.26-.26-.39-.59-.39-.99v-15.06c0-1.95-.47-3.47-1.41-4.55-.94-1.08-2.31-1.63-4.11-1.63s-3.11,.54-4.14,1.63c-1.03,1.08-1.54,2.6-1.54,4.55v15.06c0,.4-.13,.74-.39,.99s-.57,.39-.94,.39h-5.85Z"
       id="path42"
       style="fill:#ffffff" />
    <path
       class="cls-1"
       d="M335.84,183.51c-4.23,0-7.58-1.18-10.07-3.53-2.48-2.35-3.8-5.77-3.94-10.26v-2.37c.15-2.83,.79-5.27,1.93-7.31,1.14-2.04,2.74-3.6,4.8-4.69,2.06-1.08,4.47-1.63,7.23-1.63,3.09,0,5.67,.63,7.75,1.9,2.08,1.27,3.64,3,4.69,5.19,1.05,2.19,1.57,4.7,1.57,7.53v1.27c0,.37-.14,.68-.41,.94-.28,.26-.6,.39-.96,.39h-18.04v.44c.04,1.18,.27,2.25,.69,3.23,.42,.97,1.03,1.76,1.82,2.34,.79,.59,1.74,.88,2.84,.88,.92,0,1.67-.13,2.26-.39,.59-.26,1.08-.57,1.46-.94,.39-.37,.67-.68,.85-.94,.33-.37,.6-.6,.8-.69,.2-.09,.52-.14,.97-.14h5.74c.37,0,.67,.1,.91,.3,.24,.2,.34,.49,.3,.85-.04,.59-.34,1.31-.91,2.18-.57,.86-1.41,1.71-2.51,2.54-1.1,.83-2.47,1.52-4.11,2.07-1.64,.55-3.52,.83-5.65,.83Zm-5.46-17.6h10.81v-.11c0-1.32-.21-2.47-.63-3.45-.42-.97-1.04-1.74-1.85-2.29-.81-.55-1.78-.83-2.92-.83s-2.12,.28-2.92,.83c-.81,.55-1.43,1.32-1.85,2.29-.42,.97-.63,2.12-.63,3.45v.11Z"
       id="path44"
       style="fill:#ffffff" />
    <path
       class="cls-1"
       d="M356.64,182.96c-.37,0-.68-.13-.94-.39-.26-.26-.39-.59-.39-.99v-25.93c0-.4,.13-.74,.39-.99s.57-.39,.94-.39h5.41c.4,0,.74,.13,.99,.39,.26,.26,.39,.59,.39,.99v2.15c.96-1.18,2.19-2.15,3.7-2.92,1.51-.77,3.35-1.16,5.52-1.16s4.07,.49,5.71,1.46c1.64,.97,2.92,2.39,3.86,4.25,.94,1.86,1.41,4.11,1.41,6.76v15.39c0,.4-.14,.74-.41,.99-.28,.26-.6,.39-.97,.39h-5.85c-.41,0-.74-.13-.99-.39-.26-.26-.39-.59-.39-.99v-15.06c0-1.95-.47-3.47-1.41-4.55-.94-1.08-2.31-1.63-4.11-1.63s-3.11,.54-4.14,1.63c-1.03,1.08-1.54,2.6-1.54,4.55v15.06c0,.4-.13,.74-.39,.99s-.57,.39-.94,.39h-5.85Z"
       id="path46"
       style="fill:#ffffff" />
  </g>
  <path
     class="cls-1"
     d="M381.94,195.54c-25.3,.04-50.59-.08-75.9-.1-55.89-.02-111.8-.01-167.7-.01h-1.92v-1.87c0-22.06,.01-44.12,0-66.19,0-9.21-7.48-16.7-16.65-16.73-9.84-.04-19.69-.02-29.54,.01-1.18,0-2.38,.15-3.52,.42-7.78,1.84-13.07,8.5-13.07,16.5,0,22.02,0,44.05,0,66.07v1.72c-.42,.04-.64,.07-.84,.07-9.89,0-19.79,.1-29.67-.05-5.06-.07-9.23-2.34-12.46-6.23-2.8-3.38-3.93-7.33-3.92-11.68,.06-16.76,.12-33.53,.15-50.29,.02-11.58,0-23.16,0-34.75,0-.38,.02-.76,0-1.14-.18-2.98-2.12-4.85-5.1-4.87-1.32-.02-2.63,.02-3.95-.03-5.53-.24-9.2-4.77-7.99-9.86,.53-2.19,1.95-3.75,3.66-5.04,14.65-11.05,29.29-22.09,43.94-33.11,6.65-4.99,13.35-9.95,20.04-14.91,4.63-3.44,9.2-6.98,13.95-10.26,4.63-3.21,9.88-4.07,15.42-3.32,4.46,.6,8.18,2.77,11.71,5.41,11.97,8.94,23.97,17.87,35.94,26.79,2.19,1.62,5.36,1.33,6.77-.59,1.86-2.53,1.44-5.39-1.04-7.23-4.65-3.45-9.32-6.89-13.97-10.35-7.75-5.76-15.54-11.48-23.25-17.28-11.77-8.84-27.28-8.85-39.03-.03-8.02,6.03-16.15,11.93-24.18,17.95-17.61,13.23-35.24,26.42-52.75,39.8C1.41,68.67-1.08,74.61,.44,81.78c1.71,8.09,7.14,12.98,15.35,14.04,1.07,.13,1.5,.46,1.49,1.62-.07,4.28,0,8.58-.02,12.86-.04,11.03-.14,22.06-.17,33.09-.03,11.45,0,22.91,.01,34.36,0,1.36,.11,2.73,.28,4.08,1.73,13.15,12.91,23.08,26.17,23.19,12.39,.11,24.79,.22,37.17,.22,18.25,0,36.5-.18,54.74-.17,46.23,.02,92.46,.12,138.67,.16,35.79,.03,71.57,.01,107.35,.01,.34,0,.69,.02,1.02-.01,2.1-.17,3.78-1.02,4.57-3.08,1.22-3.19-.94-6.62-5.13-6.61Zm-255.11-.22h-43.59v-67.18c0-4.91,3.03-7.92,7.93-7.92h27.88c4.71,.01,7.78,3.07,7.78,7.82v67.28Z"
     id="path50" />
</svg>
